  0
SECTION
  2
HEADER
  9
$ACADVER
  1
AC1024
  9
$ACADMAINTVER
 70
6
  9
$DWGCODEPAGE
  3
ANSI_1252
  9
$LASTSAVEDBY
  1
ezdxf
  9
$INSBASE
 10
0.0
 20
0.0
 30
0.0
  9
$EXTMIN
 10
1e+20
 20
1e+20
 30
1e+20
  9
$EXTMAX
 10
-1e+20
 20
-1e+20
 30
-1e+20
  9
$LIMMIN
 10
0.0
 20
0.0
  9
$LIMMAX
 10
420.0
 20
297.0
  9
$ORTHOMODE
 70
0
  9
$REGENMODE
 70
1
  9
$FILLMODE
 70
1
  9
$QTEXTMODE
 70
0
  9
$MIRRTEXT
 70
1
  9
$LTSCALE
 40
1.0
  9
$ATTMODE
 70
1
  9
$TEXTSIZE
 40
2.5
  9
$TRACEWID
 40
1.0
  9
$TEXTSTYLE
  7
Standard
  9
$CLAYER
  8
0
  9
$CELTYPE
  6
ByLayer
  9
$CECOLOR
 62
256
  9
$CELTSCALE
 40
1.0
  9
$DISPSILH
 70
0
  9
$DIMSCALE
 40
1.0
  9
$DIMASZ
 40
2.5
  9
$DIMEXO
 40
0.625
  9
$DIMDLI
 40
3.75
  9
$DIMRND
 40
0.0
  9
$DIMDLE
 40
0.0
  9
$DIMEXE
 40
1.25
  9
$DIMTP
 40
0.0
  9
$DIMTM
 40
0.0
  9
$DIMTXT
 40
2.5
  9
$DIMCEN
 40
2.5
  9
$DIMTSZ
 40
0.0
  9
$DIMTOL
 70
0
  9
$DIMLIM
 70
0
  9
$DIMTIH
 70
0
  9
$DIMTOH
 70
0
  9
$DIMSE1
 70
0
  9
$DIMSE2
 70
0
  9
$DIMTAD
 70
1
  9
$DIMZIN
 70
8
  9
$DIMBLK
  1

  9
$DIMASO
 70
1
  9
$DIMSHO
 70
1
  9
$DIMPOST
  1

  9
$DIMAPOST
  1

  9
$DIMALT
 70
0
  9
$DIMALTD
 70
3
  9
$DIMALTF
 40
0.03937007874
  9
$DIMLFAC
 40
1.0
  9
$DIMTOFL
 70
1
  9
$DIMTVP
 40
0.0
  9
$DIMTIX
 70
0
  9
$DIMSOXD
 70
0
  9
$DIMSAH
 70
0
  9
$DIMBLK1
  1

  9
$DIMBLK2
  1

  9
$DIMSTYLE
  2
ISO-25
  9
$DIMCLRD
 70
0
  9
$DIMCLRE
 70
0
  9
$DIMCLRT
 70
0
  9
$DIMTFAC
 40
1.0
  9
$DIMGAP
 40
0.625
  9
$DIMJUST
 70
0
  9
$DIMSD1
 70
0
  9
$DIMSD2
 70
0
  9
$DIMTOLJ
 70
0
  9
$DIMTZIN
 70
8
  9
$DIMALTZ
 70
0
  9
$DIMALTTZ
 70
0
  9
$DIMUPT
 70
0
  9
$DIMDEC
 70
2
  9
$DIMTDEC
 70
2
  9
$DIMALTU
 70
2
  9
$DIMALTTD
 70
3
  9
$DIMTXSTY
  7
Standard
  9
$DIMAUNIT
 70
0
  9
$DIMADEC
 70
0
  9
$DIMALTRND
 40
0.0
  9
$DIMAZIN
 70
0
  9
$DIMDSEP
 70
44
  9
$DIMATFIT
 70
3
  9
$DIMFRAC
 70
0
  9
$DIMLDRBLK
  1

  9
$DIMLUNIT
 70
2
  9
$DIMLWD
 70
-2
  9
$DIMLWE
 70
-2
  9
$DIMTMOVE
 70
0
  9
$DIMFXL
 40
1.0
  9
$DIMFXLON
 70
0
  9
$DIMJOGANG
 40
0.785398163397
  9
$DIMTFILL
 70
0
  9
$DIMTFILLCLR
 70
0
  9
$DIMARCSYM
 70
0
  9
$DIMLTYPE
  6

  9
$DIMLTEX1
  6

  9
$DIMLTEX2
  6

  9
$DIMTXTDIRECTION
 70
0
  9
$LUNITS
 70
2
  9
$LUPREC
 70
4
  9
$SKETCHINC
 40
1.0
  9
$FILLETRAD
 40
10.0
  9
$AUNITS
 70
0
  9
$AUPREC
 70
2
  9
$MENU
  1
.
  9
$ELEVATION
 40
0.0
  9
$PELEVATION
 40
0.0
  9
$THICKNESS
 40
0.0
  9
$LIMCHECK
 70
0
  9
$CHAMFERA
 40
0.0
  9
$CHAMFERB
 40
0.0
  9
$CHAMFERC
 40
0.0
  9
$CHAMFERD
 40
0.0
  9
$SKPOLY
 70
0
  9
$TDCREATE
 40
2461318.7460648147
  9
$TDUCREATE
 40
2458532.153996898
  9
$TDUPDATE
 40
2461318.7460648147
  9
$TDUUPDATE
 40
2458532.1544311
  9
$TDINDWG
 40
0.0
  9
$TDUSRTIMER
 40
0.0
  9
$USRTIMER
 70
1
  9
$ANGBASE
 50
0.0
  9
$ANGDIR
 70
0
  9
$PDMODE
 70
0
  9
$PDSIZE
 40
0.0
  9
$PLINEWID
 40
0.0
  9
$SPLFRAME
 70
0
  9
$SPLINETYPE
 70
6
  9
$SPLINESEGS
 70
8
  9
$HANDSEED
  5
58
  9
$SURFTAB1
 70
6
  9
$SURFTAB2
 70
6
  9
$SURFTYPE
 70
6
  9
$SURFU
 70
6
  9
$SURFV
 70
6
  9
$UCSBASE
  2

  9
$UCSNAME
  2

  9
$UCSORG
 10
0.0
 20
0.0
 30
0.0
  9
$UCSXDIR
 10
1.0
 20
0.0
 30
0.0
  9
$UCSYDIR
 10
0.0
 20
1.0
 30
0.0
  9
$UCSORTHOREF
  2

  9
$UCSORTHOVIEW
 70
0
  9
$UCSORGTOP
 10
0.0
 20
0.0
 30
0.0
  9
$UCSORGBOTTOM
 10
0.0
 20
0.0
 30
0.0
  9
$UCSORGLEFT
 10
0.0
 20
0.0
 30
0.0
  9
$UCSORGRIGHT
 10
0.0
 20
0.0
 30
0.0
  9
$UCSORGFRONT
 10
0.0
 20
0.0
 30
0.0
  9
$UCSORGBACK
 10
0.0
 20
0.0
 30
0.0
  9
$PUCSBASE
  2

  9
$PUCSNAME
  2

  9
$PUCSORG
 10
0.0
 20
0.0
 30
0.0
  9
$PUCSXDIR
 10
1.0
 20
0.0
 30
0.0
  9
$PUCSYDIR
 10
0.0
 20
1.0
 30
0.0
  9
$PUCSORTHOREF
  2

  9
$PUCSORTHOVIEW
 70
0
  9
$PUCSORGTOP
 10
0.0
 20
0.0
 30
0.0
  9
$PUCSORGBOTTOM
 10
0.0
 20
0.0
 30
0.0
  9
$PUCSORGLEFT
 10
0.0
 20
0.0
 30
0.0
  9
$PUCSORGRIGHT
 10
0.0
 20
0.0
 30
0.0
  9
$PUCSORGFRONT
 10
0.0
 20
0.0
 30
0.0
  9
$PUCSORGBACK
 10
0.0
 20
0.0
 30
0.0
  9
$USERI1
 70
0
  9
$USERI2
 70
0
  9
$USERI3
 70
0
  9
$USERI4
 70
0
  9
$USERI5
 70
0
  9
$USERR1
 40
0.0
  9
$USERR2
 40
0.0
  9
$USERR3
 40
0.0
  9
$USERR4
 40
0.0
  9
$USERR5
 40
0.0
  9
$WORLDVIEW
 70
1
  9
$SHADEDGE
 70
3
  9
$SHADEDIF
 70
70
  9
$TILEMODE
 70
1
  9
$MAXACTVP
 70
64
  9
$PINSBASE
 10
0.0
 20
0.0
 30
0.0
  9
$PLIMCHECK
 70
0
  9
$PEXTMIN
 10
1e+20
 20
1e+20
 30
1e+20
  9
$PEXTMAX
 10
-1e+20
 20
-1e+20
 30
-1e+20
  9
$PLIMMIN
 10
0.0
 20
0.0
  9
$PLIMMAX
 10
420.0
 20
297.0
  9
$UNITMODE
 70
0
  9
$VISRETAIN
 70
1
  9
$PLINEGEN
 70
0
  9
$PSLTSCALE
 70
1
  9
$TREEDEPTH
 70
3020
  9
$CMLSTYLE
  2
Standard
  9
$CMLJUST
 70
0
  9
$CMLSCALE
 40
20.0
  9
$PROXYGRAPHICS
 70
1
  9
$MEASUREMENT
 70
1
  9
$CELWEIGHT
370
-1
  9
$ENDCAPS
280
0
  9
$JOINSTYLE
280
0
  9
$LWDISPLAY
290
0
  9
$INSUNITS
 70
4
  9
$HYPERLINKBASE
  1

  9
$STYLESHEET
  1

  9
$XEDIT
290
1
  9
$CEPSNTYPE
380
0
  9
$PSTYLEMODE
290
1
  9
$FINGERPRINTGUID
  2
{CB6FB967-B5D5-45B0-AA44-AE1E7F9AB76C}
  9
$VERSIONGUID
  2
{B9936C9C-A2D5-4957-A577-BB1C7B6896CE}
  9
$EXTNAMES
290
1
  9
$PSVPSCALE
 40
0.0
  9
$OLESTARTUP
290
0
  9
$SORTENTS
280
127
  9
$INDEXCTL
280
0
  9
$HIDETEXT
280
1
  9
$XCLIPFRAME
280
1
  9
$HALOGAP
280
0
  9
$OBSCOLOR
 70
257
  9
$OBSLTYPE
280
0
  9
$INTERSECTIONDISPLAY
280
0
  9
$INTERSECTIONCOLOR
 70
257
  9
$DIMASSOC
280
2
  9
$PROJECTNAME
  1

  9
$CAMERADISPLAY
290
0
  9
$LENSLENGTH
 40
50.0
  9
$CAMERAHEIGHT
 40
0.0
  9
$STEPSPERSEC
 40
24.0
  9
$STEPSIZE
 40
100.0
  9
$3DDWFPREC
 40
2.0
  9
$PSOLWIDTH
 40
0.005
  9
$PSOLHEIGHT
 40
0.08
  9
$LOFTANG1
 40
1.570796326795
  9
$LOFTANG2
 40
1.570796326795
  9
$LOFTMAG1
 40
0.0
  9
$LOFTMAG2
 40
0.0
  9
$LOFTPARAM
 70
7
  9
$LOFTNORMALS
280
1
  9
$LATITUDE
 40
37.795
  9
$LONGITUDE
 40
-122.394
  9
$NORTHDIRECTION
 40
0.0
  9
$TIMEZONE
 70
-8000
  9
$LIGHTGLYPHDISPLAY
280
1
  9
$TILEMODELIGHTSYNCH
280
1
  9
$CMATERIAL
347
20
  9
$SOLIDHIST
280
0
  9
$SHOWHIST
280
1
  9
$DWFFRAME
280
2
  9
$DGNFRAME
280
2
  9
$REALWORLDSCALE
290
1
  9
$INTERFERECOLOR
 62
256
  9
$CSHADOW
280
0
  9
$SHADOWPLANELOCATION
 40
0.0
  0
ENDSEC
  0
SECTION
  2
CLASSES
  0
CLASS
  1
ACDBDICTIONARYWDFLT
  2
AcDbDictionaryWithDefault
  3
ObjectDBX Classes
 90
0
 91
0
280
0
281
0
  0
CLASS
  1
SUN
  2
AcDbSun
  3
SCENEOE
 90
1153
 91
0
280
0
281
0
  0
CLASS
  1
VISUALSTYLE
  2
AcDbVisualStyle
  3
ObjectDBX Classes
 90
4095
 91
0
280
0
281
0
  0
CLASS
  1
MATERIAL
  2
AcDbMaterial
  3
ObjectDBX Classes
 90
1153
 91
0
280
0
281
0
  0
CLASS
  1
SCALE
  2
AcDbScale
  3
ObjectDBX Classes
 90
1153
 91
0
280
0
281
0
  0
CLASS
  1
TABLESTYLE
  2
AcDbTableStyle
  3
ObjectDBX Classes
 90
4095
 91
0
280
0
281
0
  0
CLASS
  1
MLEADERSTYLE
  2
AcDbMLeaderStyle
  3
ACDB_MLEADERSTYLE_CLASS
 90
4095
 91
0
280
0
281
0
  0
CLASS
  1
DICTIONARYVAR
  2
AcDbDictionaryVar
  3
ObjectDBX Classes
 90
0
 91
0
280
0
281
0
  0
CLASS
  1
CELLSTYLEMAP
  2
AcDbCellStyleMap
  3
ObjectDBX Classes
 90
1152
 91
0
280
0
281
0
  0
CLASS
  1
MENTALRAYRENDERSETTINGS
  2
AcDbMentalRayRenderSettings
  3
SCENEOE
 90
1024
 91
0
280
0
281
0
  0
CLASS
  1
ACDBDETAILVIEWSTYLE
  2
AcDbDetailViewStyle
  3
ObjectDBX Classes
 90
1025
 91
0
280
0
281
0
  0
CLASS
  1
ACDBSECTIONVIEWSTYLE
  2
AcDbSectionViewStyle
  3
ObjectDBX Classes
 90
1025
 91
0
280
0
281
0
  0
CLASS
  1
RASTERVARIABLES
  2
AcDbRasterVariables
  3
ISM
 90
0
 91
0
280
0
281
0
  0
CLASS
  1
LAYOUT
  2
AcDbLayout
  3
ObjectDBX Classes
 90
0
 91
0
280
0
281
0
  0
CLASS
  1
ACDBPLACEHOLDER
  2
AcDbPlaceHolder
  3
ObjectDBX Classes
 90
0
 91
0
280
0
281
0
  0
ENDSEC
  0
SECTION
  2
TABLES
  0
TABLE
  2
VPORT
  5
8
330
0
100
AcDbSymbolTable
 70
1
  0
VPORT
  5
23
330
8
100
AcDbSymbolTableRecord
100
AcDbViewportTableRecord
  2
*Active
 70
0
 10
0.0
 20
0.0
 11
1.0
 21
1.0
 12
0.0
 22
0.0
 13
0.0
 23
0.0
 14
0.5
 24
0.5
 15
0.5
 25
0.5
 16
0.0
 26
0.0
 36
1.0
 17
0.0
 27
0.0
 37
0.0
 40
1000.0
 41
1.34
 42
50.0
 43
0.0
 44
0.0
 50
0.0
 51
0.0
 71
0
 72
1000
 73
1
 74
3
 75
0
 76
0
 77
0
 78
0
281
0
 65
0
146
0.0
  0
ENDTAB
  0
TABLE
  2
LTYPE
  5
2
330
0
100
AcDbSymbolTable
 70
3
  0
LTYPE
  5
24
330
2
100
AcDbSymbolTableRecord
100
AcDbLinetypeTableRecord
  2
ByBlock
 70
0
  3

 72
65
 73
0
 40
0.0
  0
LTYPE
  5
25
330
2
100
AcDbSymbolTableRecord
100
AcDbLinetypeTableRecord
  2
ByLayer
 70
0
  3

 72
65
 73
0
 40
0.0
  0
LTYPE
  5
26
330
2
100
AcDbSymbolTableRecord
100
AcDbLinetypeTableRecord
  2
Continuous
 70
0
  3

 72
65
 73
0
 40
0.0
  0
ENDTAB
  0
TABLE
  2
LAYER
  5
1
330
0
100
AcDbSymbolTable
 70
7
  0
LAYER
  5
27
330
1
100
AcDbSymbolTableRecord
100
AcDbLayerTableRecord
  2
0
 70
0
 62
7
  6
Continuous
370
-3
390
13
347
21
  0
LAYER
  5
28
330
1
100
AcDbSymbolTableRecord
100
AcDbLayerTableRecord
  2
Defpoints
 70
0
 62
7
  6
Continuous
290
0
370
-3
390
13
347
21
  0
LAYER
  5
2F
330
1
100
AcDbSymbolTableRecord
100
AcDbLayerTableRecord
  2
CONTOUR
 70
0
 62
7
  6
Continuous
370
-3
390
13
347
21
  0
LAYER
  5
30
330
1
100
AcDbSymbolTableRecord
100
AcDbLayerTableRecord
  2
AXIS
 70
0
 62
1
  6
Continuous
370
-3
390
13
347
21
  0
LAYER
  5
31
330
1
100
AcDbSymbolTableRecord
100
AcDbLayerTableRecord
  2
HOLES
 70
0
 62
4
  6
Continuous
370
-3
390
13
347
21
  0
LAYER
  5
32
330
1
100
AcDbSymbolTableRecord
100
AcDbLayerTableRecord
  2
PITCH_CIRCLE
 70
0
 62
1
  6
Continuous
370
-3
390
13
347
21
  0
LAYER
  5
33
330
1
100
AcDbSymbolTableRecord
100
AcDbLayerTableRecord
  2
ROOT_CIRCLE
 70
0
 62
8
  6
Continuous
370
-3
390
13
347
21
  0
ENDTAB
  0
TABLE
  2
STYLE
  5
5
330
0
100
AcDbSymbolTable
 70
1
  0
STYLE
  5
29
330
5
100
AcDbSymbolTableRecord
100
AcDbTextStyleTableRecord
  2
Standard
 70
0
 40
0.0
 41
1.0
 50
0.0
 71
0
 42
2.5
  3
txt
  4

  0
ENDTAB
  0
TABLE
  2
VIEW
  5
7
330
0
100
AcDbSymbolTable
 70
0
  0
ENDTAB
  0
TABLE
  2
UCS
  5
6
330
0
100
AcDbSymbolTable
 70
0
  0
ENDTAB
  0
TABLE
  2
APPID
  5
3
330
0
100
AcDbSymbolTable
 70
3
  0
APPID
  5
2A
330
3
100
AcDbSymbolTableRecord
100
AcDbRegAppTableRecord
  2
ACAD
 70
0
  0
APPID
  5
55
330
3
100
AcDbSymbolTableRecord
100
AcDbRegAppTableRecord
  2
HATCHBACKGROUNDCOLOR
 70
0
  0
APPID
  5
56
330
3
100
AcDbSymbolTableRecord
100
AcDbRegAppTableRecord
  2
EZDXF
 70
0
  0
ENDTAB
  0
TABLE
  2
DIMSTYLE
  5
4
330
0
100
AcDbSymbolTable
 70
1
100
AcDbDimStyleTable
  0
DIMSTYLE
105
2B
330
4
100
AcDbSymbolTableRecord
100
AcDbDimStyleTableRecord
  2
Standard
 70
0
 40
1.0
 41
2.5
 42
0.625
 43
3.75
 44
1.25
 45
0.0
 46
0.0
 47
0.0
 48
0.0
 49
2.5
140
2.5
141
2.5
142
0.0
143
0.03937007874
144
1.0
145
0.0
146
1.0
147
0.625
148
0.0
 69
0
 70
0
 71
0
 72
0
 73
0
 74
0
 75
0
 76
0
 77
1
 78
8
 79
3
170
0
171
3
172
1
173
0
174
0
175
0
176
0
177
0
178
0
179
2
271
2
272
2
273
2
274
3
275
0
276
0
277
2
278
44
279
0
280
0
281
0
282
0
283
0
284
8
285
0
286
0
288
0
289
3
290
0
371
-2
372
-2
  0
ENDTAB
  0
TABLE
  2
BLOCK_RECORD
  5
9
330
0
100
AcDbSymbolTable
 70
2
  0
BLOCK_RECORD
  5
17
330
9
100
AcDbSymbolTableRecord
100
AcDbBlockTableRecord
  2
*Model_Space
340
1A
 70
0
280
1
281
0
  0
BLOCK_RECORD
  5
1B
330
9
100
AcDbSymbolTableRecord
100
AcDbBlockTableRecord
  2
*Paper_Space
340
1E
 70
0
280
1
281
0
  0
ENDTAB
  0
ENDSEC
  0
SECTION
  2
BLOCKS
  0
BLOCK
  5
18
330
17
100
AcDbEntity
  8
0
100
AcDbBlockBegin
  2
*Model_Space
 70
0
 10
0.0
 20
0.0
 30
0.0
  3
*Model_Space
  1

  0
ENDBLK
  5
19
330
17
100
AcDbEntity
  8
0
100
AcDbBlockEnd
  0
BLOCK
  5
1C
330
1B
100
AcDbEntity
  8
0
100
AcDbBlockBegin
  2
*Paper_Space
 70
0
 10
0.0
 20
0.0
 30
0.0
  3
*Paper_Space
  1

  0
ENDBLK
  5
1D
330
1B
100
AcDbEntity
  8
0
100
AcDbBlockEnd
  0
ENDSEC
  0
SECTION
  2
ENTITIES
  0
LWPOLYLINE
  5
34
330
17
100
AcDbEntity
  8
CONTOUR
100
AcDbPolyline
 90
2113
 70
1
 10
-24.695555568033758
 20
187.5813677719249
 10
-23.805288705885552
 20
187.69642572417152
 10
-22.914485966038665
 20
187.8072584670577
 10
-22.0231674012355
 20
187.91386350564227
 10
-21.131353075830127
 20
188.01623844015336
 10
-20.23906306533661
 20
188.11438096604238
 10
-19.346317455977108
 20
188.20828887403593
 10
-18.4531363442297
 20
188.29796005018554
 10
-17.559539836375997
 20
188.38339247591526
 10
-16.66554804804855
 20
188.46458422806705
 10
-15.771181103777998
 20
188.5415334789442
 10
-14.876459136540083
 20
188.61423849635224
 10
-13.98140228730241
 20
188.68269764363825
 10
-13.086030704571078
 20
188.74690937972738
 10
-12.1903645439371
 20
188.80687225915776
 10
-11.986736061908891
 20
188.8270124794293
 10
-11.768406633801815
 20
188.86440544144494
 10
-11.53771818657187
 20
188.92237778462172
 10
-11.29840856856886
 20
189.00381303269353
 10
-11.055592169453526
 20
189.11061242299982
 10
-10.815450152759945
 20
189.24315469233892
 10
-10.584613164315975
 20
189.39992254435856
 10
-10.36934028608057
 20
189.57745975892774
 10
-10.17470604321774
 20
189.77072939660638
 10
-10.004028348563763
 20
189.97379351947583
 10
-9.858679147813639
 20
190.1806132543624
 10
-9.738269614179448
 20
190.38574612951598
 10
-9.641081661847753
 20
190.58479505492738
 10
-9.564579988301423
 20
190.77457830263464
 10
-4.988508193257454
 20
203.3472322293211
 10
-4.93509245925864
 20
203.47618921878512
 10
-4.870640646055102
 20
203.60000000000002
 10
-4.795643270862387
 20
203.71772229816168
 10
-4.710671108990365
 20
203.82846017549846
 10
-4.616370849898476
 20
203.93137084989849
 10
-4.513460175498463
 20
204.02567110899037
 10
-4.402722298161674
 20
204.1106432708624
 10
-4.285
 20
204.1856406460551
 10
-4.161189218785119
 20
204.25009245925864
 10
-4.03223222932107
 20
204.30350819325747
 10
-3.899110472164033
 20
204.3454813220625
 10
-3.7628370842670886
 20
204.37569240481955
 10
-3.624449188396253
 20
204.39391151694682
 10
-3.485
 20
204.4
 10
0.0
 20
204.4
 10
3.485
 20
204.4
 10
3.624449188396253
 20
204.39391151694682
 10
3.7628370842670886
 20
204.37569240481955
 10
3.899110472164033
 20
204.3454813220625
 10
4.03223222932107
 20
204.30350819325747
 10
4.161189218785119
 20
204.25009245925864
 10
4.285
 20
204.1856406460551
 10
4.402722298161674
 20
204.1106432708624
 10
4.513460175498463
 20
204.02567110899037
 10
4.616370849898476
 20
203.93137084989849
 10
4.710671108990365
 20
203.82846017549846
 10
4.795643270862387
 20
203.71772229816168
 10
4.870640646055102
 20
203.60000000000002
 10
4.93509245925864
 20
203.47618921878512
 10
4.988508193257454
 20
203.3472322293211
 10
9.564579988301423
 20
190.77457830263464
 10
9.641081661847753
 20
190.58479505492738
 10
9.738269614179448
 20
190.38574612951598
 10
9.858679147813639
 20
190.1806132543624
 10
10.004028348563763
 20
189.97379351947583
 10
10.17470604321774
 20
189.77072939660638
 10
10.36934028608057
 20
189.57745975892774
 10
10.584613164315975
 20
189.39992254435856
 10
10.815450152759945
 20
189.24315469233892
 10
11.055592169453526
 20
189.11061242299982
 10
11.29840856856886
 20
189.00381303269353
 10
11.53771818657187
 20
188.92237778462172
 10
11.768406633801815
 20
188.86440544144494
 10
11.986736061908891
 20
188.8270124794293
 10
12.1903645439371
 20
188.80687225915776
 10
13.086030704571078
 20
188.74690937972738
 10
13.98140228730241
 20
188.68269764363825
 10
14.876459136540083
 20
188.61423849635224
 10
15.771181103777998
 20
188.5415334789442
 10
16.66554804804855
 20
188.46458422806705
 10
17.559539836375997
 20
188.38339247591526
 10
18.4531363442297
 20
188.29796005018554
 10
19.346317455977108
 20
188.20828887403593
 10
20.23906306533661
 20
188.11438096604238
 10
21.131353075830127
 20
188.01623844015336
 10
22.0231674012355
 20
187.91386350564227
 10
22.914485966038665
 20
187.8072584670577
 10
23.805288705885552
 20
187.69642572417152
 10
24.695555568033754
 20
187.5813677719249
 10
25.585266511803955
 20
187.46208720037222
 10
26.47440150903102
 20
187.33858669462256
 10
27.362940544514878
 20
187.21086903477942
 10
28.250863616471086
 20
187.0789370958782
 10
29.13815073698106
 20
186.9427938478212
 10
30.024781932442046
 20
186.80244235531106
 10
30.910737244016705
 20
186.6578857777816
 10
31.795996728082486
 20
186.5091273693268
 10
32.68054045668044
 20
186.3561704786275
 10
33.56434851796398
 20
186.19901854887593
 10
34.44740101664696
 20
186.0376751176984
 10
35.32967807445164
 20
185.87214381707554
 10
36.21115983055612
 20
185.70242837326043
 10
37.091826442041416
 20
185.52853260669497
 10
37.29372912437934
 20
185.49528363632817
 10
37.51429716834933
 20
185.47489464996008
 10
37.75212944385862
 20
185.47118506981676
 10
38.00436177751074
 20
185.48790759228422
 10
38.26654612467936
 20
185.5282223730587
 10
38.532809964166894
 20
185.5940950466387
 10
38.79635587873022
 20
185.68577615471293
 10
39.05024352386233
 20
185.80154721461136
 10
39.288267628795055
 20
185.93785630020065
 10
39.50568648440846
 20
186.08982654292237
 10
39.69961191753518
 20
186.251979924891
 10
39.869010890670246
 20
186.41895878630632
 10
40.01440489663525
 20
186.58607119103834
 10
40.13741935781603
 20
186.7495876412998
 10
47.81160757131143
 20
197.70946424176705
 10
47.89657973318344
 20
197.8202021191038
 10
47.99087999227533
 20
197.92311279350383
 10
48.093790666675346
 20
198.01741305259569
 10
48.20452854401213
 20
198.10238521446772
 10
48.3222508421738
 20
198.17738258966043
 10
48.44606162338868
 20
198.241834402864
 10
48.57501861285274
 20
198.2952501368628
 10
48.70814037000977
 20
198.33722326566786
 10
48.844413757906715
 20
198.36743434842487
 10
48.98280165377755
 20
198.38565346055213
 10
49.122250842173806
 20
198.39174194360533
 10
49.26170003057006
 20
198.38565346055216
 10
49.400087926440904
 20
198.3674343484249
 10
49.53636131433784
 20
198.33722326566786
 10
52.90261281895524
 20
197.43523889348558
 10
56.26886432357264
 20
196.5332545213033
 10
56.401986080729685
 20
196.49128139249822
 10
56.530943070193736
 20
196.43786565849942
 10
56.65475385140861
 20
196.3734138452959
 10
56.77247614957029
 20
196.29841647010318
 10
56.883214026907076
 20
196.21344430823115
 10
56.98612470130709
 20
196.11914404913924
 10
57.08042496039898
 20
196.01623337473924
 10
57.165397122270996
 20
195.90549549740243
 10
57.24039449746371
 20
195.78777319924077
 10
57.30484631066725
 20
195.66396241802587
 10
57.35826204466606
 20
195.53500542856185
 10
57.400235173471124
 20
195.40188367140485
 10
57.430446256228144
 20
195.26561028350787
 10
57.44866536835541
 20
195.12722238763703
 10
58.614769014431914
 20
181.79859672254207
 10
58.6395444377166
 20
181.59548009208862
 10
58.68190313807427
 20
181.37805950132068
 10
58.74511752147657
 20
181.1487520788725
 10
58.83198518201989
 20
180.9113604142147
 10
58.944290312882
 20
180.67104089559174
 10
59.08227069167213
 20
180.43398171223842
 10
59.24425831211433
 20
180.20677721077726
 10
59.42665521515266
 20
179.9956060848562
 10
59.62431012746806
 20
179.805426756377
 10
59.83121104220346
 20
179.63942095849393
 10
60.04128938956832
 20
179.49882266239572
 10
60.249112972070876
 20
179.38311911528254
 10
60.450324994595974
 20
179.29049247344977
 10
60.641802331776226
 20
179.2183355852681
 10
61.49142987286999
 20
178.9286004309817
 10
62.339673188536544
 20
178.6348374386879
 10
63.18651318408303
 20
178.33705322124646
 10
64.03193079640658
 20
178.03525448203845
 10
64.87590699442336
 20
177.7294480148153
 10
65.71842277949708
 20
177.41964070354578
 10
66.55945918586653
 20
177.1058395222613
 10
67.39899728107267
 20
176.78805153489859
 10
68.23701816638471
 20
176.46628389514095
 10
69.07350297722562
 20
176.14054384625706
 10
69.90843288359662
 20
175.81083872093797
 10
70.74178909050133
 20
175.4771759411321
 10
71.57355283836861
 20
175.13956301787798
 10
72.40370540347496
 20
174.79800755113544
 10
73.23222809836608
 20
174.45251722961433
 10
74.05910227227734
 20
174.10309983060142
 10
74.88430931155386
 20
173.7497632197855
 10
75.70783064006935
 20
173.3925153510802
 10
76.52964771964432
 20
173.03136426644488
 10
77.34974205046345
 20
172.6663180957038
 10
78.16809517149193
 20
172.29738505636288
 10
78.98468866089115
 20
171.92457345342493
 10
79.7995041364333
 20
171.5478916792024
 10
80.61252325591524
 20
171.16734821312892
 10
81.42372771757128
 20
170.78295162156792
 10
82.23309926048536
 20
170.39471055762016
 10
83.04061966500194
 20
170.00263376092883
 10
83.84627075313622
 20
169.6067300574826
 10
84.0326883016425
 20
169.52235775886146
 10
84.24046361378477
 20
169.4455762998362
 10
84.46923184103387
 20
169.38043759812922
 10
84.71719767363034
 20
169.33130778272138
 10
84.98088253887283
 20
169.30239056827767
 10
85.25512276051505
 20
169.29710453225377
 10
85.53341738265044
 20
169.31745098037752
 10
85.80861777123269
 20
169.36356627919386
 10
86.07381078883756
 20
169.43362557377236
 10
86.323154069702
 20
169.52414541544752
 10
86.55244003741466
 20
169.6305819594882
 10
86.75928418997648
 20
169.74802747370543
 10
86.94297588834323
 20
169.87181492354185
 10
87.10411990492
 20
169.9979212004959
 10
97.35344129231277
 20
178.59812299647456
 10
97.46417916964954
 20
178.68309515834656
 10
97.58190146781124
 20
178.7580925335393
 10
97.70571224902609
 20
178.82254434674283
 10
97.83466923849015
 20
178.87596008074163
 10
97.96779099564719
 20
178.9179332095467
 10
98.10406438354413
 20
178.94814429230368
 10
98.24245227941496
 20
178.96636340443098
 10
98.38190146781122
 20
178.9724518874842
 10
98.52135065620747
 20
178.96636340443098
 10
98.65973855207831
 20
178.94814429230374
 10
98.79601193997524
 20
178.91793320954667
 10
98.9291336971323
 20
178.87596008074163
 10
99.05809068659634
 20
178.8225443467428
 10
99.18190146781122
 20
178.7580925335393
 10
102.19999999999999
 20
177.0155925335393
 10
105.21809853218876
 20
175.27309253353928
 10
105.33582083035044
 20
175.19809515834658
 10
105.44655870768722
 20
175.11312299647457
 10
105.54946938208724
 20
175.01882273738266
 10
105.64376964117913
 20
174.91591206298264
 10
105.72874180305114
 20
174.80517418564585
 10
105.80373917824386
 20
174.68745188748417
 10
105.8681909914474
 20
174.5636411062693
 10
105.92160672544621
 20
174.43468411680524
 10
105.96357985425126
 20
174.30156235964822
 10
105.99379093700828
 20
174.16528897175127
 10
106.01201004913555
 20
174.02690107588043
 10
106.01809853218876
 20
173.8874518874842
 10
106.01201004913555
 20
173.74800269908795
 10
105.9937909370083
 20
173.60961480321708
 10
103.67045839771461
 20
160.43334121219448
 10
103.64181916658413
 20
160.2307332616941
 10
103.62646193953947
 20
160.009757859526
 10
103.62817321694773
 20
159.77190281167458
 10
103.6506394497738
 20
159.52011706688378
 10
103.6969186077688
 20
159.25891953055464
 10
103.76884198769503
 20
158.9942259931133
 10
103.86650516170809
 20
158.73283781606156
 10
103.98803193182384
 20
158.48165437949385
 10
104.12972988412696
 20
158.24679839882415
 10
104.28661535906316
 20
158.03289921415254
 10
104.45314594358781
 20
157.84271941155737
 10
104.62394182766015
 20
157.6771696660344
 10
104.79432417778678
 20
157.53562169695255
 10
104.9606015060215
 20
157.4163655135455
 10
105.70628971472541
 20
156.91660305635773
 10
106.44959838315286
 20
156.41330827031777
 10
107.19051077878093
 20
155.90649248502785
 10
107.92901022302892
 20
155.3961671093509
 10
108.66508009163373
 20
154.88234363115384
 10
109.39870381502408
 20
154.3650336170489
 10
110.12986487869358
 20
153.8442487121332
 10
110.85854682357245
 20
153.3200006397267
 10
111.58473324639803
 20
152.79230120110827
 10
112.30840780008398
 20
152.26116227525006
 10
113.02955419408838
 20
151.72659581854998
 10
113.74815619478032
 20
151.18861386456274
 10
114.46419762580541
 20
150.64722852372876
 10
115.17766236844992
 20
150.10245198310167
 10
115.88853436200361
 20
149.55429650607402
 10
116.5967976041212
 20
149.00277443210106
 10
117.30243615118279
 20
148.44789817642308
 10
118.00543411865254
 20
147.88968022978597
 10
118.70577568143646
 20
147.3281331581599
 10
119.40344507423835
 20
146.76326960245655
 10
120.09842659191504
 20
146.19510227824458
 10
120.7907045898297
 20
145.6236439754633
 10
121.4802634842041
 20
145.04890755813483
 10
122.16708775246934
 20
144.4709059640745
 10
122.85116193361534
 20
143.8896522045995
 10
123.53247062853896
 20
143.30515936423626
 10
124.2109985003904
 20
142.7174406004256
 10
124.8867302749187
 20
142.12650914322668
 10
125.04495864173217
 20
141.99676334907042
 10
125.22578167788919
 20
141.86882194693322
 10
125.42989568024845
 20
141.7466932185371
 10
125.65669655008072
 20
141.6350591809832
 10
125.90391224559063
 20
141.53888063169762
 10
126.16743983148599
 20
141.4627961206893
 10
126.44151784259856
 20
141.41042133204704
 10
126.71927652293921
 20
141.3837381883761
 10
126.99356598731863
 20
141.38277326679668
 10
127.25784136090245
 20
141.40567392980626
 10
127.50686240341442
 20
141.4491401613373
 10
127.73705564823203
 20
141.50904861065044
 10
127.9465267533217
 20
141.58107519545337
 10
128.13481862686785
 20
141.66117736472606
 10
140.2607988734116
 20
147.31561481632562
 10
140.38975586287563
 20
147.36903055032442
 10
140.5228776200327
 20
147.4110036791295
 10
140.65915100792964
 20
147.4412147618865
 10
140.79753890380047
 20
147.45943387401374
 10
140.9369880921967
 20
147.465522357067
 10
141.07643728059296
 20
147.45943387401377
 10
141.2148251764638
 20
147.4412147618865
 10
141.35109856436074
 20
147.41100367912946
 10
141.4842203215178
 20
147.3690305503244
 10
141.61317731098183
 20
147.31561481632562
 10
141.7369880921967
 20
147.2511630031221
 10
141.8547103903584
 20
147.17616562792935
 10
141.96544826769517
 20
147.09119346605735
 10
142.0683589420952
 20
146.99689320696544
 10
144.5326260745303
 20
144.53262607453033
 10
146.9968932069654
 20
142.06835894209522
 10
147.09119346605732
 20
141.9654482676952
 10
147.17616562792935
 20
141.8547103903584
 10
147.25116300312206
 20
141.73698809219673
 10
147.3156148163256
 20
141.61317731098185
 10
147.3690305503244
 20
141.4842203215178
 10
147.41100367912944
 20
141.35109856436077
 10
147.44121476188647
 20
141.21482517646382
 10
147.45943387401374
 20
141.07643728059298
 10
147.46552235706696
 20
140.93698809219674
 10
147.45943387401374
 20
140.79753890380047
 10
147.44121476188647
 20
140.65915100792967
 10
147.4110036791295
 20
140.5228776200327
 10
147.3690305503244
 20
140.38975586287566
 10
147.3156148163256
 20
140.26079887341163
 10
141.66117736472603
 20
128.13481862686788
 10
141.58107519545334
 20
127.94652675332173
 10
141.5090486106504
 20
127.73705564823206
 10
141.44914016133728
 20
127.50686240341444
 10
141.40567392980623
 20
127.25784136090248
 10
141.38277326679665
 20
126.99356598731866
 10
141.38373818837607
 20
126.71927652293924
 10
141.410421332047
 20
126.44151784259859
 10
141.46279612068926
 20
126.16743983148602
 10
141.5388806316976
 20
125.90391224559066
 10
141.6350591809832
 20
125.65669655008072
 10
141.7466932185371
 20
125.42989568024845
 10
141.86882194693322
 20
125.22578167788919
 10
141.9967633490704
 20
125.0449586417322
 10
142.12650914322666
 20
124.88673027491873
 10
142.71744060042556
 20
124.21099850039043
 10
143.30515936423623
 20
123.53247062853899
 10
143.88965220459949
 20
122.85116193361537
 10
144.47090596407446
 20
122.16708775246937
 10
145.04890755813483
 20
121.4802634842041
 10
145.62364397546327
 20
120.79070458982973
 10
146.19510227824458
 20
120.09842659191507
 10
146.76326960245652
 20
119.40344507423838
 10
147.3281331581599
 20
118.70577568143646
 10
147.88968022978594
 20
118.00543411865257
 10
148.44789817642305
 20
117.30243615118282
 10
149.00277443210103
 20
116.59679760412124
 10
149.55429650607402
 20
115.88853436200361
 10
150.10245198310167
 20
115.17766236844994
 10
150.64722852372873
 20
114.46419762580544
 10
151.1886138645627
 20
113.74815619478035
 10
151.72659581854995
 20
113.0295541940884
 10
152.26116227525003
 20
112.30840780008401
 10
152.79230120110824
 20
111.58473324639806
 10
153.3200006397267
 20
110.85854682357248
 10
153.84424871213315
 20
110.12986487869361
 10
154.36503361704888
 20
109.3987038150241
 10
154.88234363115384
 20
108.66508009163375
 10
155.39616710935087
 20
107.92901022302895
 10
155.90649248502783
 20
107.19051077878096
 10
156.41330827031777
 20
106.44959838315287
 10
156.9166030563577
 20
105.70628971472544
 10
157.41636551354546
 20
104.96060150602152
 10
157.53562169695252
 20
104.7943241777868
 10
157.67716966603436
 20
104.62394182766016
 10
157.84271941155734
 20
104.45314594358784
 10
158.03289921415254
 20
104.28661535906319
 10
158.24679839882413
 20
104.12972988412699
 10
158.48165437949382
 20
103.98803193182387
 10
158.73283781606153
 20
103.86650516170812
 10
158.99422599311328
 20
103.76884198769505
 10
159.2589195305546
 20
103.69691860776882
 10
159.52011706688376
 20
103.65063944977383
 10
159.77190281167455
 20
103.62817321694776
 10
160.00975785952596
 20
103.6264619395395
 10
160.2307332616941
 20
103.64181916658416
 10
160.43334121219445
 20
103.67045839771464
 10
173.60961480321706
 20
105.99379093700834
 10
173.74800269908792
 20
106.0120100491356
 10
173.88745188748416
 20
106.0180985321888
 10
174.0269010758804
 20
106.0120100491356
 10
174.16528897175124
 20
105.99379093700833
 10
174.3015623596482
 20
105.96357985425131
 10
174.43468411680524
 20
105.92160672544625
 10
174.56364110626927
 20
105.86819099144745
 10
174.68745188748414
 20
105.8037391782439
 10
174.80517418564582
 20
105.72874180305118
 10
174.9159120629826
 20
105.64376964117918
 10
175.01882273738264
 20
105.54946938208727
 10
175.11312299647454
 20
105.44655870768726
 10
175.19809515834658
 20
105.33582083035049
 10
175.27309253353926
 20
105.2180985321888
 10
177.01559253353926
 20
102.20000000000003
 10
178.75809253353927
 20
99.18190146781126
 10
178.8225443467428
 20
99.05809068659639
 10
178.8759600807416
 20
98.92913369713234
 10
178.91793320954665
 20
98.7960119399753
 10
178.9481442923037
 20
98.65973855207835
 10
178.96636340443095
 20
98.52135065620752
 10
178.97245188748417
 20
98.38190146781126
 10
178.96636340443095
 20
98.242452279415
 10
178.94814429230368
 20
98.10406438354417
 10
178.91793320954667
 20
97.96779099564723
 10
178.8759600807416
 20
97.83466923849019
 10
178.8225443467428
 20
97.70571224902613
 10
178.75809253353927
 20
97.58190146781128
 10
178.68309515834653
 20
97.46417916964958
 10
178.59812299647453
 20
97.35344129231281
 10
169.99792120049588
 20
87.10411990492003
 10
169.87181492354185
 20
86.94297588834326
 10
169.7480274737054
 20
86.75928418997651
 10
169.63058195948818
 20
86.55244003741468
 10
169.5241454154475
 20
86.32315406970203
 10
169.43362557377233
 20
86.07381078883759
 10
169.36356627919383
 20
85.80861777123272
 10
169.3174509803775
 20
85.53341738265047
 10
169.29710453225374
 20
85.25512276051508
 10
169.30239056827764
 20
84.98088253887286
 10
169.33130778272138
 20
84.71719767363037
 10
169.3804375981292
 20
84.4692318410339
 10
169.44557629983618
 20
84.24046361378481
 10
169.52235775886143
 20
84.03268830164252
 10
169.60673005748257
 20
83.84627075313627
 10
170.0026337609288
 20
83.04061966500197
 10
170.39471055762016
 20
82.2330992604854
 10
170.7829516215679
 20
81.42372771757131
 10
171.1673482131289
 20
80.61252325591526
 10
171.5478916792024
 20
79.79950413643333
 10
171.9245734534249
 20
78.98468866089118
 10
172.29738505636288
 20
78.16809517149196
 10
172.6663180957038
 20
77.34974205046348
 10
173.03136426644485
 20
76.52964771964434
 10
173.39251535108016
 20
75.70783064006937
 10
173.74976321978548
 20
74.88430931155389
 10
174.1030998306014
 20
74.05910227227737
 10
174.4525172296143
 20
73.23222809836611
 10
174.7980075511354
 20
72.40370540347502
 10
175.13956301787798
 20
71.57355283836864
 10
175.47717594113206
 20
70.74178909050137
 10
175.81083872093797
 20
69.90843288359667
 10
176.14054384625703
 20
69.07350297722564
 10
176.46628389514092
 20
68.23701816638476
 10
176.78805153489856
 20
67.39899728107271
 10
177.10583952226125
 20
66.55945918586657
 10
177.41964070354578
 20
65.7184227794971
 10
177.72944801481526
 20
64.87590699442342
 10
178.03525448203845
 20
64.03193079640663
 10
178.33705322124646
 20
63.186513184083076
 10
178.63483743868787
 20
62.33967318853659
 10
178.92860043098167
 20
61.491429872870036
 10
179.21833558526808
 20
60.64180233177627
 10
179.29049247344972
 20
60.450324994596016
 10
179.38311911528254
 20
60.24911297207092
 10
179.49882266239572
 20
60.041289389568355
 10
179.6394209584939
 20
59.831211042203506
 10
179.80542675637696
 20
59.6243101274681
 10
179.99560608485618
 20
59.4266552151527
 10
180.20677721077723
 20
59.244258312114376
 10
180.4339817122384
 20
59.082270691672164
 10
180.67104089559174
 20
58.944290312882046
 10
180.9113604142147
 20
58.831985182019935
 10
181.14875207887246
 20
58.745117521476615
 10
181.37805950132068
 20
58.681903138074304
 10
181.5954800920886
 20
58.639544437716644
 10
181.79859672254204
 20
58.61476901443196
 10
195.127222387637
 20
57.44866536835545
 10
195.26561028350784
 20
57.43044625622819
 10
195.40188367140482
 20
57.40023517347117
 10
195.53500542856182
 20
57.358262044666105
 10
195.66396241802587
 20
57.304846310667294
 10
195.78777319924077
 20
57.24039449746376
 10
195.9054954974024
 20
57.165397122271045
 10
196.01623337473922
 20
57.08042496039902
 10
196.1191440491392
 20
56.98612470130713
 10
196.21344430823112
 20
56.88321402690712
 10
196.29841647010315
 20
56.77247614957034
 10
196.37341384529583
 20
56.65475385140865
 10
196.4378656584994
 20
56.53094307019378
 10
196.49128139249822
 20
56.40198608072973
 10
196.53325452130326
 20
56.268864323572686
 10
197.43523889348555
 20
52.902612818955284
 10
198.33722326566783
 20
49.53636131433788
 10
198.3674343484249
 20
49.400087926440946
 10
198.38565346055213
 20
49.261700030570104
 10
198.39174194360533
 20
49.12225084217385
 10
198.3856534605521
 20
48.9828016537776
 10
198.36743434842484
 20
48.84441375790676
 10
198.33722326566783
 20
48.708140370009815
 10
198.29525013686276
 20
48.57501861285278
 10
198.24183440286396
 20
48.44606162338873
 10
198.17738258966043
 20
48.32225084217385
 10
198.10238521446772
 20
48.20452854401217
 10
198.01741305259566
 20
48.09379066667539
 10
197.9231127935038
 20
47.990879992275374
 10
197.82020211910378
 20
47.89657973318348
 10
197.70946424176702
 20
47.81160757131147
 10
186.74958764129977
 20
40.13741935781607
 10
186.58607119103831
 20
40.01440489663529
 10
186.41895878630632
 20
39.869010890670296
 10
186.25197992489097
 20
39.69961191753522
 10
186.08982654292237
 20
39.5056864844085
 10
185.93785630020065
 20
39.2882676287951
 10
185.80154721461133
 20
39.05024352386238
 10
185.6857761547129
 20
38.79635587873026
 10
185.59409504663867
 20
38.53280996416694
 10
185.52822237305872
 20
38.2665461246794
 10
185.4879075922842
 20
38.00436177751078
 10
185.47118506981676
 20
37.75212944385867
 10
185.47489464996008
 20
37.51429716834937
 10
185.49528363632817
 20
37.29372912437938
 10
185.52853260669494
 20
37.09182644204146
 10
185.7024283732604
 20
36.21115983055616
 10
185.8721438170755
 20
35.329678074451685
 10
186.0376751176984
 20
34.447401016647
 10
186.19901854887593
 20
33.56434851796402
 10
186.35617047862746
 20
32.68054045668048
 10
186.5091273693268
 20
31.79599672808252
 10
186.6578857777816
 20
30.910737244016747
 10
186.80244235531103
 20
30.024781932442092
 10
186.94279384782118
 20
29.138150736981103
 10
187.07893709587816
 20
28.250863616471133
 10
187.21086903477942
 20
27.36294054451492
 10
187.33858669462253
 20
26.474401509031065
 10
187.46208720037222
 20
25.585266511804
 10
187.5813677719249
 20
24.695555568033768
 10
187.69642572417152
 20
23.805288705885562
 10
187.8072584670577
 20
22.914485966038676
 10
187.91386350564227
 20
22.02316740123551
 10
188.01623844015336
 20
21.131353075830138
 10
188.11438096604238
 20
20.23906306533662
 10
188.20828887403593
 20
19.34631745597712
 10
188.29796005018554
 20
18.453136344229712
 10
188.38339247591526
 20
17.559539836376008
 10
188.46458422806705
 20
16.66554804804856
 10
188.5415334789442
 20
15.771181103778009
 10
188.61423849635224
 20
14.876459136540095
 10
188.68269764363825
 20
13.981402287302423
 10
188.74690937972738
 20
13.08603070457109
 10
188.80687225915776
 20
12.190364543937113
 10
188.8270124794293
 20
11.986736061908903
 10
188.86440544144494
 20
11.768406633801828
 10
188.92237778462172
 20
11.537718186571883
 10
189.00381303269353
 20
11.298408568568872
 10
189.11061242299982
 20
11.055592169453538
 10
189.24315469233892
 20
10.815450152759958
 10
189.39992254435856
 20
10.584613164315988
 10
189.57745975892774
 20
10.369340286080583
 10
189.77072939660638
 20
10.174706043217752
 10
189.97379351947583
 20
10.004028348563775
 10
190.1806132543624
 20
9.858679147813652
 10
190.38574612951598
 20
9.73826961417946
 10
190.58479505492738
 20
9.641081661847766
 10
190.77457830263464
 20
9.564579988301436
 10
203.3472322293211
 20
4.988508193257466
 10
203.47618921878512
 20
4.9350924592586525
 10
203.60000000000002
 20
4.870640646055114
 10
203.71772229816168
 20
4.795643270862399
 10
203.82846017549846
 20
4.710671108990377
 10
203.93137084989849
 20
4.616370849898488
 10
204.02567110899037
 20
4.513460175498476
 10
204.1106432708624
 20
4.402722298161686
 10
204.1856406460551
 20
4.285000000000013
 10
204.25009245925864
 20
4.161189218785132
 10
204.30350819325747
 20
4.032232229321083
 10
204.3454813220625
 20
3.8991104721640455
 10
204.37569240481955
 20
3.762837084267101
 10
204.39391151694682
 20
3.6244491883962655
 10
204.4
 20
3.4850000000000123
 10
204.4
 20
1.251589028728595e-14
 10
204.4
 20
-3.4849999999999874
 10
204.39391151694682
 20
-3.6244491883962406
 10
204.37569240481955
 20
-3.762837084267076
 10
204.3454813220625
 20
-3.8991104721640206
 10
204.30350819325747
 20
-4.032232229321058
 10
204.25009245925864
 20
-4.161189218785107
 10
204.1856406460551
 20
-4.284999999999988
 10
204.1106432708624
 20
-4.402722298161661
 10
204.02567110899037
 20
-4.513460175498451
 10
203.93137084989849
 20
-4.6163708498984635
 10
203.82846017549846
 20
-4.710671108990352
 10
203.71772229816168
 20
-4.795643270862374
 10
203.60000000000002
 20
-4.870640646055089
 10
203.47618921878512
 20
-4.935092459258628
 10
203.3472322293211
 20
-4.9885081932574415
 10
190.77457830263464
 20
-9.56457998830141
 10
190.58479505492738
 20
-9.64108166184774
 10
190.38574612951598
 20
-9.738269614179435
 10
190.1806132543624
 20
-9.858679147813627
 10
189.97379351947583
 20
-10.00402834856375
 10
189.77072939660638
 20
-10.174706043217727
 10
189.57745975892774
 20
-10.369340286080558
 10
189.39992254435856
 20
-10.584613164315963
 10
189.24315469233892
 20
-10.815450152759933
 10
189.11061242299982
 20
-11.055592169453513
 10
189.00381303269353
 20
-11.298408568568847
 10
188.92237778462172
 20
-11.537718186571858
 10
188.86440544144494
 20
-11.768406633801803
 10
188.8270124794293
 20
-11.986736061908879
 10
188.80687225915776
 20
-12.190364543937088
 10
188.74690937972738
 20
-13.086030704571066
 10
188.68269764363825
 20
-13.981402287302398
 10
188.61423849635224
 20
-14.87645913654007
 10
188.5415334789442
 20
-15.771181103777987
 10
188.46458422806705
 20
-16.66554804804854
 10
188.38339247591526
 20
-17.559539836375986
 10
188.29796005018554
 20
-18.45313634422969
 10
188.20828887403593
 20
-19.346317455977097
 10
188.11438096604238
 20
-20.239063065336598
 10
188.01623844015336
 20
-21.131353075830116
 10
187.91386350564227
 20
-22.02316740123549
 10
187.8072584670577
 20
-22.914485966038654
 10
187.69642572417152
 20
-23.80528870588554
 10
187.5813677719249
 20
-24.695555568033733
 10
187.46208720037222
 20
-25.585266511803933
 10
187.33858669462256
 20
-26.474401509030997
 10
187.21086903477942
 20
-27.362940544514856
 10
187.0789370958782
 20
-28.250863616471065
 10
186.94279384782118
 20
-29.13815073698104
 10
186.80244235531103
 20
-30.024781932442025
 10
186.6578857777816
 20
-30.91073724401669
 10
186.5091273693268
 20
-31.795996728082464
 10
186.3561704786275
 20
-32.68054045668042
 10
186.19901854887593
 20
-33.56434851796396
 10
186.0376751176984
 20
-34.447401016646936
 10
185.87214381707554
 20
-35.32967807445162
 10
185.70242837326043
 20
-36.2111598305561
 10
185.52853260669497
 20
-37.091826442041395
 10
185.49528363632817
 20
-37.29372912437932
 10
185.47489464996005
 20
-37.51429716834931
 10
185.47118506981676
 20
-37.75212944385861
 10
185.48790759228422
 20
-38.00436177751072
 10
185.5282223730587
 20
-38.26654612467934
 10
185.5940950466387
 20
-38.53280996416687
 10
185.68577615471293
 20
-38.796355878730196
 10
185.80154721461136
 20
-39.05024352386231
 10
185.93785630020065
 20
-39.28826762879504
 10
186.08982654292234
 20
-39.50568648440844
 10
186.251979924891
 20
-39.69961191753516
 10
186.41895878630632
 20
-39.869010890670225
 10
186.58607119103834
 20
-40.01440489663523
 10
186.7495876412998
 20
-40.137419357816015
 10
197.70946424176702
 20
-47.8116075713114
 10
197.8202021191038
 20
-47.896579733183415
 10
197.92311279350383
 20
-47.99087999227531
 10
198.01741305259569
 20
-48.09379066667532
 10
198.10238521446772
 20
-48.204528544012106
 10
198.17738258966043
 20
-48.32225084217378
 10
198.241834402864
 20
-48.44606162338866
 10
198.2952501368628
 20
-48.575018612852716
 10
198.33722326566786
 20
-48.708140370009744
 10
198.36743434842487
 20
-48.844413757906686
 10
198.38565346055213
 20
-48.98280165377753
 10
198.39174194360533
 20
-49.122250842173784
 10
198.38565346055216
 20
-49.26170003057003
 10
198.3674343484249
 20
-49.400087926440875
 10
198.33722326566786
 20
-49.53636131433782
 10
197.43523889348558
 20
-52.90261281895522
 10
196.5332545213033
 20
-56.26886432357262
 10
196.49128139249822
 20
-56.40198608072966
 10
196.43786565849942
 20
-56.53094307019371
 10
196.3734138452959
 20
-56.654753851408586
 10
196.29841647010318
 20
-56.77247614957027
 10
196.21344430823115
 20
-56.88321402690705
 10
196.11914404913924
 20
-56.98612470130706
 10
196.01623337473924
 20
-57.08042496039896
 10
195.90549549740243
 20
-57.165397122270974
 10
195.78777319924077
 20
-57.24039449746369
 10
195.66396241802587
 20
-57.30484631066723
 10
195.53500542856185
 20
-57.358262044666034
 10
195.40188367140485
 20
-57.4002351734711
 10
195.26561028350787
 20
-57.43044625622812
 10
195.12722238763706
 20
-57.44866536835539
 10
181.79859672254207
 20
-58.614769014431886
 10
181.59548009208862
 20
-58.63954443771658
 10
181.37805950132068
 20
-58.68190313807425
 10
181.1487520788725
 20
-58.74511752147655
 10
180.91136041421473
 20
-58.83198518201988
 10
180.67104089559174
 20
-58.944290312881975
 10
180.43398171223842
 20
-59.08227069167211
 10
180.20677721077726
 20
-59.24425831211431
 10
179.9956060848562
 20
-59.426655215152635
 10
179.805426756377
 20
-59.624310127468036
 10
179.63942095849393
 20
-59.83121104220344
 10
179.49882266239572
 20
-60.04128938956829
 10
179.38311911528257
 20
-60.249112972070854
 10
179.29049247344977
 20
-60.45032499459595
 10
179.2183355852681
 20
-60.641802331776205
 10
178.9286004309817
 20
-61.49142987286997
 10
178.6348374386879
 20
-62.33967318853652
 10
178.33705322124646
 20
-63.18651318408301
 10
178.03525448203845
 20
-64.03193079640656
 10
177.7294480148153
 20
-64.87590699442335
 10
177.41964070354578
 20
-65.71842277949705
 10
177.1058395222613
 20
-66.55945918586652
 10
176.7880515348986
 20
-67.39899728107265
 10
176.46628389514098
 20
-68.2370181663847
 10
176.14054384625706
 20
-69.07350297722559
 10
175.81083872093797
 20
-69.9084328835966
 10
175.4771759411321
 20
-70.74178909050131
 10
175.13956301787798
 20
-71.57355283836858
 10
174.79800755113544
 20
-72.40370540347493
 10
174.4525172296143
 20
-73.23222809836605
 10
174.10309983060142
 20
-74.05910227227731
 10
173.74976321978548
 20
-74.88430931155384
 10
173.3925153510802
 20
-75.70783064006932
 10
173.03136426644488
 20
-76.52964771964429
 10
172.6663180957038
 20
-77.34974205046342
 10
172.29738505636288
 20
-78.1680951714919
 10
171.9245734534249
 20
-78.98468866089112
 10
171.5478916792024
 20
-79.79950413643327
 10
171.1673482131289
 20
-80.6125232559152
 10
170.78295162156792
 20
-81.42372771757125
 10
170.39471055762016
 20
-82.23309926048533
 10
170.0026337609288
 20
-83.04061966500191
 10
169.6067300574826
 20
-83.8462707531362
 10
169.52235775886146
 20
-84.03268830164247
 10
169.4455762998362
 20
-84.24046361378474
 10
169.38043759812922
 20
-84.46923184103385
 10
169.33130778272138
 20
-84.71719767363031
 10
169.30239056827767
 20
-84.9808825388728
 10
169.29710453225377
 20
-85.25512276051502
 10
169.31745098037752
 20
-85.53341738265041
 10
169.36356627919386
 20
-85.80861777123266
 10
169.43362557377236
 20
-86.07381078883753
 10
169.52414541544752
 20
-86.32315406970197
 10
169.6305819594882
 20
-86.55244003741463
 10
169.74802747370543
 20
-86.75928418997646
 10
169.87181492354185
 20
-86.9429758883432
 10
169.9979212004959
 20
-87.10411990491997
 10
178.59812299647456
 20
-97.35344129231274
 10
178.68309515834656
 20
-97.46417916964951
 10
178.7580925335393
 20
-97.5819014678112
 10
178.82254434674283
 20
-97.70571224902606
 10
178.87596008074163
 20
-97.83466923849012
 10
178.9179332095467
 20
-97.96779099564716
 10
178.94814429230368
 20
-98.1040643835441
 10
178.96636340443098
 20
-98.24245227941493
 10
178.9724518874842
 20
-98.38190146781119
 10
178.96636340443098
 20
-98.52135065620745
 10
178.94814429230374
 20
-98.65973855207828
 10
178.91793320954667
 20
-98.79601193997522
 10
178.87596008074163
 20
-98.92913369713227
 10
178.8225443467428
 20
-99.05809068659632
 10
178.7580925335393
 20
-99.18190146781119
 10
177.0155925335393
 20
-102.19999999999996
 10
175.27309253353928
 20
-105.21809853218873
 10
175.19809515834658
 20
-105.33582083035041
 10
175.11312299647457
 20
-105.44655870768719
 10
175.01882273738266
 20
-105.54946938208721
 10
174.91591206298264
 20
-105.6437696411791
 10
174.80517418564585
 20
-105.72874180305111
 10
174.68745188748417
 20
-105.80373917824383
 10
174.5636411062693
 20
-105.86819099144738
 10
174.43468411680524
 20
-105.92160672544618
 10
174.30156235964822
 20
-105.96357985425124
 10
174.16528897175127
 20
-105.99379093700826
 10
174.02690107588043
 20
-106.01201004913553
 10
173.8874518874842
 20
-106.01809853218873
 10
173.74800269908795
 20
-106.01201004913553
 10
173.60961480321708
 20
-105.99379093700827
 10
160.43334121219448
 20
-103.67045839771458
 10
160.2307332616941
 20
-103.6418191665841
 10
160.009757859526
 20
-103.62646193953944
 10
159.77190281167458
 20
-103.6281732169477
 10
159.52011706688378
 20
-103.65063944977378
 10
159.25891953055464
 20
-103.69691860776877
 10
158.9942259931133
 20
-103.768841987695
 10
158.73283781606156
 20
-103.86650516170806
 10
158.48165437949385
 20
-103.98803193182381
 10
158.24679839882415
 20
-104.12972988412693
 10
158.03289921415254
 20
-104.28661535906313
 10
157.84271941155737
 20
-104.45314594358778
 10
157.6771696660344
 20
-104.62394182766012
 10
157.53562169695255
 20
-104.79432417778675
 10
157.4163655135455
 20
-104.96060150602148
 10
156.91660305635776
 20
-105.70628971472539
 10
156.41330827031777
 20
-106.44959838315283
 10
155.90649248502785
 20
-107.1905107787809
 10
155.39616710935093
 20
-107.9290102230289
 10
154.88234363115384
 20
-108.6650800916337
 10
154.36503361704894
 20
-109.39870381502405
 10
153.8442487121332
 20
-110.12986487869355
 10
153.3200006397267
 20
-110.85854682357242
 10
152.79230120110827
 20
-111.584733246398
 10
152.26116227525006
 20
-112.30840780008396
 10
151.72659581855
 20
-113.02955419408835
 10
151.18861386456274
 20
-113.7481561947803
 10
150.64722852372878
 20
-114.46419762580538
 10
150.10245198310167
 20
-115.17766236844992
 10
149.55429650607402
 20
-115.88853436200361
 10
149.00277443210106
 20
-116.5967976041212
 10
148.44789817642308
 20
-117.30243615118279
 10
147.88968022978597
 20
-118.00543411865254
 10
147.3281331581599
 20
-118.70577568143646
 10
146.76326960245655
 20
-119.40344507423835
 10
146.19510227824458
 20
-120.09842659191504
 10
145.6236439754633
 20
-120.7907045898297
 10
145.04890755813483
 20
-121.4802634842041
 10
144.4709059640745
 20
-122.16708775246934
 10
143.8896522045995
 20
-122.85116193361534
 10
143.30515936423626
 20
-123.53247062853896
 10
142.7174406004256
 20
-124.2109985003904
 10
142.12650914322668
 20
-124.8867302749187
 10
141.99676334907042
 20
-125.04495864173217
 10
141.86882194693322
 20
-125.22578167788919
 10
141.7466932185371
 20
-125.42989568024845
 10
141.6350591809832
 20
-125.65669655008072
 10
141.53888063169762
 20
-125.90391224559063
 10
141.4627961206893
 20
-126.16743983148599
 10
141.41042133204704
 20
-126.44151784259856
 10
141.3837381883761
 20
-126.71927652293921
 10
141.38277326679668
 20
-126.99356598731863
 10
141.40567392980626
 20
-127.25784136090245
 10
141.4491401613373
 20
-127.50686240341442
 10
141.50904861065044
 20
-127.73705564823203
 10
141.58107519545337
 20
-127.9465267533217
 10
141.66117736472606
 20
-128.13481862686785
 10
147.31561481632562
 20
-140.2607988734116
 10
147.36903055032442
 20
-140.38975586287563
 10
147.4110036791295
 20
-140.5228776200327
 10
147.4412147618865
 20
-140.65915100792964
 10
147.45943387401374
 20
-140.79753890380047
 10
147.465522357067
 20
-140.9369880921967
 10
147.45943387401377
 20
-141.07643728059296
 10
147.4412147618865
 20
-141.2148251764638
 10
147.41100367912946
 20
-141.35109856436074
 10
147.3690305503244
 20
-141.4842203215178
 10
147.31561481632562
 20
-141.61317731098183
 10
147.2511630031221
 20
-141.7369880921967
 10
147.17616562792935
 20
-141.8547103903584
 10
147.09119346605735
 20
-141.96544826769517
 10
146.99689320696544
 20
-142.0683589420952
 10
144.53262607453033
 20
-144.5326260745303
 10
142.06835894209522
 20
-146.9968932069654
 10
141.9654482676952
 20
-147.09119346605732
 10
141.8547103903584
 20
-147.17616562792935
 10
141.73698809219673
 20
-147.25116300312206
 10
141.61317731098185
 20
-147.3156148163256
 10
141.4842203215178
 20
-147.3690305503244
 10
141.35109856436077
 20
-147.41100367912944
 10
141.21482517646382
 20
-147.44121476188647
 10
141.07643728059298
 20
-147.45943387401374
 10
140.93698809219674
 20
-147.46552235706696
 10
140.79753890380047
 20
-147.45943387401374
 10
140.65915100792967
 20
-147.44121476188647
 10
140.5228776200327
 20
-147.4110036791295
 10
140.38975586287566
 20
-147.3690305503244
 10
140.26079887341163
 20
-147.3156148163256
 10
128.13481862686788
 20
-141.66117736472603
 10
127.94652675332173
 20
-141.58107519545334
 10
127.73705564823206
 20
-141.5090486106504
 10
127.50686240341444
 20
-141.44914016133728
 10
127.25784136090248
 20
-141.40567392980623
 10
126.99356598731866
 20
-141.38277326679665
 10
126.71927652293924
 20
-141.38373818837607
 10
126.44151784259859
 20
-141.410421332047
 10
126.16743983148602
 20
-141.46279612068926
 10
125.90391224559066
 20
-141.5388806316976
 10
125.65669655008072
 20
-141.6350591809832
 10
125.42989568024845
 20
-141.7466932185371
 10
125.22578167788919
 20
-141.86882194693322
 10
125.0449586417322
 20
-141.9967633490704
 10
124.88673027491873
 20
-142.12650914322666
 10
124.21099850039043
 20
-142.71744060042556
 10
123.53247062853899
 20
-143.30515936423623
 10
122.85116193361537
 20
-143.88965220459949
 10
122.16708775246937
 20
-144.47090596407446
 10
121.4802634842041
 20
-145.04890755813483
 10
120.79070458982973
 20
-145.62364397546327
 10
120.09842659191507
 20
-146.19510227824458
 10
119.40344507423838
 20
-146.76326960245652
 10
118.70577568143646
 20
-147.3281331581599
 10
118.00543411865257
 20
-147.88968022978594
 10
117.30243615118282
 20
-148.44789817642305
 10
116.59679760412124
 20
-149.00277443210103
 10
115.88853436200361
 20
-149.55429650607402
 10
115.17766236844997
 20
-150.10245198310162
 10
114.46419762580548
 20
-150.64722852372873
 10
113.74815619478039
 20
-151.1886138645627
 10
113.02955419408845
 20
-151.72659581854995
 10
112.30840780008405
 20
-152.26116227525
 10
111.5847332463981
 20
-152.79230120110824
 10
110.85854682357252
 20
-153.32000063972666
 10
110.12986487869365
 20
-153.84424871213312
 10
109.39870381502413
 20
-154.36503361704885
 10
108.6650800916338
 20
-154.88234363115382
 10
107.929010223029
 20
-155.39616710935087
 10
107.190510778781
 20
-155.90649248502777
 10
106.44959838315292
 20
-156.4133082703177
 10
105.70628971472547
 20
-156.91660305635767
 10
104.96060150602156
 20
-157.41636551354543
 10
104.79432417778685
 20
-157.53562169695252
 10
104.62394182766022
 20
-157.67716966603436
 10
104.45314594358788
 20
-157.84271941155734
 10
104.28661535906323
 20
-158.0328992141525
 10
104.12972988412703
 20
-158.2467983988241
 10
103.98803193182391
 20
-158.4816543794938
 10
103.86650516170816
 20
-158.73283781606153
 10
103.7688419876951
 20
-158.99422599311325
 10
103.69691860776885
 20
-159.25891953055458
 10
103.65063944977388
 20
-159.5201170668837
 10
103.6281732169478
 20
-159.77190281167452
 10
103.62646193953952
 20
-160.00975785952596
 10
103.6418191665842
 20
-160.23073326169407
 10
103.67045839771467
 20
-160.43334121219442
 10
105.99379093700838
 20
-173.60961480321706
 10
106.01201004913564
 20
-173.74800269908786
 10
106.01809853218884
 20
-173.88745188748413
 10
106.01201004913563
 20
-174.02690107588037
 10
105.99379093700837
 20
-174.1652889717512
 10
105.96357985425135
 20
-174.30156235964816
 10
105.9216067254463
 20
-174.43468411680522
 10
105.86819099144748
 20
-174.56364110626924
 10
105.80373917824394
 20
-174.68745188748412
 10
105.72874180305122
 20
-174.8051741856458
 10
105.64376964117922
 20
-174.91591206298258
 10
105.54946938208731
 20
-175.0188227373826
 10
105.4465587076873
 20
-175.1131229964745
 10
105.33582083035053
 20
-175.19809515834652
 10
105.21809853218885
 20
-175.27309253353923
 10
102.20000000000007
 20
-177.01559253353923
 10
99.1819014678113
 20
-178.75809253353924
 10
99.05809068659643
 20
-178.8225443467428
 10
98.92913369713239
 20
-178.8759600807416
 10
98.79601193997534
 20
-178.91793320954662
 10
98.6597385520784
 20
-178.94814429230368
 10
98.52135065620756
 20
-178.96636340443092
 10
98.3819014678113
 20
-178.97245188748414
 10
98.24245227941506
 20
-178.96636340443092
 10
98.10406438354421
 20
-178.94814429230365
 10
97.96779099564728
 20
-178.91793320954665
 10
97.83466923849024
 20
-178.87596008074158
 10
97.70571224902619
 20
-178.82254434674277
 10
97.58190146781132
 20
-178.75809253353924
 10
97.46417916964963
 20
-178.68309515834653
 10
97.35344129231285
 20
-178.59812299647453
 10
87.10411990492008
 20
-169.99792120049585
 10
86.9429758883433
 20
-169.87181492354182
 10
86.75928418997657
 20
-169.7480274737054
 10
86.55244003741473
 20
-169.63058195948815
 10
86.32315406970207
 20
-169.5241454154475
 10
86.07381078883765
 20
-169.4336255737723
 10
85.80861777123276
 20
-169.3635662791938
 10
85.53341738265051
 20
-169.3174509803775
 10
85.25512276051512
 20
-169.29710453225377
 10
84.9808825388729
 20
-169.30239056827762
 10
84.71719767363041
 20
-169.33130778272135
 10
84.46923184103395
 20
-169.3804375981292
 10
84.24046361378484
 20
-169.44557629983618
 10
84.03268830164257
 20
-169.52235775886143
 10
83.84627075313631
 20
-169.60673005748254
 10
83.04061966500203
 20
-170.00263376092877
 10
82.23309926048545
 20
-170.39471055762016
 10
81.42372771757135
 20
-170.7829516215679
 10
80.6125232559153
 20
-171.1673482131289
 10
79.79950413643337
 20
-171.54789167920237
 10
78.98468866089124
 20
-171.92457345342487
 10
78.168095171492
 20
-172.29738505636286
 10
77.34974205046352
 20
-172.66631809570376
 10
76.52964771964439
 20
-173.03136426644485
 10
75.70783064006942
 20
-173.39251535108014
 10
74.88430931155393
 20
-173.74976321978548
 10
74.05910227227741
 20
-174.1030998306014
 10
73.23222809836615
 20
-174.4525172296143
 10
72.40370540347502
 20
-174.7980075511354
 10
71.57355283836866
 20
-175.13956301787798
 10
70.74178909050138
 20
-175.47717594113206
 10
69.90843288359667
 20
-175.81083872093797
 10
69.07350297722566
 20
-176.14054384625703
 10
68.23701816638477
 20
-176.46628389514092
 10
67.39899728107272
 20
-176.78805153489856
 10
66.55945918586659
 20
-177.10583952226125
 10
65.71842277949713
 20
-177.41964070354578
 10
64.87590699442342
 20
-177.72944801481526
 10
64.03193079640663
 20
-178.03525448203845
 10
63.18651318408308
 20
-178.33705322124646
 10
62.339673188536594
 20
-178.63483743868787
 10
61.49142987287004
 20
-178.92860043098167
 10
60.64180233177628
 20
-179.21833558526808
 10
60.45032499459603
 20
-179.29049247344972
 10
60.24911297207092
 20
-179.38311911528254
 10
60.04128938956836
 20
-179.49882266239572
 10
59.83121104220352
 20
-179.6394209584939
 10
59.624310127468114
 20
-179.80542675637696
 10
59.42665521515271
 20
-179.99560608485618
 10
59.24425831211438
 20
-180.20677721077723
 10
59.08227069167218
 20
-180.4339817122384
 10
58.944290312882046
 20
-180.67104089559174
 10
58.83198518201995
 20
-180.9113604142147
 10
58.74511752147663
 20
-181.14875207887246
 10
58.68190313807432
 20
-181.37805950132068
 10
58.63954443771665
 20
-181.5954800920886
 10
58.61476901443196
 20
-181.79859672254204
 10
57.448665368355464
 20
-195.127222387637
 10
57.4304462562282
 20
-195.26561028350784
 10
57.40023517347118
 20
-195.40188367140482
 10
57.35826204466612
 20
-195.53500542856182
 10
57.30484631066731
 20
-195.66396241802587
 10
57.24039449746377
 20
-195.78777319924077
 10
57.16539712227105
 20
-195.9054954974024
 10
57.080424960399036
 20
-196.01623337473922
 10
56.98612470130715
 20
-196.1191440491392
 10
56.88321402690713
 20
-196.21344430823112
 10
56.772476149570345
 20
-196.29841647010315
 10
56.654753851408664
 20
-196.37341384529583
 10
56.53094307019379
 20
-196.4378656584994
 10
56.40198608072974
 20
-196.49128139249822
 10
56.2688643235727
 20
-196.53325452130326
 10
52.9026128189553
 20
-197.43523889348555
 10
49.536361314337896
 20
-198.33722326566783
 10
49.40008792644096
 20
-198.3674343484249
 10
49.26170003057012
 20
-198.38565346055213
 10
49.12225084217386
 20
-198.39174194360533
 10
48.98280165377761
 20
-198.3856534605521
 10
48.84441375790677
 20
-198.36743434842484
 10
48.70814037000983
 20
-198.33722326566783
 10
48.575018612852794
 20
-198.29525013686276
 10
48.44606162338874
 20
-198.24183440286396
 10
48.32225084217386
 20
-198.17738258966043
 10
48.204528544012184
 20
-198.10238521446772
 10
48.0937906666754
 20
-198.01741305259566
 10
47.99087999227539
 20
-197.9231127935038
 10
47.89657973318349
 20
-197.82020211910378
 10
47.811607571311484
 20
-197.70946424176702
 10
40.137419357816086
 20
-186.74958764129977
 10
40.0144048966353
 20
-186.58607119103831
 10
39.86901089067031
 20
-186.41895878630632
 10
39.699611917535236
 20
-186.25197992489097
 10
39.505686484408514
 20
-186.08982654292237
 10
39.28826762879511
 20
-185.93785630020065
 10
39.05024352386239
 20
-185.80154721461133
 10
38.79635587873027
 20
-185.6857761547129
 10
38.532809964166944
 20
-185.59409504663867
 10
38.266546124679415
 20
-185.52822237305872
 10
38.004361777510795
 20
-185.4879075922842
 10
37.75212944385868
 20
-185.47118506981676
 10
37.51429716834939
 20
-185.47489464996008
 10
37.2937291243794
 20
-185.49528363632817
 10
37.09182644204147
 20
-185.52853260669494
 10
36.21115983055617
 20
-185.7024283732604
 10
35.32967807445169
 20
-185.8721438170755
 10
34.44740101664701
 20
-186.0376751176984
 10
33.56434851796403
 20
-186.19901854887593
 10
32.6805404566805
 20
-186.35617047862746
 10
31.795996728082535
 20
-186.5091273693268
 10
30.91073724401676
 20
-186.6578857777816
 10
30.0247819324421
 20
-186.80244235531103
 10
29.138150736981117
 20
-186.94279384782118
 10
28.25086361647114
 20
-187.07893709587816
 10
27.362940544514935
 20
-187.21086903477942
 10
26.474401509031072
 20
-187.33858669462253
 10
25.585266511804008
 20
-187.46208720037222
 10
24.69555556803378
 20
-187.5813677719249
 10
23.805288705885573
 20
-187.69642572417152
 10
22.914485966038686
 20
-187.8072584670577
 10
22.023167401235522
 20
-187.91386350564227
 10
21.131353075830148
 20
-188.01623844015336
 10
20.23906306533663
 20
-188.11438096604238
 10
19.34631745597713
 20
-188.20828887403593
 10
18.453136344229723
 20
-188.29796005018554
 10
17.55953983637602
 20
-188.38339247591526
 10
16.66554804804857
 20
-188.46458422806705
 10
15.771181103778021
 20
-188.5415334789442
 10
14.876459136540106
 20
-188.61423849635224
 10
13.981402287302434
 20
-188.68269764363825
 10
13.086030704571101
 20
-188.74690937972738
 10
12.190364543937124
 20
-188.80687225915776
 10
11.986736061908914
 20
-188.8270124794293
 10
11.768406633801838
 20
-188.86440544144494
 10
11.537718186571894
 20
-188.92237778462172
 10
11.298408568568883
 20
-189.00381303269353
 10
11.055592169453549
 20
-189.11061242299982
 10
10.815450152759968
 20
-189.24315469233892
 10
10.584613164315998
 20
-189.39992254435856
 10
10.369340286080593
 20
-189.57745975892774
 10
10.174706043217762
 20
-189.77072939660638
 10
10.004028348563786
 20
-189.97379351947583
 10
9.858679147813662
 20
-190.1806132543624
 10
9.73826961417947
 20
-190.38574612951598
 10
9.641081661847776
 20
-190.58479505492738
 10
9.564579988301446
 20
-190.77457830263464
 10
4.988508193257479
 20
-203.3472322293211
 10
4.935092459258665
 20
-203.47618921878512
 10
4.870640646055127
 20
-203.60000000000002
 10
4.795643270862412
 20
-203.71772229816168
 10
4.71067110899039
 20
-203.82846017549846
 10
4.616370849898501
 20
-203.93137084989849
 10
4.513460175498488
 20
-204.02567110899037
 10
4.402722298161699
 20
-204.1106432708624
 10
4.285000000000025
 20
-204.1856406460551
 10
4.161189218785144
 20
-204.25009245925864
 10
4.032232229321095
 20
-204.30350819325747
 10
3.899110472164058
 20
-204.3454813220625
 10
3.7628370842671135
 20
-204.37569240481955
 10
3.624449188396278
 20
-204.39391151694682
 10
3.4850000000000247
 20
-204.4
 10
2.50317805745719e-14
 20
-204.4
 10
-3.484999999999975
 20
-204.4
 10
-3.624449188396228
 20
-204.39391151694682
 10
-3.7628370842670638
 20
-204.37569240481955
 10
-3.899110472164008
 20
-204.3454813220625
 10
-4.032232229321045
 20
-204.30350819325747
 10
-4.161189218785094
 20
-204.25009245925864
 10
-4.284999999999975
 20
-204.1856406460551
 10
-4.402722298161649
 20
-204.1106432708624
 10
-4.513460175498438
 20
-204.02567110899037
 10
-4.616370849898451
 20
-203.93137084989849
 10
-4.71067110899034
 20
-203.82846017549846
 10
-4.795643270862362
 20
-203.71772229816168
 10
-4.870640646055077
 20
-203.60000000000002
 10
-4.935092459258615
 20
-203.47618921878512
 10
-4.988508193257429
 20
-203.3472322293211
 10
-9.5645799883014
 20
-190.77457830263464
 10
-9.64108166184773
 20
-190.58479505492738
 10
-9.738269614179424
 20
-190.38574612951598
 10
-9.858679147813616
 20
-190.1806132543624
 10
-10.00402834856374
 20
-189.97379351947583
 10
-10.174706043217716
 20
-189.77072939660638
 10
-10.369340286080547
 20
-189.57745975892774
 10
-10.584613164315952
 20
-189.39992254435856
 10
-10.815450152759922
 20
-189.24315469233892
 10
-11.055592169453503
 20
-189.11061242299982
 10
-11.298408568568837
 20
-189.00381303269353
 10
-11.537718186571848
 20
-188.92237778462172
 10
-11.768406633801792
 20
-188.86440544144494
 10
-11.986736061908868
 20
-188.8270124794293
 10
-12.190364543937077
 20
-188.80687225915776
 10
-13.086030704571055
 20
-188.74690937972738
 10
-13.981402287302387
 20
-188.68269764363825
 10
-14.87645913654006
 20
-188.61423849635224
 10
-15.771181103777975
 20
-188.5415334789442
 10
-16.665548048048528
 20
-188.46458422806705
 10
-17.559539836375976
 20
-188.38339247591526
 10
-18.45313634422968
 20
-188.29796005018554
 10
-19.346317455977086
 20
-188.20828887403593
 10
-20.239063065336587
 20
-188.11438096604238
 10
-21.131353075830106
 20
-188.01623844015336
 10
-22.02316740123548
 20
-187.91386350564227
 10
-22.914485966038644
 20
-187.8072584670577
 10
-23.80528870588553
 20
-187.69642572417152
 10
-24.695555568033672
 20
-187.58136777192493
 10
-25.58526651180388
 20
-187.46208720037225
 10
-26.47440150903094
 20
-187.3385866946226
 10
-27.362940544514803
 20
-187.21086903477945
 10
-28.250863616471005
 20
-187.07893709587822
 10
-29.138150736980986
 20
-186.94279384782118
 10
-30.024781932441964
 20
-186.80244235531106
 10
-30.91073724401663
 20
-186.65788577778162
 10
-31.795996728082404
 20
-186.50912736932682
 10
-32.68054045668036
 20
-186.3561704786275
 10
-33.56434851796391
 20
-186.19901854887596
 10
-34.44740101664688
 20
-186.03767511769843
 10
-35.329678074451564
 20
-185.87214381707554
 10
-36.21115983055605
 20
-185.70242837326043
 10
-37.091826442041345
 20
-185.52853260669497
 10
-37.29372912437927
 20
-185.49528363632817
 10
-37.51429716834926
 20
-185.47489464996008
 10
-37.75212944385855
 20
-185.47118506981678
 10
-38.00436177751067
 20
-185.48790759228422
 10
-38.26654612467929
 20
-185.52822237305872
 10
-38.53280996416682
 20
-185.5940950466387
 10
-38.79635587873014
 20
-185.68577615471293
 10
-39.05024352386226
 20
-185.80154721461136
 10
-39.288267628794976
 20
-185.93785630020068
 10
-39.505686484408386
 20
-186.08982654292237
 10
-39.69961191753511
 20
-186.25197992489103
 10
-39.869010890670175
 20
-186.41895878630635
 10
-40.01440489663517
 20
-186.58607119103834
 10
-40.13741935781595
 20
-186.7495876412998
 10
-47.81160757131134
 20
-197.70946424176705
 10
-47.89657973318336
 20
-197.82020211910384
 10
-47.990879992275254
 20
-197.92311279350383
 10
-48.09379066667526
 20
-198.0174130525957
 10
-48.20452854401205
 20
-198.10238521446774
 10
-48.32225084217372
 20
-198.17738258966045
 10
-48.4460616233886
 20
-198.24183440286401
 10
-48.57501861285266
 20
-198.29525013686282
 10
-48.70814037000969
 20
-198.3372232656679
 10
-48.84441375790663
 20
-198.3674343484249
 10
-48.98280165377747
 20
-198.38565346055216
 10
-49.12225084217373
 20
-198.39174194360535
 10
-49.261700030569976
 20
-198.3856534605522
 10
-49.40008792644082
 20
-198.36743434842492
 10
-49.53636131433776
 20
-198.3372232656679
 10
-52.90261281895516
 20
-197.4352388934856
 10
-56.268864323572565
 20
-196.53325452130332
 10
-56.4019860807296
 20
-196.49128139249825
 10
-56.53094307019365
 20
-196.43786565849945
 10
-56.65475385140853
 20
-196.37341384529591
 10
-56.77247614957021
 20
-196.2984164701032
 10
-56.88321402690699
 20
-196.21344430823117
 10
-56.986124701307006
 20
-196.11914404913927
 10
-57.0804249603989
 20
-196.01623337473927
 10
-57.16539712227092
 20
-195.90549549740246
 10
-57.24039449746363
 20
-195.7877731992408
 10
-57.30484631066717
 20
-195.6639624180259
 10
-57.35826204466598
 20
-195.53500542856187
 10
-57.400235173471046
 20
-195.40188367140485
 10
-57.430446256228066
 20
-195.2656102835079
 10
-57.448665368355336
 20
-195.1272223876371
 10
-58.614769014431836
 20
-181.79859672254207
 10
-58.63954443771652
 20
-181.59548009208862
 10
-58.6819031380742
 20
-181.3780595013207
 10
-58.7451175214765
 20
-181.14875207887252
 10
-58.83198518201982
 20
-180.91136041421476
 10
-58.944290312881925
 20
-180.67104089559177
 10
-59.08227069167206
 20
-180.43398171223842
 10
-59.244258312114255
 20
-180.20677721077726
 10
-59.426655215152586
 20
-179.9956060848562
 10
-59.624310127467986
 20
-179.80542675637702
 10
-59.83121104220339
 20
-179.639420958494
 10
-60.04128938956825
 20
-179.49882266239575
 10
-60.249112972070805
 20
-179.3831191152826
 10
-60.4503249945959
 20
-179.29049247344977
 10
-60.641802331776155
 20
-179.2183355852681
 10
-61.49142987286992
 20
-178.92860043098176
 10
-62.339673188536466
 20
-178.63483743868795
 10
-63.18651318408297
 20
-178.3370532212465
 10
-64.03193079640651
 20
-178.03525448203848
 10
-64.8759069944233
 20
-177.7294480148153
 10
-65.718422779497
 20
-177.4196407035458
 10
-66.55945918586646
 20
-177.10583952226133
 10
-67.3989972810726
 20
-176.78805153489864
 10
-68.23701816638464
 20
-176.46628389514098
 10
-69.07350297722553
 20
-176.1405438462571
 10
-69.90843288359656
 20
-175.810838720938
 10
-70.74178909050126
 20
-175.47717594113212
 10
-71.57355283836854
 20
-175.139563017878
 10
-72.40370540347492
 20
-174.79800755113544
 10
-73.23222809836602
 20
-174.45251722961433
 10
-74.0591022722773
 20
-174.10309983060142
 10
-74.8843093115538
 20
-173.7497632197855
 10
-75.70783064006929
 20
-173.39251535108022
 10
-76.52964771964427
 20
-173.0313642664449
 10
-77.34974205046339
 20
-172.66631809570382
 10
-78.16809517149188
 20
-172.29738505636288
 10
-78.98468866089111
 20
-171.9245734534249
 10
-79.79950413643326
 20
-171.54789167920242
 10
-80.61252325591519
 20
-171.16734821312892
 10
-81.42372771757124
 20
-170.78295162156792
 10
-82.23309926048532
 20
-170.3947105576202
 10
-83.0406196650019
 20
-170.0026337609288
 10
-83.8462707531362
 20
-169.60673005748262
 10
-84.03268830164245
 20
-169.52235775886146
 10
-84.24046361378473
 20
-169.44557629983623
 10
-84.46923184103383
 20
-169.38043759812925
 10
-84.7171976736303
 20
-169.3313077827214
 10
-84.98088253887278
 20
-169.3023905682777
 10
-85.25512276051501
 20
-169.2971045322538
 10
-85.5334173826504
 20
-169.31745098037754
 10
-85.80861777123265
 20
-169.3635662791939
 10
-86.07381078883752
 20
-169.4336255737724
 10
-86.32315406970196
 20
-169.52414541544752
 10
-86.55244003741461
 20
-169.6305819594882
 10
-86.75928418997644
 20
-169.74802747370546
 10
-86.94297588834318
 20
-169.87181492354188
 10
-87.10411990491995
 20
-169.9979212004959
 10
-97.35344129231272
 20
-178.5981229964746
 10
-97.4641791696495
 20
-178.68309515834656
 10
-97.58190146781118
 20
-178.75809253353933
 10
-97.70571224902605
 20
-178.82254434674283
 10
-97.83466923849011
 20
-178.87596008074163
 10
-97.96779099564715
 20
-178.9179332095467
 10
-98.10406438354408
 20
-178.9481442923037
 10
-98.24245227941492
 20
-178.966363404431
 10
-98.38190146781118
 20
-178.9724518874842
 10
-98.52135065620743
 20
-178.96636340443098
 10
-98.65973855207827
 20
-178.94814429230377
 10
-98.7960119399752
 20
-178.9179332095467
 10
-98.92913369713224
 20
-178.87596008074163
 10
-99.0580906865963
 20
-178.82254434674283
 10
-99.18190146781117
 20
-178.7580925335393
 10
-102.19999999999995
 20
-177.0155925335393
 10
-105.21809853218872
 20
-175.27309253353928
 10
-105.3358208303504
 20
-175.1980951583466
 10
-105.44655870768719
 20
-175.11312299647457
 10
-105.5494693820872
 20
-175.0188227373827
 10
-105.64376964117909
 20
-174.91591206298267
 10
-105.7287418030511
 20
-174.80517418564585
 10
-105.80373917824382
 20
-174.68745188748417
 10
-105.86819099144736
 20
-174.56364110626933
 10
-105.92160672544617
 20
-174.43468411680527
 10
-105.96357985425122
 20
-174.30156235964822
 10
-105.99379093700824
 20
-174.16528897175127
 10
-106.01201004913551
 20
-174.02690107588043
 10
-106.01809853218873
 20
-173.88745188748422
 10
-106.01201004913551
 20
-173.74800269908795
 10
-105.99379093700826
 20
-173.6096148032171
 10
-103.67045839771457
 20
-160.43334121219448
 10
-103.64181916658409
 20
-160.23073326169413
 10
-103.62646193953942
 20
-160.00975785952602
 10
-103.62817321694769
 20
-159.77190281167458
 10
-103.65063944977376
 20
-159.52011706688378
 10
-103.69691860776875
 20
-159.25891953055466
 10
-103.76884198769498
 20
-158.99422599311333
 10
-103.86650516170805
 20
-158.7328378160616
 10
-103.9880319318238
 20
-158.48165437949388
 10
-104.12972988412693
 20
-158.24679839882418
 10
-104.28661535906312
 20
-158.03289921415256
 10
-104.45314594358777
 20
-157.8427194115574
 10
-104.6239418276601
 20
-157.67716966603442
 10
-104.79432417778673
 20
-157.5356216969526
 10
-104.96060150602145
 20
-157.41636551354551
 10
-105.70628971472537
 20
-156.91660305635776
 10
-106.44959838315282
 20
-156.4133082703178
 10
-107.19051077878089
 20
-155.90649248502785
 10
-107.92901022302888
 20
-155.39616710935096
 10
-108.66508009163368
 20
-154.88234363115387
 10
-109.39870381502404
 20
-154.36503361704894
 10
-110.12986487869354
 20
-153.8442487121332
 10
-110.85854682357242
 20
-153.32000063972671
 10
-111.58473324639799
 20
-152.7923012011083
 10
-112.30840780008396
 20
-152.2611622752501
 10
-113.02955419408835
 20
-151.72659581855004
 10
-113.74815619478028
 20
-151.1886138645628
 10
-114.46419762580538
 20
-150.6472285237288
 10
-115.17766236844984
 20
-150.10245198310173
 10
-115.88853436200353
 20
-149.5542965060741
 10
-116.59679760412114
 20
-149.00277443210112
 10
-117.30243615118272
 20
-148.44789817642314
 10
-118.00543411865249
 20
-147.889680229786
 10
-118.70577568143636
 20
-147.32813315815991
 10
-119.40344507423829
 20
-146.7632696024566
 10
-120.09842659191497
 20
-146.19510227824463
 10
-120.79070458982964
 20
-145.62364397546335
 10
-121.48026348420402
 20
-145.0489075581349
 10
-122.16708775246927
 20
-144.47090596407455
 10
-122.85116193361529
 20
-143.88965220459957
 10
-123.53247062853889
 20
-143.30515936423632
 10
-124.21099850039035
 20
-142.71744060042565
 10
-124.88673027491865
 20
-142.12650914322674
 10
-125.04495864173211
 20
-141.99676334907048
 10
-125.2257816778891
 20
-141.8688219469333
 10
-125.42989568024836
 20
-141.74669321853716
 10
-125.65669655008067
 20
-141.63505918098326
 10
-125.90391224559058
 20
-141.53888063169768
 10
-126.16743983148594
 20
-141.46279612068935
 10
-126.4415178425985
 20
-141.4104213320471
 10
-126.71927652293915
 20
-141.38373818837613
 10
-126.99356598731858
 20
-141.38277326679673
 10
-127.25784136090239
 20
-141.4056739298063
 10
-127.50686240341436
 20
-141.44914016133737
 10
-127.73705564823197
 20
-141.5090486106505
 10
-127.94652675332165
 20
-141.58107519545342
 10
-128.1348186268678
 20
-141.66117736472611
 10
-140.26079887341155
 20
-147.31561481632568
 10
-140.38975586287557
 20
-147.36903055032448
 10
-140.5228776200326
 20
-147.41100367912955
 10
-140.65915100792955
 20
-147.44121476188656
 10
-140.7975389038004
 20
-147.45943387401383
 10
-140.93698809219663
 20
-147.46552235706704
 10
-141.0764372805929
 20
-147.45943387401383
 10
-141.21482517646373
 20
-147.44121476188658
 10
-141.35109856436068
 20
-147.41100367912955
 10
-141.4842203215177
 20
-147.36903055032448
 10
-141.61317731098177
 20
-147.31561481632568
 10
-141.73698809219664
 20
-147.25116300312214
 10
-141.85471039035832
 20
-147.17616562792944
 10
-141.9654482676951
 20
-147.09119346605743
 10
-142.06835894209513
 20
-146.9968932069655
 10
-144.53262607453024
 20
-144.53262607453038
 10
-146.99689320696535
 20
-142.06835894209527
 10
-147.09119346605726
 20
-141.96544826769528
 10
-147.17616562792927
 20
-141.8547103903585
 10
-147.251163003122
 20
-141.73698809219678
 10
-147.31561481632554
 20
-141.6131773109819
 10
-147.3690305503243
 20
-141.48422032151788
 10
-147.41100367912938
 20
-141.35109856436085
 10
-147.4412147618864
 20
-141.2148251764639
 10
-147.45943387401368
 20
-141.07643728059304
 10
-147.46552235706687
 20
-140.9369880921968
 10
-147.45943387401365
 20
-140.79753890380056
 10
-147.44121476188639
 20
-140.65915100792972
 10
-147.4110036791294
 20
-140.5228776200328
 10
-147.36903055032434
 20
-140.38975586287572
 10
-147.31561481632554
 20
-140.2607988734117
 10
-141.66117736472597
 20
-128.13481862686794
 10
-141.58107519545328
 20
-127.94652675332179
 10
-141.50904861065035
 20
-127.73705564823211
 10
-141.44914016133725
 20
-127.5068624034145
 10
-141.4056739298062
 20
-127.25784136090253
 10
-141.3827732667966
 20
-126.99356598731873
 10
-141.38373818837601
 20
-126.7192765229393
 10
-141.41042133204695
 20
-126.44151784259864
 10
-141.46279612068923
 20
-126.16743983148609
 10
-141.53888063169754
 20
-125.90391224559073
 10
-141.63505918098315
 20
-125.65669655008081
 10
-141.74669321853702
 20
-125.4298956802485
 10
-141.86882194693314
 20
-125.22578167788929
 10
-141.99676334907033
 20
-125.04495864173226
 10
-142.1265091432266
 20
-124.88673027491879
 10
-142.71744060042553
 20
-124.2109985003905
 10
-143.30515936423618
 20
-123.53247062853904
 10
-143.88965220459943
 20
-122.85116193361544
 10
-144.4709059640744
 20
-122.16708775246943
 10
-145.04890755813474
 20
-121.4802634842042
 10
-145.62364397546324
 20
-120.7907045898298
 10
-146.19510227824452
 20
-120.09842659191514
 10
-146.7632696024565
 20
-119.40344507423845
 10
-147.3281331581598
 20
-118.70577568143652
 10
-147.88968022978588
 20
-118.00543411865264
 10
-148.44789817642302
 20
-117.30243615118289
 10
-149.00277443210098
 20
-116.59679760412129
 10
-149.55429650607394
 20
-115.88853436200371
 10
-150.1024519831016
 20
-115.17766236845
 10
-150.6472285237287
 20
-114.46419762580551
 10
-151.18861386456268
 20
-113.74815619478042
 10
-151.72659581854992
 20
-113.02955419408848
 10
-152.26116227525
 20
-112.30840780008408
 10
-152.79230120110822
 20
-111.58473324639812
 10
-153.32000063972663
 20
-110.85854682357255
 10
-153.84424871213312
 20
-110.12986487869368
 10
-154.36503361704882
 20
-109.39870381502416
 10
-154.8823436311538
 20
-108.66508009163381
 10
-155.39616710935084
 20
-107.92901022302902
 10
-155.90649248502774
 20
-107.19051077878103
 10
-156.41330827031769
 20
-106.44959838315295
 10
-156.91660305635764
 20
-105.7062897147255
 10
-157.41636551354543
 20
-104.96060150602159
 10
-157.5356216969525
 20
-104.79432417778688
 10
-157.67716966603433
 20
-104.62394182766023
 10
-157.84271941155728
 20
-104.45314594358791
 10
-158.03289921415248
 20
-104.28661535906326
 10
-158.2467983988241
 20
-104.12972988412706
 10
-158.48165437949376
 20
-103.98803193182394
 10
-158.73283781606148
 20
-103.86650516170819
 10
-158.99422599311325
 20
-103.76884198769513
 10
-159.25891953055458
 20
-103.69691860776888
 10
-159.52011706688367
 20
-103.6506394497739
 10
-159.7719028116745
 20
-103.62817321694783
 10
-160.00975785952593
 20
-103.62646193953955
 10
-160.23073326169404
 20
-103.64181916658423
 10
-160.4333412121944
 20
-103.6704583977147
 10
-173.60961480321703
 20
-105.9937909370084
 10
-173.74800269908783
 20
-106.01201004913565
 10
-173.88745188748413
 20
-106.01809853218886
 10
-174.02690107588035
 20
-106.01201004913564
 10
-174.16528897175118
 20
-105.99379093700838
 10
-174.30156235964813
 20
-105.96357985425136
 10
-174.43468411680516
 20
-105.92160672544631
 10
-174.56364110626922
 20
-105.86819099144749
 10
-174.6874518874841
 20
-105.80373917824396
 10
-174.80517418564577
 20
-105.72874180305124
 10
-174.91591206298256
 20
-105.64376964117923
 10
-175.01882273738258
 20
-105.54946938208732
 10
-175.11312299647446
 20
-105.44655870768732
 10
-175.1980951583465
 20
-105.33582083035054
 10
-175.2730925335392
 20
-105.21809853218886
 10
-177.0155925335392
 20
-102.20000000000009
 10
-178.7580925335392
 20
-99.18190146781131
 10
-178.82254434674277
 20
-99.05809068659644
 10
-178.87596008074158
 20
-98.9291336971324
 10
-178.9179332095466
 20
-98.79601193997536
 10
-178.94814429230365
 20
-98.65973855207841
 10
-178.9663634044309
 20
-98.52135065620757
 10
-178.9724518874841
 20
-98.38190146781132
 10
-178.9663634044309
 20
-98.24245227941508
 10
-178.94814429230365
 20
-98.10406438354423
 10
-178.91793320954662
 20
-97.96779099564729
 10
-178.87596008074155
 20
-97.83466923849025
 10
-178.82254434674275
 20
-97.7057122490262
 10
-178.75809253353924
 20
-97.58190146781133
 10
-178.6830951583465
 20
-97.46417916964964
 10
-178.5981229964745
 20
-97.35344129231287
 10
-169.99792120049582
 20
-87.10411990492011
 10
-169.8718149235418
 20
-86.94297588834333
 10
-169.74802747370538
 20
-86.7592841899766
 10
-169.63058195948813
 20
-86.55244003741475
 10
-169.52414541544746
 20
-86.3231540697021
 10
-169.4336255737723
 20
-86.07381078883768
 10
-169.3635662791938
 20
-85.80861777123279
 10
-169.3174509803775
 20
-85.53341738265054
 10
-169.29710453225374
 20
-85.25512276051515
 10
-169.30239056827762
 20
-84.98088253887293
 10
-169.33130778272132
 20
-84.71719767363044
 10
-169.3804375981292
 20
-84.46923184103397
 10
-169.44557629983615
 20
-84.24046361378488
 10
-169.5223577588614
 20
-84.0326883016426
 10
-169.60673005748254
 20
-83.84627075313634
 10
-170.00263376092875
 20
-83.04061966500205
 10
-170.39471055762013
 20
-82.23309926048547
 10
-170.78295162156786
 20
-81.42372771757138
 10
-171.16734821312886
 20
-80.61252325591533
 10
-171.54789167920234
 20
-79.79950413643341
 10
-171.92457345342484
 20
-78.98468866089127
 10
-172.29738505636286
 20
-78.16809517149203
 10
-172.66631809570373
 20
-77.34974205046355
 10
-173.03136426644483
 20
-76.52964771964443
 10
-173.39251535108014
 20
-75.70783064006945
 10
-173.74976321978545
 20
-74.88430931155396
 10
-174.10309983060137
 20
-74.05910227227744
 10
-174.45251722961427
 20
-73.23222809836618
 10
-174.79800755113536
 20
-72.4037054034751
 10
-175.13956301787795
 20
-71.57355283836876
 10
-175.477175941132
 20
-70.74178909050147
 10
-175.8108387209379
 20
-69.90843288359677
 10
-176.14054384625697
 20
-69.07350297722574
 10
-176.4662838951409
 20
-68.23701816638486
 10
-176.78805153489853
 20
-67.39899728107281
 10
-177.10583952226122
 20
-66.55945918586667
 10
-177.41964070354572
 20
-65.71842277949722
 10
-177.7294480148152
 20
-64.87590699442352
 10
-178.0352544820384
 20
-64.03193079640673
 10
-178.3370532212464
 20
-63.18651318408318
 10
-178.63483743868787
 20
-62.33967318853668
 10
-178.92860043098167
 20
-61.49142987287014
 10
-179.21833558526805
 20
-60.641802331776375
 10
-179.2904924734497
 20
-60.45032499459612
 10
-179.3831191152825
 20
-60.24911297207102
 10
-179.4988226623957
 20
-60.04128938956846
 10
-179.6394209584939
 20
-59.83121104220361
 10
-179.80542675637693
 20
-59.624310127468206
 10
-179.99560608485615
 20
-59.426655215152806
 10
-180.2067772107772
 20
-59.244258312114475
 10
-180.43398171223836
 20
-59.08227069167228
 10
-180.6710408955917
 20
-58.94429031288214
 10
-180.91136041421467
 20
-58.831985182020034
 10
-181.14875207887246
 20
-58.74511752147672
 10
-181.37805950132065
 20
-58.68190313807442
 10
-181.59548009208856
 20
-58.63954443771674
 10
-181.79859672254202
 20
-58.61476901443205
 10
-195.12722238763698
 20
-57.44866536835556
 10
-195.2656102835078
 20
-57.4304462562283
 10
-195.40188367140476
 20
-57.40023517347128
 10
-195.5350054285618
 20
-57.35826204466622
 10
-195.66396241802585
 20
-57.30484631066741
 10
-195.78777319924075
 20
-57.240394497463875
 10
-195.9054954974024
 20
-57.16539712227116
 10
-196.01623337473922
 20
-57.080424960399135
 10
-196.11914404913918
 20
-56.98612470130725
 10
-196.2134443082311
 20
-56.88321402690723
 10
-196.29841647010315
 20
-56.77247614957045
 10
-196.3734138452958
 20
-56.65475385140876
 10
-196.43786565849936
 20
-56.53094307019389
 10
-196.4912813924982
 20
-56.40198608072984
 10
-196.53325452130323
 20
-56.2688643235728
 10
-197.43523889348552
 20
-52.9026128189554
 10
-198.3372232656678
 20
-49.536361314337995
 10
-198.36743434842487
 20
-49.40008792644106
 10
-198.3856534605521
 20
-49.26170003057022
 10
-198.3917419436053
 20
-49.12225084217396
 10
-198.3856534605521
 20
-48.98280165377771
 10
-198.3674343484248
 20
-48.84441375790687
 10
-198.3372232656678
 20
-48.70814037000993
 10
-198.29525013686276
 20
-48.575018612852894
 10
-198.24183440286396
 20
-48.44606162338884
 10
-198.1773825896604
 20
-48.322250842173965
 10
-198.1023852144677
 20
-48.204528544012284
 10
-198.01741305259569
 20
-48.0937906666755
 10
-197.9231127935038
 20
-47.99087999227549
 10
-197.82020211910375
 20
-47.89657973318359
 10
-197.709464241767
 20
-47.81160757131158
 10
-186.74958764129974
 20
-40.13741935781618
 10
-186.5860711910383
 20
-40.0144048966354
 10
-186.4189587863063
 20
-39.869010890670395
 10
-186.25197992489097
 20
-39.69961191753533
 10
-186.08982654292234
 20
-39.50568648440861
 10
-185.93785630020065
 20
-39.288267628795204
 10
-185.8015472146113
 20
-39.05024352386248
 10
-185.68577615471287
 20
-38.79635587873036
 10
-185.59409504663864
 20
-38.53280996416704
 10
-185.5282223730587
 20
-38.26654612467951
 10
-185.4879075922842
 20
-38.00436177751089
 10
-185.47118506981673
 20
-37.75212944385878
 10
-185.47489464996005
 20
-37.514297168349486
 10
-185.49528363632814
 20
-37.29372912437949
 10
-185.5285326066949
 20
-37.091826442041565
 10
-185.7024283732604
 20
-36.21115983055627
 10
-185.8721438170755
 20
-35.32967807445179
 10
-186.0376751176984
 20
-34.447401016647106
 10
-186.19901854887593
 20
-33.56434851796412
 10
-186.35617047862746
 20
-32.68054045668059
 10
-186.5091273693268
 20
-31.79599672808263
 10
-186.65788577778156
 20
-30.910737244016858
 10
-186.802442355311
 20
-30.024781932442192
 10
-186.94279384782115
 20
-29.138150736981213
 10
-187.07893709587816
 20
-28.250863616471232
 10
-187.21086903477942
 20
-27.36294054451503
 10
-187.33858669462253
 20
-26.474401509031168
 10
-187.4620872003722
 20
-25.58526651180411
 10
-187.5813677719249
 20
-24.695555568033793
 10
-187.69642572417152
 20
-23.805288705885587
 10
-187.8072584670577
 20
-22.9144859660387
 10
-187.91386350564227
 20
-22.023167401235536
 10
-188.01623844015336
 20
-21.131353075830162
 10
-188.11438096604238
 20
-20.239063065336644
 10
-188.20828887403593
 20
-19.346317455977143
 10
-188.29796005018554
 20
-18.453136344229737
 10
-188.38339247591526
 20
-17.559539836376032
 10
-188.46458422806705
 20
-16.665548048048585
 10
-188.5415334789442
 20
-15.771181103778032
 10
-188.61423849635224
 20
-14.876459136540118
 10
-188.68269764363825
 20
-13.981402287302446
 10
-188.74690937972738
 20
-13.086030704571114
 10
-188.80687225915776
 20
-12.190364543937136
 10
-188.8270124794293
 20
-11.986736061908926
 10
-188.86440544144494
 20
-11.76840663380185
 10
-188.92237778462172
 20
-11.537718186571906
 10
-189.00381303269353
 20
-11.298408568568895
 10
-189.11061242299982
 20
-11.055592169453561
 10
-189.24315469233892
 20
-10.815450152759981
 10
-189.39992254435856
 20
-10.58461316431601
 10
-189.57745975892774
 20
-10.369340286080606
 10
-189.77072939660638
 20
-10.174706043217775
 10
-189.97379351947583
 20
-10.004028348563798
 10
-190.1806132543624
 20
-9.858679147813675
 10
-190.38574612951598
 20
-9.738269614179483
 10
-190.58479505492738
 20
-9.641081661847789
 10
-190.77457830263464
 20
-9.564579988301459
 10
-203.3472322293211
 20
-4.988508193257491
 10
-203.47618921878512
 20
-4.935092459258677
 10
-203.60000000000002
 20
-4.870640646055139
 10
-203.71772229816168
 20
-4.795643270862424
 10
-203.82846017549846
 20
-4.710671108990402
 10
-203.93137084989849
 20
-4.616370849898513
 10
-204.02567110899037
 20
-4.5134601754985
 10
-204.1106432708624
 20
-4.402722298161711
 10
-204.1856406460551
 20
-4.2850000000000374
 10
-204.25009245925864
 20
-4.1611892187851565
 10
-204.30350819325747
 20
-4.0322322293211075
 10
-204.3454813220625
 20
-3.899110472164071
 10
-204.37569240481955
 20
-3.7628370842671264
 10
-204.39391151694682
 20
-3.624449188396291
 10
-204.4
 20
-3.4850000000000376
 10
-204.4
 20
-3.754767086185785e-14
 10
-204.4
 20
3.484999999999962
 10
-204.39391151694682
 20
3.6244491883962153
 10
-204.37569240481955
 20
3.762837084267051
 10
-204.3454813220625
 20
3.8991104721639953
 10
-204.30350819325747
 20
4.032232229321033
 10
-204.25009245925864
 20
4.161189218785082
 10
-204.1856406460551
 20
4.284999999999963
 10
-204.1106432708624
 20
4.4027222981616365
 10
-204.02567110899037
 20
4.513460175498426
 10
-203.93137084989849
 20
4.616370849898439
 10
-203.82846017549846
 20
4.7106711089903275
 10
-203.71772229816168
 20
4.7956432708623495
 10
-203.60000000000002
 20
4.870640646055064
 10
-203.47618921878512
 20
4.935092459258603
 10
-203.3472322293211
 20
4.988508193257417
 10
-190.77457830263464
 20
9.564579988301388
 10
-190.58479505492738
 20
9.641081661847718
 10
-190.38574612951598
 20
9.738269614179412
 10
-190.1806132543624
 20
9.858679147813604
 10
-189.97379351947583
 20
10.004028348563727
 10
-189.77072939660638
 20
10.174706043217704
 10
-189.57745975892774
 20
10.369340286080535
 10
-189.39992254435856
 20
10.58461316431594
 10
-189.24315469233892
 20
10.81545015275991
 10
-189.11061242299982
 20
11.05559216945349
 10
-189.00381303269353
 20
11.298408568568824
 10
-188.92237778462172
 20
11.537718186571835
 10
-188.86440544144494
 20
11.76840663380178
 10
-188.8270124794293
 20
11.986736061908855
 10
-188.80687225915776
 20
12.190364543937065
 10
-188.74690937972738
 20
13.086030704571042
 10
-188.68269764363825
 20
13.981402287302375
 10
-188.61423849635224
 20
14.876459136540047
 10
-188.5415334789442
 20
15.771181103777964
 10
-188.46458422806705
 20
16.665548048048514
 10
-188.38339247591526
 20
17.55953983637596
 10
-188.29796005018554
 20
18.453136344229666
 10
-188.20828887403593
 20
19.346317455977072
 10
-188.11438096604238
 20
20.239063065336573
 10
-188.01623844015336
 20
21.13135307583009
 10
-187.91386350564227
 20
22.023167401235465
 10
-187.8072584670577
 20
22.91448596603863
 10
-187.69642572417152
 20
23.805288705885516
 10
-187.58136777192493
 20
24.695555568033665
 10
-187.46208720037222
 20
25.585266511803866
 10
-187.3385866946226
 20
26.474401509030933
 10
-187.21086903477945
 20
27.36294054451479
 10
-187.07893709587822
 20
28.250863616470998
 10
-186.94279384782118
 20
29.13815073698098
 10
-186.80244235531106
 20
30.024781932441957
 10
-186.65788577778162
 20
30.910737244016623
 10
-186.50912736932682
 20
31.795996728082397
 10
-186.3561704786275
 20
32.68054045668036
 10
-186.19901854887596
 20
33.56434851796389
 10
-186.03767511769843
 20
34.447401016646864
 10
-185.87214381707554
 20
35.32967807445156
 10
-185.70242837326043
 20
36.211159830556035
 10
-185.52853260669497
 20
37.09182644204133
 10
-185.49528363632817
 20
37.293729124379254
 10
-185.47489464996008
 20
37.514297168349245
 10
-185.47118506981678
 20
37.752129443858536
 10
-185.48790759228422
 20
38.00436177751065
 10
-185.52822237305872
 20
38.26654612467927
 10
-185.5940950466387
 20
38.53280996416681
 10
-185.68577615471293
 20
38.79635587873013
 10
-185.80154721461136
 20
39.05024352386224
 10
-185.93785630020068
 20
39.28826762879497
 10
-186.08982654292237
 20
39.50568648440838
 10
-186.25197992489103
 20
39.6996119175351
 10
-186.41895878630635
 20
39.86901089067016
 10
-186.58607119103834
 20
40.01440489663516
 10
-186.7495876412998
 20
40.13741935781594
 10
-197.70946424176705
 20
47.81160757131133
 10
-197.82020211910384
 20
47.896579733183344
 10
-197.92311279350383
 20
47.99087999227524
 10
-198.0174130525957
 20
48.09379066667525
 10
-198.10238521446774
 20
48.204528544012035
 10
-198.17738258966045
 20
48.322250842173716
 10
-198.24183440286401
 20
48.446061623388594
 10
-198.29525013686282
 20
48.575018612852645
 10
-198.3372232656679
 20
48.70814037000968
 10
-198.3674343484249
 20
48.84441375790662
 10
-198.38565346055216
 20
48.982801653777464
 10
-198.39174194360535
 20
49.12225084217371
 10
-198.3856534605522
 20
49.26170003056997
 10
-198.36743434842492
 20
49.400087926440804
 10
-198.3372232656679
 20
49.536361314337746
 10
-197.4352388934856
 20
52.90261281895515
 10
-196.53325452130332
 20
56.26886432357255
 10
-196.49128139249825
 20
56.4019860807296
 10
-196.43786565849945
 20
56.53094307019364
 10
-196.37341384529591
 20
56.654753851408515
 10
-196.2984164701032
 20
56.7724761495702
 10
-196.21344430823117
 20
56.883214026906984
 10
-196.11914404913927
 20
56.986124701307
 10
-196.01623337473927
 20
57.08042496039889
 10
-195.90549549740246
 20
57.16539712227091
 10
-195.7877731992408
 20
57.240394497463626
 10
-195.6639624180259
 20
57.30484631066716
 10
-195.53500542856187
 20
57.35826204466598
 10
-195.40188367140485
 20
57.40023517347103
 10
-195.2656102835079
 20
57.43044625622805
 10
-195.1272223876371
 20
57.44866536835532
 10
-181.79859672254207
 20
58.61476901443183
 10
-181.59548009208862
 20
58.639544437716516
 10
-181.3780595013207
 20
58.68190313807418
 10
-181.14875207887252
 20
58.745117521476494
 10
-180.91136041421476
 20
58.831985182019814
 10
-180.67104089559177
 20
58.94429031288192
 10
-180.43398171223842
 20
59.08227069167204
 10
-180.20677721077726
 20
59.24425831211425
 10
-179.9956060848562
 20
59.42665521515257
 10
-179.80542675637702
 20
59.62431012746797
 10
-179.639420958494
 20
59.83121104220339
 10
-179.49882266239575
 20
60.041289389568234
 10
-179.3831191152826
 20
60.24911297207079
 10
-179.29049247344977
 20
60.45032499459589
 10
-179.2183355852681
 20
60.64180233177614
 10
-178.92860043098176
 20
61.49142987286991
 10
-178.63483743868795
 20
62.33967318853646
 10
-178.3370532212465
 20
63.186513184082955
 10
-178.03525448203848
 20
64.0319307964065
 10
-177.7294480148153
 20
64.87590699442329
 10
-177.4196407035458
 20
65.71842277949699
 10
-177.10583952226133
 20
66.55945918586644
 10
-176.78805153489864
 20
67.3989972810726
 10
-176.46628389514098
 20
68.23701816638464
 10
-176.1405438462571
 20
69.07350297722553
 10
-175.810838720938
 20
69.90843288359655
 10
-175.47717594113212
 20
70.74178909050124
 10
-175.13956301787803
 20
71.57355283836853
 10
-174.7980075511355
 20
72.40370540347485
 10
-174.45251722961436
 20
73.23222809836595
 10
-174.10309983060145
 20
74.05910227227722
 10
-173.74976321978554
 20
74.88430931155374
 10
-173.39251535108022
 20
75.70783064006922
 10
-173.03136426644494
 20
76.5296477196442
 10
-172.66631809570387
 20
77.34974205046332
 10
-172.29738505636294
 20
78.16809517149181
 10
-171.92457345342496
 20
78.98468866089104
 10
-171.54789167920248
 20
79.79950413643319
 10
-171.16734821312895
 20
80.61252325591511
 10
-170.78295162156797
 20
81.42372771757115
 10
-170.39471055762024
 20
82.23309926048525
 10
-170.00263376092886
 20
83.04061966500183
 10
-169.60673005748265
 20
83.84627075313611
 10
-169.5223577588615
 20
84.03268830164238
 10
-169.44557629983626
 20
84.24046361378466
 10
-169.38043759812928
 20
84.46923184103376
 10
-169.33130778272147
 20
84.71719767363022
 10
-169.30239056827773
 20
84.9808825388727
 10
-169.29710453225383
 20
85.25512276051492
 10
-169.31745098037757
 20
85.53341738265033
 10
-169.36356627919392
 20
85.80861777123256
 10
-169.43362557377242
 20
86.07381078883745
 10
-169.52414541544758
 20
86.32315406970189
 10
-169.63058195948827
 20
86.55244003741454
 10
-169.7480274737055
 20
86.75928418997637
 10
-169.87181492354193
 20
86.94297588834311
 10
-169.99792120049597
 20
87.10411990491988
 10
-178.59812299647464
 20
97.35344129231264
 10
-178.68309515834662
 20
97.46417916964941
 10
-178.75809253353935
 20
97.5819014678111
 10
-178.8225443467429
 20
97.70571224902596
 10
-178.8759600807417
 20
97.83466923849002
 10
-178.91793320954676
 20
97.96779099564706
 10
-178.94814429230377
 20
98.104064383544
 10
-178.96636340443104
 20
98.24245227941483
 10
-178.97245188748423
 20
98.38190146781109
 10
-178.96636340443104
 20
98.52135065620735
 10
-178.94814429230377
 20
98.65973855207818
 10
-178.91793320954673
 20
98.79601193997512
 10
-178.8759600807417
 20
98.92913369713216
 10
-178.8225443467429
 20
99.05809068659622
 10
-178.75809253353935
 20
99.18190146781109
 10
-177.01559253353935
 20
102.19999999999986
 10
-175.27309253353934
 20
105.21809853218863
 10
-175.19809515834666
 20
105.33582083035031
 10
-175.11312299647463
 20
105.4465587076871
 10
-175.01882273738272
 20
105.54946938208711
 10
-174.91591206298273
 20
105.643769641179
 10
-174.8051741856459
 20
105.72874180305101
 10
-174.68745188748426
 20
105.80373917824373
 10
-174.56364110626936
 20
105.86819099144728
 10
-174.43468411680533
 20
105.92160672544608
 10
-174.30156235964827
 20
105.96357985425114
 10
-174.16528897175132
 20
105.99379093700816
 10
-174.0269010758805
 20
106.01201004913543
 10
-173.88745188748425
 20
106.01809853218865
 10
-173.748002699088
 20
106.01201004913543
 10
-173.60961480321717
 20
105.99379093700817
 10
-160.43334121219453
 20
103.6704583977145
 10
-160.23073326169418
 20
103.64181916658401
 10
-160.00975785952605
 20
103.62646193953935
 10
-159.77190281167464
 20
103.62817321694762
 10
-159.52011706688384
 20
103.65063944977369
 10
-159.2589195305547
 20
103.69691860776868
 10
-158.99422599311336
 20
103.76884198769493
 10
-158.73283781606162
 20
103.86650516170798
 10
-158.4816543794939
 20
103.98803193182374
 10
-158.2467983988242
 20
104.12972988412686
 10
-158.03289921415262
 20
104.28661535906305
 10
-157.84271941155743
 20
104.4531459435877
 10
-157.67716966603444
 20
104.62394182766003
 10
-157.53562169695263
 20
104.79432417778666
 10
-157.41636551354554
 20
104.96060150602139
 10
-156.91660305635781
 20
105.7062897147253
 10
-156.41330827031786
 20
106.44959838315275
 10
-155.9064924850279
 20
107.19051077878083
 10
-155.39616710935098
 20
107.92901022302883
 10
-154.88234363115393
 20
108.66508009163361
 10
-154.365033617049
 20
109.39870381502396
 10
-153.84424871213326
 20
110.12986487869347
 10
-153.32000063972677
 20
110.85854682357235
 10
-152.79230120110833
 20
111.58473324639792
 10
-152.26116227525014
 20
112.30840780008388
 10
-151.72659581855007
 20
113.02955419408828
 10
-151.18861386456283
 20
113.74815619478022
 10
-150.64722852372884
 20
114.46419762580531
 10
-150.1024519831017
 20
115.1776623684499
 10
-149.55429650607405
 20
115.88853436200358
 10
-149.0027744321011
 20
116.59679760412118
 10
-148.4478981764231
 20
117.30243615118276
 10
-147.889680229786
 20
118.00543411865254
 10
-147.32813315815991
 20
118.70577568143642
 10
-146.76326960245655
 20
119.40344507423832
 10
-146.19510227824458
 20
120.09842659191501
 10
-145.62364397546332
 20
120.7907045898297
 10
-145.04890755813486
 20
121.48026348420407
 10
-144.4709059640745
 20
122.16708775246931
 10
-143.88965220459954
 20
122.85116193361534
 10
-143.3051593642363
 20
123.53247062853896
 10
-142.71744060042562
 20
124.21099850039037
 10
-142.1265091432267
 20
124.88673027491868
 10
-141.99676334907045
 20
125.04495864173214
 10
-141.86882194693325
 20
125.22578167788916
 10
-141.74669321853713
 20
125.42989568024842
 10
-141.6350591809832
 20
125.6566965500807
 10
-141.53888063169762
 20
125.9039122455906
 10
-141.46279612068932
 20
126.16743983148599
 10
-141.41042133204706
 20
126.44151784259853
 10
-141.3837381883761
 20
126.71927652293918
 10
-141.3827732667967
 20
126.99356598731863
 10
-141.40567392980628
 20
127.25784136090242
 10
-141.4491401613373
 20
127.50686240341439
 10
-141.50904861065047
 20
127.73705564823203
 10
-141.5810751954534
 20
127.9465267533217
 10
-141.66117736472606
 20
128.13481862686783
 10
-147.31561481632565
 20
140.26079887341157
 10
-147.36903055032445
 20
140.3897558628756
 10
-147.41100367912952
 20
140.52287762003266
 10
-147.4412147618865
 20
140.6591510079296
 10
-147.45943387401377
 20
140.79753890380044
 10
-147.465522357067
 20
140.93698809219669
 10
-147.4594338740138
 20
141.07643728059293
 10
-147.44121476188653
 20
141.2148251764638
 10
-147.4110036791295
 20
141.35109856436074
 10
-147.36903055032442
 20
141.48422032151777
 10
-147.31561481632565
 20
141.61317731098183
 10
-147.25116300312212
 20
141.73698809219667
 10
-147.17616562792938
 20
141.85471039035838
 10
-147.09119346605738
 20
141.96544826769517
 10
-146.99689320696547
 20
142.06835894209516
 10
-144.53262607453036
 20
144.53262607453027
 10
-142.06835894209524
 20
146.99689320696538
 10
-141.96544826769522
 20
147.09119346605732
 10
-141.85471039035843
 20
147.17616562792932
 10
-141.73698809219675
 20
147.25116300312203
 10
-141.61317731098188
 20
147.3156148163256
 10
-141.48422032151782
 20
147.36903055032437
 10
-141.3510985643608
 20
147.41100367912944
 10
-141.21482517646385
 20
147.44121476188647
 10
-141.076437280593
 20
147.4594338740137
 10
-140.93698809219674
 20
147.46552235706693
 10
-140.7975389038005
 20
147.4594338740137
 10
-140.65915100792967
 20
147.44121476188644
 10
-140.52287762003272
 20
147.41100367912946
 10
-140.3897558628757
 20
147.36903055032437
 10
-140.26079887341166
 20
147.31561481632556
 10
-128.13481862686788
 20
141.661177364726
 10
-127.94652675332176
 20
141.58107519545334
 10
-127.73705564823209
 20
141.5090486106504
 10
-127.50686240341444
 20
141.44914016133725
 10
-127.2578413609025
 20
141.4056739298062
 10
-126.9935659873187
 20
141.38277326679665
 10
-126.71927652293924
 20
141.38373818837604
 10
-126.44151784259861
 20
141.41042133204698
 10
-126.16743983148605
 20
141.46279612068926
 10
-125.90391224559067
 20
141.53888063169757
 10
-125.65669655008075
 20
141.63505918098318
 10
-125.42989568024848
 20
141.74669321853708
 10
-125.22578167788922
 20
141.8688219469332
 10
-125.04495864173222
 20
141.99676334907036
 10
-124.88673027491876
 20
142.12650914322663
 10
-124.21099850039046
 20
142.71744060042556
 10
-123.53247062853902
 20
143.30515936423623
 10
-122.85116193361542
 20
143.88965220459949
 10
-122.16708775246937
 20
144.47090596407443
 10
-121.48026348420413
 20
145.0489075581348
 10
-120.79070458982977
 20
145.62364397546327
 10
-120.09842659191507
 20
146.19510227824455
 10
-119.40344507423838
 20
146.7632696024565
 10
-118.70577568143649
 20
147.32813315815986
 10
-118.00543411865262
 20
147.88968022978594
 10
-117.30243615118285
 20
148.44789817642305
 10
-116.59679760412126
 20
149.002774432101
 10
-115.88853436200364
 20
149.554296506074
 10
-115.17766236845
 20
150.1024519831016
 10
-114.46419762580551
 20
150.6472285237287
 10
-113.74815619478042
 20
151.18861386456268
 10
-113.02955419408848
 20
151.72659581854992
 10
-112.30840780008408
 20
152.26116227525
 10
-111.58473324639812
 20
152.79230120110822
 10
-110.85854682357255
 20
153.32000063972663
 10
-110.12986487869368
 20
153.84424871213312
 10
-109.39870381502416
 20
154.36503361704882
 10
-108.66508009163381
 20
154.8823436311538
 10
-107.92901022302902
 20
155.39616710935084
 10
-107.19051077878103
 20
155.90649248502774
 10
-106.44959838315295
 20
156.41330827031769
 10
-105.7062897147255
 20
156.91660305635764
 10
-104.96060150602159
 20
157.41636551354543
 10
-104.79432417778688
 20
157.5356216969525
 10
-104.62394182766023
 20
157.67716966603433
 10
-104.45314594358791
 20
157.84271941155728
 10
-104.28661535906326
 20
158.03289921415248
 10
-104.12972988412706
 20
158.2467983988241
 10
-103.98803193182394
 20
158.48165437949376
 10
-103.86650516170819
 20
158.73283781606148
 10
-103.76884198769513
 20
158.99422599311325
 10
-103.69691860776888
 20
159.25891953055458
 10
-103.6506394497739
 20
159.52011706688367
 10
-103.62817321694783
 20
159.7719028116745
 10
-103.62646193953955
 20
160.00975785952593
 10
-103.64181916658423
 20
160.23073326169404
 10
-103.6704583977147
 20
160.4333412121944
 10
-105.9937909370084
 20
173.60961480321703
 10
-106.01201004913565
 20
173.74800269908783
 10
-106.01809853218886
 20
173.88745188748413
 10
-106.01201004913564
 20
174.02690107588035
 10
-105.99379093700838
 20
174.16528897175118
 10
-105.96357985425136
 20
174.30156235964813
 10
-105.92160672544631
 20
174.43468411680516
 10
-105.86819099144749
 20
174.56364110626922
 10
-105.80373917824396
 20
174.6874518874841
 10
-105.72874180305124
 20
174.80517418564577
 10
-105.64376964117923
 20
174.91591206298256
 10
-105.54946938208732
 20
175.01882273738258
 10
-105.44655870768732
 20
175.11312299647446
 10
-105.33582083035054
 20
175.1980951583465
 10
-105.21809853218886
 20
175.2730925335392
 10
-102.20000000000009
 20
177.0155925335392
 10
-99.18190146781131
 20
178.7580925335392
 10
-99.05809068659644
 20
178.82254434674277
 10
-98.9291336971324
 20
178.87596008074158
 10
-98.79601193997536
 20
178.9179332095466
 10
-98.65973855207841
 20
178.94814429230365
 10
-98.52135065620757
 20
178.9663634044309
 10
-98.38190146781132
 20
178.9724518874841
 10
-98.24245227941508
 20
178.9663634044309
 10
-98.10406438354423
 20
178.94814429230365
 10
-97.96779099564729
 20
178.91793320954662
 10
-97.83466923849025
 20
178.87596008074155
 10
-97.7057122490262
 20
178.82254434674275
 10
-97.58190146781133
 20
178.75809253353924
 10
-97.46417916964964
 20
178.6830951583465
 10
-97.35344129231287
 20
178.5981229964745
 10
-87.10411990492011
 20
169.99792120049582
 10
-86.94297588834333
 20
169.8718149235418
 10
-86.7592841899766
 20
169.74802747370538
 10
-86.55244003741475
 20
169.63058195948813
 10
-86.3231540697021
 20
169.52414541544746
 10
-86.07381078883768
 20
169.4336255737723
 10
-85.80861777123279
 20
169.3635662791938
 10
-85.53341738265054
 20
169.3174509803775
 10
-85.25512276051515
 20
169.29710453225374
 10
-84.98088253887293
 20
169.30239056827762
 10
-84.71719767363044
 20
169.33130778272132
 10
-84.46923184103397
 20
169.3804375981292
 10
-84.24046361378488
 20
169.44557629983615
 10
-84.0326883016426
 20
169.5223577588614
 10
-83.84627075313634
 20
169.60673005748254
 10
-83.04061966500205
 20
170.00263376092875
 10
-82.23309926048547
 20
170.39471055762013
 10
-81.42372771757138
 20
170.78295162156786
 10
-80.61252325591533
 20
171.16734821312886
 10
-79.79950413643341
 20
171.54789167920234
 10
-78.98468866089127
 20
171.92457345342484
 10
-78.16809517149203
 20
172.29738505636286
 10
-77.34974205046355
 20
172.66631809570373
 10
-76.52964771964443
 20
173.03136426644483
 10
-75.70783064006945
 20
173.39251535108014
 10
-74.88430931155396
 20
173.74976321978545
 10
-74.05910227227744
 20
174.10309983060137
 10
-73.23222809836618
 20
174.45251722961427
 10
-72.40370540347513
 20
174.79800755113536
 10
-71.57355283836876
 20
175.13956301787792
 10
-70.74178909050148
 20
175.477175941132
 10
-69.90843288359677
 20
175.8108387209379
 10
-69.07350297722576
 20
176.14054384625697
 10
-68.23701816638487
 20
176.4662838951409
 10
-67.39899728107282
 20
176.78805153489853
 10
-66.55945918586669
 20
177.10583952226122
 10
-65.71842277949723
 20
177.41964070354572
 10
-64.87590699442352
 20
177.7294480148152
 10
-64.03193079640674
 20
178.0352544820384
 10
-63.18651318408319
 20
178.3370532212464
 10
-62.33967318853669
 20
178.63483743868787
 10
-61.49142987287015
 20
178.92860043098167
 10
-60.64180233177638
 20
179.21833558526805
 10
-60.45032499459613
 20
179.2904924734497
 10
-60.24911297207103
 20
179.3831191152825
 10
-60.04128938956847
 20
179.4988226623957
 10
-59.83121104220363
 20
179.6394209584939
 10
-59.62431012746821
 20
179.80542675637693
 10
-59.426655215152806
 20
179.99560608485615
 10
-59.24425831211449
 20
180.2067772107772
 10
-59.08227069167229
 20
180.43398171223836
 10
-58.94429031288215
 20
180.6710408955917
 10
-58.83198518202005
 20
180.91136041421467
 10
-58.745117521476736
 20
181.14875207887246
 10
-58.68190313807443
 20
181.37805950132065
 10
-58.63954443771675
 20
181.59548009208856
 10
-58.61476901443206
 20
181.79859672254202
 10
-57.44866536835558
 20
195.12722238763698
 10
-57.430446256228315
 20
195.2656102835078
 10
-57.400235173471295
 20
195.40188367140476
 10
-57.358262044666226
 20
195.5350054285618
 10
-57.30484631066742
 20
195.66396241802585
 10
-57.24039449746388
 20
195.78777319924075
 10
-57.165397122271166
 20
195.9054954974024
 10
-57.08042496039915
 20
196.01623337473922
 10
-56.986124701307254
 20
196.11914404913918
 10
-56.88321402690725
 20
196.2134443082311
 10
-56.77247614957046
 20
196.29841647010315
 10
-56.65475385140878
 20
196.3734138452958
 10
-56.5309430701939
 20
196.43786565849936
 10
-56.40198608072985
 20
196.4912813924982
 10
-56.268864323572814
 20
196.53325452130323
 10
-52.90261281895541
 20
197.43523889348552
 10
-49.53636131433801
 20
198.3372232656678
 10
-49.40008792644107
 20
198.36743434842487
 10
-49.261700030570225
 20
198.3856534605521
 10
-49.122250842173976
 20
198.3917419436053
 10
-48.98280165377772
 20
198.3856534605521
 10
-48.844413757906885
 20
198.3674343484248
 10
-48.708140370009936
 20
198.3372232656678
 10
-48.57501861285291
 20
198.29525013686276
 10
-48.44606162338885
 20
198.24183440286396
 10
-48.32225084217397
 20
198.1773825896604
 10
-48.2045285440123
 20
198.1023852144677
 10
-48.09379066667551
 20
198.01741305259569
 10
-47.9908799922755
 20
197.9231127935038
 10
-47.89657973318361
 20
197.82020211910375
 10
-47.8116075713116
 20
197.709464241767
 10
-40.13741935781619
 20
186.74958764129974
 10
-40.01440489663541
 20
186.5860711910383
 10
-39.86901089067041
 20
186.4189587863063
 10
-39.69961191753534
 20
186.25197992489097
 10
-39.50568648440863
 20
186.08982654292234
 10
-39.28826762879522
 20
185.93785630020065
 10
-39.05024352386249
 20
185.8015472146113
 10
-38.796355878730374
 20
185.68577615471287
 10
-38.53280996416706
 20
185.59409504663864
 10
-38.266546124679515
 20
185.5282223730587
 10
-38.0043617775109
 20
185.4879075922842
 10
-37.752129443858784
 20
185.47118506981673
 10
-37.514297168349486
 20
185.47489464996005
 10
-37.293729124379496
 20
185.49528363632814
 10
-37.09182644204157
 20
185.5285326066949
 10
-36.21115983055628
 20
185.7024283732604
 10
-35.329678074451806
 20
185.8721438170755
 10
-34.44740101664711
 20
186.0376751176984
 10
-33.564348517964135
 20
186.19901854887593
 10
-32.6805404566806
 20
186.35617047862746
 10
-31.795996728082645
 20
186.5091273693268
 10
-30.91073724401687
 20
186.65788577778156
 10
-30.024781932442206
 20
186.802442355311
 10
-29.13815073698122
 20
186.94279384782115
 10
-28.250863616471246
 20
187.07893709587816
 10
-27.362940544515038
 20
187.21086903477942
 10
-26.474401509031182
 20
187.33858669462253
 10
-25.585266511804118
 20
187.46208720037222
 10
-24.695555568033758
 20
187.5813677719249
  0
CIRCLE
  5
35
330
17
100
AcDbEntity
  8
HOLES
100
AcDbCircle
 10
0.0
 20
0.0
 30
0.0
 40
37.5
  0
CIRCLE
  5
36
330
17
100
AcDbEntity
  8
HOLES
100
AcDbCircle
 10
47.5
 20
0.0
 30
0.0
 40
4.75
  0
LINE
  5
37
330
17
100
AcDbEntity
  8
AXIS
100
AcDbLine
 10
41.5
 20
0.0
 30
0.0
 11
53.5
 21
0.0
 31
0.0
  0
LINE
  5
38
330
17
100
AcDbEntity
  8
AXIS
100
AcDbLine
 10
47.5
 20
-6.0
 30
0.0
 11
47.5
 21
6.0
 31
0.0
  0
CIRCLE
  5
39
330
17
100
AcDbEntity
  8
HOLES
100
AcDbCircle
 10
36.38711104815145
 20
30.532411460110616
 30
0.0
 40
4.75
  0
LINE
  5
3A
330
17
100
AcDbEntity
  8
AXIS
100
AcDbLine
 10
30.387111048151453
 20
30.532411460110616
 30
0.0
 11
42.38711104815145
 21
30.532411460110616
 31
0.0
  0
LINE
  5
3B
330
17
100
AcDbEntity
  8
AXIS
100
AcDbLine
 10
36.38711104815145
 20
24.532411460110616
 30
0.0
 11
36.38711104815145
 21
36.532411460110616
 31
0.0
  0
CIRCLE
  5
3C
330
17
100
AcDbEntity
  8
HOLES
100
AcDbCircle
 10
8.248288439179195
 20
46.77836826807988
 30
0.0
 40
4.75
  0
LINE
  5
3D
330
17
100
AcDbEntity
  8
AXIS
100
AcDbLine
 10
2.248288439179195
 20
46.77836826807988
 30
0.0
 11
14.248288439179195
 21
46.77836826807988
 31
0.0
  0
LINE
  5
3E
330
17
100
AcDbEntity
  8
AXIS
100
AcDbLine
 10
8.248288439179195
 20
40.77836826807988
 30
0.0
 11
8.248288439179195
 21
52.77836826807988
 31
0.0
  0
CIRCLE
  5
3F
330
17
100
AcDbEntity
  8
HOLES
100
AcDbCircle
 10
-23.74999999999999
 20
41.13620667976084
 30
0.0
 40
4.75
  0
LINE
  5
40
330
17
100
AcDbEntity
  8
AXIS
100
AcDbLine
 10
-29.74999999999999
 20
41.13620667976084
 30
0.0
 11
-17.74999999999999
 21
41.13620667976084
 31
0.0
  0
LINE
  5
41
330
17
100
AcDbEntity
  8
AXIS
100
AcDbLine
 10
-23.74999999999999
 20
35.13620667976084
 30
0.0
 11
-23.74999999999999
 21
47.13620667976084
 31
0.0
  0
CIRCLE
  5
42
330
17
100
AcDbEntity
  8
HOLES
100
AcDbCircle
 10
-44.635399487330645
 20
16.24595680796927
 30
0.0
 40
4.75
  0
LINE
  5
43
330
17
100
AcDbEntity
  8
AXIS
100
AcDbLine
 10
-50.635399487330645
 20
16.24595680796927
 30
0.0
 11
-38.635399487330645
 21
16.24595680796927
 31
0.0
  0
LINE
  5
44
330
17
100
AcDbEntity
  8
AXIS
100
AcDbLine
 10
-44.635399487330645
 20
10.245956807969272
 30
0.0
 11
-44.635399487330645
 21
22.24595680796927
 31
0.0
  0
CIRCLE
  5
45
330
17
100
AcDbEntity
  8
HOLES
100
AcDbCircle
 10
-44.63539948733065
 20
-16.24595680796926
 30
0.0
 40
4.75
  0
LINE
  5
46
330
17
100
AcDbEntity
  8
AXIS
100
AcDbLine
 10
-50.63539948733065
 20
-16.24595680796926
 30
0.0
 11
-38.63539948733065
 21
-16.24595680796926
 31
0.0
  0
LINE
  5
47
330
17
100
AcDbEntity
  8
AXIS
100
AcDbLine
 10
-44.63539948733065
 20
-22.24595680796926
 30
0.0
 11
-44.63539948733065
 21
-10.245956807969261
 31
0.0
  0
CIRCLE
  5
48
330
17
100
AcDbEntity
  8
HOLES
100
AcDbCircle
 10
-23.75000000000002
 20
-41.136206679760825
 30
0.0
 40
4.75
  0
LINE
  5
49
330
17
100
AcDbEntity
  8
AXIS
100
AcDbLine
 10
-29.75000000000002
 20
-41.136206679760825
 30
0.0
 11
-17.75000000000002
 21
-41.136206679760825
 31
0.0
  0
LINE
  5
4A
330
17
100
AcDbEntity
  8
AXIS
100
AcDbLine
 10
-23.75000000000002
 20
-47.136206679760825
 30
0.0
 11
-23.75000000000002
 21
-35.136206679760825
 31
0.0
  0
CIRCLE
  5
4B
330
17
100
AcDbEntity
  8
HOLES
100
AcDbCircle
 10
8.248288439179174
 20
-46.77836826807989
 30
0.0
 40
4.75
  0
LINE
  5
4C
330
17
100
AcDbEntity
  8
AXIS
100
AcDbLine
 10
2.2482884391791735
 20
-46.77836826807989
 30
0.0
 11
14.248288439179174
 21
-46.77836826807989
 31
0.0
  0
LINE
  5
4D
330
17
100
AcDbEntity
  8
AXIS
100
AcDbLine
 10
8.248288439179174
 20
-52.77836826807989
 30
0.0
 11
8.248288439179174
 21
-40.77836826807989
 31
0.0
  0
CIRCLE
  5
4E
330
17
100
AcDbEntity
  8
HOLES
100
AcDbCircle
 10
36.387111048151446
 20
-30.53241146011063
 30
0.0
 40
4.75
  0
LINE
  5
4F
330
17
100
AcDbEntity
  8
AXIS
100
AcDbLine
 10
30.387111048151446
 20
-30.53241146011063
 30
0.0
 11
42.387111048151446
 21
-30.53241146011063
 31
0.0
  0
LINE
  5
50
330
17
100
AcDbEntity
  8
AXIS
100
AcDbLine
 10
36.387111048151446
 20
-36.53241146011063
 30
0.0
 11
36.387111048151446
 21
-24.53241146011063
 31
0.0
  0
LINE
  5
51
330
17
100
AcDbEntity
  8
AXIS
100
AcDbLine
 10
-215.0
 20
0.0
 30
0.0
 11
215.0
 21
0.0
 31
0.0
  0
LINE
  5
52
330
17
100
AcDbEntity
  8
AXIS
100
AcDbLine
 10
0.0
 20
-215.0
 30
0.0
 11
0.0
 21
215.0
 31
0.0
  0
CIRCLE
  5
53
330
17
100
AcDbEntity
  8
PITCH_CIRCLE
100
AcDbCircle
 10
0.0
 20
0.0
 30
0.0
 40
193.44776378239484
  0
CIRCLE
  5
54
330
17
100
AcDbEntity
  8
ROOT_CIRCLE
100
AcDbCircle
 10
0.0
 20
0.0
 30
0.0
 40
189.2
  0
ENDSEC
  0
SECTION
  2
OBJECTS
  0
DICTIONARY
  5
A
330
0
100
AcDbDictionary
281
1
  3
ACAD_COLOR
350
B
  3
ACAD_GROUP
350
C
  3
ACAD_LAYOUT
350
D
  3
ACAD_MATERIAL
350
E
  3
ACAD_MLEADERSTYLE
350
F
  3
ACAD_MLINESTYLE
350
10
  3
ACAD_PLOTSETTINGS
350
11
  3
ACAD_PLOTSTYLENAME
350
12
  3
ACAD_SCALELIST
350
14
  3
ACAD_TABLESTYLE
350
15
  3
ACAD_VISUALSTYLE
350
16
  3
EZDXF_META
350
2D
  0
DICTIONARY
  5
B
330
A
100
AcDbDictionary
281
1
  0
DICTIONARY
  5
C
330
A
100
AcDbDictionary
281
1
  0
DICTIONARY
  5
D
330
A
100
AcDbDictionary
281
1
  3
Model
350
1A
  3
Layout1
350
1E
  0
DICTIONARY
  5
E
330
A
100
AcDbDictionary
281
1
  3
ByBlock
350
1F
  3
ByLayer
350
20
  3
Global
350
21
  0
DICTIONARY
  5
F
330
A
100
AcDbDictionary
281
1
  3
Standard
350
2C
  0
DICTIONARY
  5
10
330
A
100
AcDbDictionary
281
1
  3
Standard
350
22
  0
DICTIONARY
  5
11
330
A
100
AcDbDictionary
281
1
  0
ACDBDICTIONARYWDFLT
  5
12
330
A
100
AcDbDictionary
281
1
  3
Normal
350
13
100
AcDbDictionaryWithDefault
340
13
  0
ACDBPLACEHOLDER
  5
13
330
12
  0
DICTIONARY
  5
14
330
A
100
AcDbDictionary
281
1
  0
DICTIONARY
  5
15
330
A
100
AcDbDictionary
281
1
  0
DICTIONARY
  5
16
330
A
100
AcDbDictionary
281
1
  0
LAYOUT
  5
1A
330
D
100
AcDbPlotSettings
  1

  4
A3
  6

 40
7.5
 41
20.0
 42
7.5
 43
20.0
 44
420.0
 45
297.0
 46
0.0
 47
0.0
 48
0.0
 49
0.0
140
0.0
141
0.0
142
1.0
143
1.0
 70
1024
 72
1
 73
0
 74
5
  7

 75
16
 76
0
 77
2
 78
300
147
1.0
148
0.0
149
0.0
100
AcDbLayout
  1
Model
 70
1
 71
0
 10
0.0
 20
0.0
 11
420.0
 21
297.0
 12
0.0
 22
0.0
 32
0.0
 14
1e+20
 24
1e+20
 34
1e+20
 15
-1e+20
 25
-1e+20
 35
-1e+20
146
0.0
 13
0.0
 23
0.0
 33
0.0
 16
1.0
 26
0.0
 36
0.0
 17
0.0
 27
1.0
 37
0.0
 76
1
330
17
  0
LAYOUT
  5
1E
330
D
100
AcDbPlotSettings
  1

  4
A3
  6

 40
7.5
 41
20.0
 42
7.5
 43
20.0
 44
420.0
 45
297.0
 46
0.0
 47
0.0
 48
0.0
 49
0.0
140
0.0
141
0.0
142
1.0
143
1.0
 70
0
 72
1
 73
0
 74
5
  7

 75
16
 76
0
 77
2
 78
300
147
1.0
148
0.0
149
0.0
100
AcDbLayout
  1
Layout1
 70
1
 71
1
 10
0.0
 20
0.0
 11
420.0
 21
297.0
 12
0.0
 22
0.0
 32
0.0
 14
1e+20
 24
1e+20
 34
1e+20
 15
-1e+20
 25
-1e+20
 35
-1e+20
146
0.0
 13
0.0
 23
0.0
 33
0.0
 16
1.0
 26
0.0
 36
0.0
 17
0.0
 27
1.0
 37
0.0
 76
1
330
1B
  0
MATERIAL
  5
1F
102
{ACAD_REACTORS
330
E
102
}
330
E
100
AcDbMaterial
  1
ByBlock
  2

 70
0
 40
1.0
 71
1
 41
1.0
 91
-1023410177
 42
1.0
 72
1
  3

 73
1
 74
1
 75
1
 44
0.5
 73
0
 45
1.0
 46
1.0
 77
1
  4

 78
1
 79
1
170
1
 48
1.0
171
1
  6

172
1
173
1
174
1
140
1.0
141
1.0
175
1
  7

176
1
177
1
178
1
143
1.0
179
1
  8

270
1
271
1
272
1
145
1.0
146
1.0
273
1
  9

274
1
275
1
276
1
 42
1.0
 72
1
  3

 73
1
 74
1
 75
1
 94
63
  0
MATERIAL
  5
20
102
{ACAD_REACTORS
330
E
102
}
330
E
100
AcDbMaterial
  1
ByLayer
  2

 70
0
 40
1.0
 71
1
 41
1.0
 91
-1023410177
 42
1.0
 72
1
  3

 73
1
 74
1
 75
1
 44
0.5
 73
0
 45
1.0
 46
1.0
 77
1
  4

 78
1
 79
1
170
1
 48
1.0
171
1
  6

172
1
173
1
174
1
140
1.0
141
1.0
175
1
  7

176
1
177
1
178
1
143
1.0
179
1
  8

270
1
271
1
272
1
145
1.0
146
1.0
273
1
  9

274
1
275
1
276
1
 42
1.0
 72
1
  3

 73
1
 74
1
 75
1
 94
63
  0
MATERIAL
  5
21
102
{ACAD_REACTORS
330
E
102
}
330
E
100
AcDbMaterial
  1
Global
  2

 70
0
 40
1.0
 71
1
 41
1.0
 91
-1023410177
 42
1.0
 72
1
  3

 73
1
 74
1
 75
1
 44
0.5
 73
0
 45
1.0
 46
1.0
 77
1
  4

 78
1
 79
1
170
1
 48
1.0
171
1
  6

172
1
173
1
174
1
140
1.0
141
1.0
175
1
  7

176
1
177
1
178
1
143
1.0
179
1
  8

270
1
271
1
272
1
145
1.0
146
1.0
273
1
  9

274
1
275
1
276
1
 42
1.0
 72
1
  3

 73
1
 74
1
 75
1
 94
63
  0
MLINESTYLE
  5
22
102
{ACAD_REACTORS
330
10
102
}
330
10
100
AcDbMlineStyle
  2
Standard
 70
0
  3

 62
256
 51
90.0
 52
90.0
 71
2
 49
0.5
 62
256
  6
BYLAYER
 49
-0.5
 62
256
  6
BYLAYER
  0
MLEADERSTYLE
  5
2C
102
{ACAD_REACTORS
330
F
102
}
330
F
100
AcDbMLeaderStyle
179
2
170
2
171
1
172
0
 90
2
 40
0.0
 41
0.0
173
1
 91
-1056964608
 92
-2
290
1
 42
2.0
291
1
 43
8.0
  3
Standard
 44
4.0
300

342
29
174
1
175
1
176
0
178
1
 93
-1056964608
 45
4.0
292
0
297
0
 46
4.0
 94
-1056964608
 47
1.0
 49
1.0
140
1.0
294
1
141
0.0
177
0
142
1.0
295
0
296
0
143
3.75
271
0
272
9
273
9
  0
DICTIONARY
  5
2D
330
A
100
AcDbDictionary
280
1
281
1
  3
CREATED_BY_EZDXF
350
2E
  3
WRITTEN_BY_EZDXF
350
57
  0
DICTIONARYVAR
  5
2E
330
2D
100
DictionaryVariables
280
0
  1
1.4.4 @ 2026-10-04T17:54:20.634643+00:00
  0
DICTIONARYVAR
  5
57
330
2D
100
DictionaryVariables
280
0
  1
1.4.4 @ 2026-10-04T17:54:20.647430+00:00
  0
ENDSEC
  0
EOF
