  0
SECTION
  2
HEADER
  9
$ACADVER
  1
AC1024
  9
$ACADMAINTVER
 70
6
  9
$DWGCODEPAGE
  3
ANSI_1252
  9
$LASTSAVEDBY
  1
ezdxf
  9
$INSBASE
 10
0.0
 20
0.0
 30
0.0
  9
$EXTMIN
 10
1e+20
 20
1e+20
 30
1e+20
  9
$EXTMAX
 10
-1e+20
 20
-1e+20
 30
-1e+20
  9
$LIMMIN
 10
0.0
 20
0.0
  9
$LIMMAX
 10
420.0
 20
297.0
  9
$ORTHOMODE
 70
0
  9
$REGENMODE
 70
1
  9
$FILLMODE
 70
1
  9
$QTEXTMODE
 70
0
  9
$MIRRTEXT
 70
1
  9
$LTSCALE
 40
1.0
  9
$ATTMODE
 70
1
  9
$TEXTSIZE
 40
2.5
  9
$TRACEWID
 40
1.0
  9
$TEXTSTYLE
  7
Standard
  9
$CLAYER
  8
0
  9
$CELTYPE
  6
ByLayer
  9
$CECOLOR
 62
256
  9
$CELTSCALE
 40
1.0
  9
$DISPSILH
 70
0
  9
$DIMSCALE
 40
1.0
  9
$DIMASZ
 40
2.5
  9
$DIMEXO
 40
0.625
  9
$DIMDLI
 40
3.75
  9
$DIMRND
 40
0.0
  9
$DIMDLE
 40
0.0
  9
$DIMEXE
 40
1.25
  9
$DIMTP
 40
0.0
  9
$DIMTM
 40
0.0
  9
$DIMTXT
 40
2.5
  9
$DIMCEN
 40
2.5
  9
$DIMTSZ
 40
0.0
  9
$DIMTOL
 70
0
  9
$DIMLIM
 70
0
  9
$DIMTIH
 70
0
  9
$DIMTOH
 70
0
  9
$DIMSE1
 70
0
  9
$DIMSE2
 70
0
  9
$DIMTAD
 70
1
  9
$DIMZIN
 70
8
  9
$DIMBLK
  1

  9
$DIMASO
 70
1
  9
$DIMSHO
 70
1
  9
$DIMPOST
  1

  9
$DIMAPOST
  1

  9
$DIMALT
 70
0
  9
$DIMALTD
 70
3
  9
$DIMALTF
 40
0.03937007874
  9
$DIMLFAC
 40
1.0
  9
$DIMTOFL
 70
1
  9
$DIMTVP
 40
0.0
  9
$DIMTIX
 70
0
  9
$DIMSOXD
 70
0
  9
$DIMSAH
 70
0
  9
$DIMBLK1
  1

  9
$DIMBLK2
  1

  9
$DIMSTYLE
  2
ISO-25
  9
$DIMCLRD
 70
0
  9
$DIMCLRE
 70
0
  9
$DIMCLRT
 70
0
  9
$DIMTFAC
 40
1.0
  9
$DIMGAP
 40
0.625
  9
$DIMJUST
 70
0
  9
$DIMSD1
 70
0
  9
$DIMSD2
 70
0
  9
$DIMTOLJ
 70
0
  9
$DIMTZIN
 70
8
  9
$DIMALTZ
 70
0
  9
$DIMALTTZ
 70
0
  9
$DIMUPT
 70
0
  9
$DIMDEC
 70
2
  9
$DIMTDEC
 70
2
  9
$DIMALTU
 70
2
  9
$DIMALTTD
 70
3
  9
$DIMTXSTY
  7
Standard
  9
$DIMAUNIT
 70
0
  9
$DIMADEC
 70
0
  9
$DIMALTRND
 40
0.0
  9
$DIMAZIN
 70
0
  9
$DIMDSEP
 70
44
  9
$DIMATFIT
 70
3
  9
$DIMFRAC
 70
0
  9
$DIMLDRBLK
  1

  9
$DIMLUNIT
 70
2
  9
$DIMLWD
 70
-2
  9
$DIMLWE
 70
-2
  9
$DIMTMOVE
 70
0
  9
$DIMFXL
 40
1.0
  9
$DIMFXLON
 70
0
  9
$DIMJOGANG
 40
0.785398163397
  9
$DIMTFILL
 70
0
  9
$DIMTFILLCLR
 70
0
  9
$DIMARCSYM
 70
0
  9
$DIMLTYPE
  6

  9
$DIMLTEX1
  6

  9
$DIMLTEX2
  6

  9
$DIMTXTDIRECTION
 70
0
  9
$LUNITS
 70
2
  9
$LUPREC
 70
4
  9
$SKETCHINC
 40
1.0
  9
$FILLETRAD
 40
10.0
  9
$AUNITS
 70
0
  9
$AUPREC
 70
2
  9
$MENU
  1
.
  9
$ELEVATION
 40
0.0
  9
$PELEVATION
 40
0.0
  9
$THICKNESS
 40
0.0
  9
$LIMCHECK
 70
0
  9
$CHAMFERA
 40
0.0
  9
$CHAMFERB
 40
0.0
  9
$CHAMFERC
 40
0.0
  9
$CHAMFERD
 40
0.0
  9
$SKPOLY
 70
0
  9
$TDCREATE
 40
2461318.705405093
  9
$TDUCREATE
 40
2458532.153996898
  9
$TDUPDATE
 40
2461318.705405093
  9
$TDUUPDATE
 40
2458532.1544311
  9
$TDINDWG
 40
0.0
  9
$TDUSRTIMER
 40
0.0
  9
$USRTIMER
 70
1
  9
$ANGBASE
 50
0.0
  9
$ANGDIR
 70
0
  9
$PDMODE
 70
0
  9
$PDSIZE
 40
0.0
  9
$PLINEWID
 40
0.0
  9
$SPLFRAME
 70
0
  9
$SPLINETYPE
 70
6
  9
$SPLINESEGS
 70
8
  9
$HANDSEED
  5
4B
  9
$SURFTAB1
 70
6
  9
$SURFTAB2
 70
6
  9
$SURFTYPE
 70
6
  9
$SURFU
 70
6
  9
$SURFV
 70
6
  9
$UCSBASE
  2

  9
$UCSNAME
  2

  9
$UCSORG
 10
0.0
 20
0.0
 30
0.0
  9
$UCSXDIR
 10
1.0
 20
0.0
 30
0.0
  9
$UCSYDIR
 10
0.0
 20
1.0
 30
0.0
  9
$UCSORTHOREF
  2

  9
$UCSORTHOVIEW
 70
0
  9
$UCSORGTOP
 10
0.0
 20
0.0
 30
0.0
  9
$UCSORGBOTTOM
 10
0.0
 20
0.0
 30
0.0
  9
$UCSORGLEFT
 10
0.0
 20
0.0
 30
0.0
  9
$UCSORGRIGHT
 10
0.0
 20
0.0
 30
0.0
  9
$UCSORGFRONT
 10
0.0
 20
0.0
 30
0.0
  9
$UCSORGBACK
 10
0.0
 20
0.0
 30
0.0
  9
$PUCSBASE
  2

  9
$PUCSNAME
  2

  9
$PUCSORG
 10
0.0
 20
0.0
 30
0.0
  9
$PUCSXDIR
 10
1.0
 20
0.0
 30
0.0
  9
$PUCSYDIR
 10
0.0
 20
1.0
 30
0.0
  9
$PUCSORTHOREF
  2

  9
$PUCSORTHOVIEW
 70
0
  9
$PUCSORGTOP
 10
0.0
 20
0.0
 30
0.0
  9
$PUCSORGBOTTOM
 10
0.0
 20
0.0
 30
0.0
  9
$PUCSORGLEFT
 10
0.0
 20
0.0
 30
0.0
  9
$PUCSORGRIGHT
 10
0.0
 20
0.0
 30
0.0
  9
$PUCSORGFRONT
 10
0.0
 20
0.0
 30
0.0
  9
$PUCSORGBACK
 10
0.0
 20
0.0
 30
0.0
  9
$USERI1
 70
0
  9
$USERI2
 70
0
  9
$USERI3
 70
0
  9
$USERI4
 70
0
  9
$USERI5
 70
0
  9
$USERR1
 40
0.0
  9
$USERR2
 40
0.0
  9
$USERR3
 40
0.0
  9
$USERR4
 40
0.0
  9
$USERR5
 40
0.0
  9
$WORLDVIEW
 70
1
  9
$SHADEDGE
 70
3
  9
$SHADEDIF
 70
70
  9
$TILEMODE
 70
1
  9
$MAXACTVP
 70
64
  9
$PINSBASE
 10
0.0
 20
0.0
 30
0.0
  9
$PLIMCHECK
 70
0
  9
$PEXTMIN
 10
1e+20
 20
1e+20
 30
1e+20
  9
$PEXTMAX
 10
-1e+20
 20
-1e+20
 30
-1e+20
  9
$PLIMMIN
 10
0.0
 20
0.0
  9
$PLIMMAX
 10
420.0
 20
297.0
  9
$UNITMODE
 70
0
  9
$VISRETAIN
 70
1
  9
$PLINEGEN
 70
0
  9
$PSLTSCALE
 70
1
  9
$TREEDEPTH
 70
3020
  9
$CMLSTYLE
  2
Standard
  9
$CMLJUST
 70
0
  9
$CMLSCALE
 40
20.0
  9
$PROXYGRAPHICS
 70
1
  9
$MEASUREMENT
 70
1
  9
$CELWEIGHT
370
-1
  9
$ENDCAPS
280
0
  9
$JOINSTYLE
280
0
  9
$LWDISPLAY
290
0
  9
$INSUNITS
 70
6
  9
$HYPERLINKBASE
  1

  9
$STYLESHEET
  1

  9
$XEDIT
290
1
  9
$CEPSNTYPE
380
0
  9
$PSTYLEMODE
290
1
  9
$FINGERPRINTGUID
  2
{A0092BF2-FEC5-4C80-B5FC-27E4F007F4BC}
  9
$VERSIONGUID
  2
{F984C77E-2CD0-4C28-A702-15773E66629A}
  9
$EXTNAMES
290
1
  9
$PSVPSCALE
 40
0.0
  9
$OLESTARTUP
290
0
  9
$SORTENTS
280
127
  9
$INDEXCTL
280
0
  9
$HIDETEXT
280
1
  9
$XCLIPFRAME
280
1
  9
$HALOGAP
280
0
  9
$OBSCOLOR
 70
257
  9
$OBSLTYPE
280
0
  9
$INTERSECTIONDISPLAY
280
0
  9
$INTERSECTIONCOLOR
 70
257
  9
$DIMASSOC
280
2
  9
$PROJECTNAME
  1

  9
$CAMERADISPLAY
290
0
  9
$LENSLENGTH
 40
50.0
  9
$CAMERAHEIGHT
 40
0.0
  9
$STEPSPERSEC
 40
24.0
  9
$STEPSIZE
 40
100.0
  9
$3DDWFPREC
 40
2.0
  9
$PSOLWIDTH
 40
0.005
  9
$PSOLHEIGHT
 40
0.08
  9
$LOFTANG1
 40
1.570796326795
  9
$LOFTANG2
 40
1.570796326795
  9
$LOFTMAG1
 40
0.0
  9
$LOFTMAG2
 40
0.0
  9
$LOFTPARAM
 70
7
  9
$LOFTNORMALS
280
1
  9
$LATITUDE
 40
37.795
  9
$LONGITUDE
 40
-122.394
  9
$NORTHDIRECTION
 40
0.0
  9
$TIMEZONE
 70
-8000
  9
$LIGHTGLYPHDISPLAY
280
1
  9
$TILEMODELIGHTSYNCH
280
1
  9
$CMATERIAL
347
20
  9
$SOLIDHIST
280
0
  9
$SHOWHIST
280
1
  9
$DWFFRAME
280
2
  9
$DGNFRAME
280
2
  9
$REALWORLDSCALE
290
1
  9
$INTERFERECOLOR
 62
256
  9
$CSHADOW
280
0
  9
$SHADOWPLANELOCATION
 40
0.0
  0
ENDSEC
  0
SECTION
  2
CLASSES
  0
CLASS
  1
ACDBDICTIONARYWDFLT
  2
AcDbDictionaryWithDefault
  3
ObjectDBX Classes
 90
0
 91
0
280
0
281
0
  0
CLASS
  1
SUN
  2
AcDbSun
  3
SCENEOE
 90
1153
 91
0
280
0
281
0
  0
CLASS
  1
VISUALSTYLE
  2
AcDbVisualStyle
  3
ObjectDBX Classes
 90
4095
 91
0
280
0
281
0
  0
CLASS
  1
MATERIAL
  2
AcDbMaterial
  3
ObjectDBX Classes
 90
1153
 91
0
280
0
281
0
  0
CLASS
  1
SCALE
  2
AcDbScale
  3
ObjectDBX Classes
 90
1153
 91
0
280
0
281
0
  0
CLASS
  1
TABLESTYLE
  2
AcDbTableStyle
  3
ObjectDBX Classes
 90
4095
 91
0
280
0
281
0
  0
CLASS
  1
MLEADERSTYLE
  2
AcDbMLeaderStyle
  3
ACDB_MLEADERSTYLE_CLASS
 90
4095
 91
0
280
0
281
0
  0
CLASS
  1
DICTIONARYVAR
  2
AcDbDictionaryVar
  3
ObjectDBX Classes
 90
0
 91
0
280
0
281
0
  0
CLASS
  1
CELLSTYLEMAP
  2
AcDbCellStyleMap
  3
ObjectDBX Classes
 90
1152
 91
0
280
0
281
0
  0
CLASS
  1
MENTALRAYRENDERSETTINGS
  2
AcDbMentalRayRenderSettings
  3
SCENEOE
 90
1024
 91
0
280
0
281
0
  0
CLASS
  1
ACDBDETAILVIEWSTYLE
  2
AcDbDetailViewStyle
  3
ObjectDBX Classes
 90
1025
 91
0
280
0
281
0
  0
CLASS
  1
ACDBSECTIONVIEWSTYLE
  2
AcDbSectionViewStyle
  3
ObjectDBX Classes
 90
1025
 91
0
280
0
281
0
  0
CLASS
  1
RASTERVARIABLES
  2
AcDbRasterVariables
  3
ISM
 90
0
 91
0
280
0
281
0
  0
CLASS
  1
ACDBPLACEHOLDER
  2
AcDbPlaceHolder
  3
ObjectDBX Classes
 90
0
 91
0
280
0
281
0
  0
CLASS
  1
LAYOUT
  2
AcDbLayout
  3
ObjectDBX Classes
 90
0
 91
0
280
0
281
0
  0
ENDSEC
  0
SECTION
  2
TABLES
  0
TABLE
  2
VPORT
  5
8
330
0
100
AcDbSymbolTable
 70
1
  0
VPORT
  5
23
330
8
100
AcDbSymbolTableRecord
100
AcDbViewportTableRecord
  2
*Active
 70
0
 10
0.0
 20
0.0
 11
1.0
 21
1.0
 12
0.0
 22
0.0
 13
0.0
 23
0.0
 14
0.5
 24
0.5
 15
0.5
 25
0.5
 16
0.0
 26
0.0
 36
1.0
 17
0.0
 27
0.0
 37
0.0
 40
1000.0
 41
1.34
 42
50.0
 43
0.0
 44
0.0
 50
0.0
 51
0.0
 71
0
 72
1000
 73
1
 74
3
 75
0
 76
0
 77
0
 78
0
281
0
 65
0
146
0.0
  0
ENDTAB
  0
TABLE
  2
LTYPE
  5
2
330
0
100
AcDbSymbolTable
 70
3
  0
LTYPE
  5
24
330
2
100
AcDbSymbolTableRecord
100
AcDbLinetypeTableRecord
  2
ByBlock
 70
0
  3

 72
65
 73
0
 40
0.0
  0
LTYPE
  5
25
330
2
100
AcDbSymbolTableRecord
100
AcDbLinetypeTableRecord
  2
ByLayer
 70
0
  3

 72
65
 73
0
 40
0.0
  0
LTYPE
  5
26
330
2
100
AcDbSymbolTableRecord
100
AcDbLinetypeTableRecord
  2
Continuous
 70
0
  3

 72
65
 73
0
 40
0.0
  0
ENDTAB
  0
TABLE
  2
LAYER
  5
1
330
0
100
AcDbSymbolTable
 70
9
  0
LAYER
  5
27
330
1
100
AcDbSymbolTableRecord
100
AcDbLayerTableRecord
  2
0
 70
0
 62
7
  6
Continuous
370
-3
390
13
347
21
  0
LAYER
  5
28
330
1
100
AcDbSymbolTableRecord
100
AcDbLayerTableRecord
  2
Defpoints
 70
0
 62
7
  6
Continuous
290
0
370
-3
390
13
347
21
  0
LAYER
  5
2F
330
1
100
AcDbSymbolTableRecord
100
AcDbLayerTableRecord
  2
CONTOUR
 70
0
 62
7
  6
Continuous
370
50
390
13
347
21
  0
LAYER
  5
30
330
1
100
AcDbSymbolTableRecord
100
AcDbLayerTableRecord
  2
HOLES
 70
0
 62
7
  6
Continuous
370
50
390
13
347
21
  0
LAYER
  5
31
330
1
100
AcDbSymbolTableRecord
100
AcDbLayerTableRecord
  2
RECESS
 70
0
 62
4
  6
Continuous
370
25
390
13
347
21
  0
LAYER
  5
32
330
1
100
AcDbSymbolTableRecord
100
AcDbLayerTableRecord
  2
PITCH_CIRCLE
 70
0
 62
1
  6
DASHDOT
370
18
390
13
347
21
  0
LAYER
  5
33
330
1
100
AcDbSymbolTableRecord
100
AcDbLayerTableRecord
  2
ROOT_CIRCLE
 70
0
 62
8
  6
DASHED
370
13
390
13
347
21
  0
LAYER
  5
34
330
1
100
AcDbSymbolTableRecord
100
AcDbLayerTableRecord
  2
TIP_CIRCLE
 70
0
 62
8
  6
DASHED
370
13
390
13
347
21
  0
LAYER
  5
35
330
1
100
AcDbSymbolTableRecord
100
AcDbLayerTableRecord
  2
AXES
 70
0
 62
1
  6
CENTER
370
18
390
13
347
21
  0
ENDTAB
  0
TABLE
  2
STYLE
  5
5
330
0
100
AcDbSymbolTable
 70
1
  0
STYLE
  5
29
330
5
100
AcDbSymbolTableRecord
100
AcDbTextStyleTableRecord
  2
Standard
 70
0
 40
0.0
 41
1.0
 50
0.0
 71
0
 42
2.5
  3
txt
  4

  0
ENDTAB
  0
TABLE
  2
VIEW
  5
7
330
0
100
AcDbSymbolTable
 70
0
  0
ENDTAB
  0
TABLE
  2
UCS
  5
6
330
0
100
AcDbSymbolTable
 70
0
  0
ENDTAB
  0
TABLE
  2
APPID
  5
3
330
0
100
AcDbSymbolTable
 70
3
  0
APPID
  5
2A
330
3
100
AcDbSymbolTableRecord
100
AcDbRegAppTableRecord
  2
ACAD
 70
0
  0
APPID
  5
48
330
3
100
AcDbSymbolTableRecord
100
AcDbRegAppTableRecord
  2
HATCHBACKGROUNDCOLOR
 70
0
  0
APPID
  5
49
330
3
100
AcDbSymbolTableRecord
100
AcDbRegAppTableRecord
  2
EZDXF
 70
0
  0
ENDTAB
  0
TABLE
  2
DIMSTYLE
  5
4
330
0
100
AcDbSymbolTable
 70
1
100
AcDbDimStyleTable
  0
DIMSTYLE
105
2B
330
4
100
AcDbSymbolTableRecord
100
AcDbDimStyleTableRecord
  2
Standard
 70
0
 40
1.0
 41
2.5
 42
0.625
 43
3.75
 44
1.25
 45
0.0
 46
0.0
 47
0.0
 48
0.0
 49
2.5
140
2.5
141
2.5
142
0.0
143
0.03937007874
144
1.0
145
0.0
146
1.0
147
0.625
148
0.0
 69
0
 70
0
 71
0
 72
0
 73
0
 74
0
 75
0
 76
0
 77
1
 78
8
 79
3
170
0
171
3
172
1
173
0
174
0
175
0
176
0
177
0
178
0
179
2
271
2
272
2
273
2
274
3
275
0
276
0
277
2
278
44
279
0
280
0
281
0
282
0
283
0
284
8
285
0
286
0
288
0
289
3
290
0
371
-2
372
-2
  0
ENDTAB
  0
TABLE
  2
BLOCK_RECORD
  5
9
330
0
100
AcDbSymbolTable
 70
2
  0
BLOCK_RECORD
  5
17
330
9
100
AcDbSymbolTableRecord
100
AcDbBlockTableRecord
  2
*Model_Space
340
1A
 70
0
280
1
281
0
  0
BLOCK_RECORD
  5
1B
330
9
100
AcDbSymbolTableRecord
100
AcDbBlockTableRecord
  2
*Paper_Space
340
1E
 70
0
280
1
281
0
  0
ENDTAB
  0
ENDSEC
  0
SECTION
  2
BLOCKS
  0
BLOCK
  5
18
330
17
100
AcDbEntity
  8
0
100
AcDbBlockBegin
  2
*Model_Space
 70
0
 10
0.0
 20
0.0
 30
0.0
  3
*Model_Space
  1

  0
ENDBLK
  5
19
330
17
100
AcDbEntity
  8
0
100
AcDbBlockEnd
  0
BLOCK
  5
1C
330
1B
100
AcDbEntity
  8
0
100
AcDbBlockBegin
  2
*Paper_Space
 70
0
 10
0.0
 20
0.0
 30
0.0
  3
*Paper_Space
  1

  0
ENDBLK
  5
1D
330
1B
100
AcDbEntity
  8
0
100
AcDbBlockEnd
  0
ENDSEC
  0
SECTION
  2
ENTITIES
  0
LWPOLYLINE
  5
36
330
17
100
AcDbEntity
  8
CONTOUR
100
AcDbPolyline
 90
1680
 70
1
 10
-22.966083521118072
 20
174.44472335872192
 10
-22.085322592771142
 20
174.55841723037372
 10
-21.20399904025641
 20
174.66766422180382
 10
-20.32213531531431
 20
174.77246154994228
 10
-19.439753883446183
 20
174.87280654507444
 10
-18.556877223341974
 20
174.96869665090898
 10
-17.673527826307573
 20
175.06012942464292
 10
-16.78972819569186
 20
175.14710253702398
 10
-16.78972819569186
 20
175.14710253702395
 10
-16.31505633574023
 20
175.23152253332535
 10
-15.860037073676494
 20
175.39088872031755
 10
-15.436422045890733
 20
175.62108519865623
 10
-15.055151821697159
 20
175.9161667578036
 10
-14.726073344763096
 20
176.26851242107227
 10
-14.457685619256385
 20
176.66902227014316
 10
-14.2569202087935
 20
177.1073524657345
 10
-14.2569202087935
 20
177.1073524657345
 10
-12.89255803955499
 20
180.85590671767542
 10
-11.528195870316475
 20
184.60446096961638
 10
-10.163833701077962
 20
188.3530152215573
 10
-8.79947153183945
 20
192.10156947349827
 10
-7.435109362600936
 20
195.85012372543918
 10
-6.070747193362423
 20
199.59867797738013
 10
-4.706385024123909
 20
203.3472322293211
 10
-4.706385024123906
 20
203.3472322293211
 10
-4.588517476921552
 20
203.60000000000002
 10
-4.4285479398568155
 20
203.8284601754985
 10
-4.231337006364914
 20
204.0256711089904
 10
-4.002876830866452
 20
204.1856406460551
 10
-3.7501090601875227
 20
204.30350819325747
 10
-3.480713915133543
 20
204.37569240481955
 10
-3.202876830866456
 20
204.4
 10
-3.202876830866456
 20
204.4
 10
-1.9217260985198736
 20
204.4
 10
-0.6405753661732909
 20
204.4
 10
0.6405753661732918
 20
204.4
 10
1.921726098519874
 20
204.4
 10
3.202876830866456
 20
204.4
 10
3.202876830866456
 20
204.4
 10
3.480713915133543
 20
204.37569240481955
 10
3.7501090601875227
 20
204.30350819325747
 10
4.002876830866452
 20
204.1856406460551
 10
4.231337006364914
 20
204.0256711089904
 10
4.4285479398568155
 20
203.8284601754985
 10
4.588517476921552
 20
203.60000000000002
 10
4.706385024123906
 20
203.3472322293211
 10
4.706385024123909
 20
203.3472322293211
 10
6.070747193362422
 20
199.59867797738016
 10
7.435109362600936
 20
195.8501237254392
 10
8.799471531839448
 20
192.10156947349827
 10
10.163833701077962
 20
188.3530152215573
 10
11.528195870316473
 20
184.60446096961638
 10
12.892558039554988
 20
180.85590671767545
 10
14.2569202087935
 20
177.1073524657345
 10
14.2569202087935
 20
177.1073524657345
 10
14.457685619256385
 20
176.66902227014316
 10
14.726073344763096
 20
176.26851242107224
 10
15.055151821697159
 20
175.9161667578036
 10
15.436422045890733
 20
175.62108519865623
 10
15.860037073676494
 20
175.39088872031755
 10
16.315056335740227
 20
175.23152253332535
 10
16.789728195691858
 20
175.14710253702395
 10
16.78972819569186
 20
175.14710253702398
 10
17.673527826307573
 20
175.06012942464292
 10
18.556877223341978
 20
174.96869665090898
 10
19.439753883446183
 20
174.87280654507444
 10
20.32213531531431
 20
174.77246154994228
 10
21.20399904025641
 20
174.66766422180382
 10
22.085322592771142
 20
174.55841723037372
 10
22.966083521118072
 20
174.44472335872192
 10
22.966083521118072
 20
174.44472335872192
 10
23.846259387889635
 20
174.32658550320284
 10
24.725827770582708
 20
174.20400667338131
 10
25.604766262169857
 20
174.07698999195628
 10
26.483052471670128
 20
173.94553869468098
 10
27.36066402471949
 20
173.8096561302807
 10
28.237578564140794
 20
173.6693457603672
 10
29.113773750513303
 20
173.5246111593509
 10
29.113773750513296
 20
173.52461115935085
 10
29.59412106188353
 20
173.48330049650392
 10
30.074882922908834
 20
173.5194687614463
 10
30.543642851360843
 20
173.6321818480118
 10
30.988294335070336
 20
173.81852875150213
 10
31.397353502930024
 20
174.0736967502704
 10
31.76025571514662
 20
174.39109570233825
 10
32.0676284128008
 20
174.76252824687663
 10
32.0676284128008
 20
174.76252824687663
 10
34.355698300482395
 20
178.03023069625573
 10
36.643768188164
 20
181.2979331456349
 10
38.931838075845604
 20
184.56563559501402
 10
41.21990796352722
 20
187.8333380443932
 10
43.507977851208814
 20
191.10104049377227
 10
45.79604773889042
 20
194.36874294315143
 10
48.08411762657203
 20
197.6364453925306
 10
48.08411762657204
 20
197.6364453925306
 10
48.26339004753595
 20
197.8500939442674
 10
48.47703859927275
 20
198.0293663652313
 10
48.718571678649305
 20
198.16881555362755
 10
48.98065042527039
 20
198.2642044164314
 10
49.25531170903817
 20
198.3126346113157
 10
49.53421008583067
 20
198.3126346113157
 10
49.80887136959845
 20
198.26420441643143
 10
49.80887136959845
 20
198.26420441643143
 10
51.04636794934117
 20
197.93261820725309
 10
52.283864529083885
 20
197.60103199807475
 10
53.5213611088266
 20
197.2694457888964
 10
54.75885768856932
 20
196.93785957971807
 10
55.99635426831203
 20
196.60627337053972
 10
55.99635426831203
 20
196.60627337053972
 10
56.258433014933125
 20
196.51088450773588
 10
56.49996609430967
 20
196.3714353193396
 10
56.71361464604647
 20
196.1921628983757
 10
56.892887067010385
 20
195.97851434663892
 10
57.03233625540664
 20
195.73698126726234
 10
57.127725118210506
 20
195.47490252064128
 10
57.176155313094796
 20
195.2002412368735
 10
57.1761553130948
 20
195.2002412368735
 10
57.52383073677171
 20
191.22629295986172
 10
57.87150616044862
 20
187.25234468284992
 10
58.21918158412552
 20
183.27839640583818
 10
58.566857007802426
 20
179.3044481288264
 10
58.91453243147934
 20
175.33049985181464
 10
59.26220785515625
 20
171.35655157480286
 10
59.60988327883315
 20
167.3826032977911
 10
59.60988327883315
 20
167.3826032977911
 10
59.690359571162226
 20
166.90724692960146
 10
59.84594262999745
 20
166.45092026786784
 10
60.07261426163073
 20
166.02540871477186
 10
60.36452029060844
 20
165.64170182057794
 10
60.71412175364129
 20
165.30970946004723
 10
61.11238960598869
 20
165.03800589328367
 10
61.54903791169835
 20
164.8336083210712
 10
61.54903791169836
 20
164.8336083210712
 10
62.380212502278766
 20
164.52085456917172
 10
63.20979795532227
 20
164.20390964422052
 10
64.03777313711788
 20
163.88278162039785
 10
64.86411695497631
 20
163.55747867844855
 10
65.68880835776727
 20
163.22800910547343
 10
66.51182633645583
 20
162.8943812947185
 10
67.33314992463752
 20
162.5566037453609
 10
67.33314992463752
 20
162.5566037453609
 10
68.15275819907264
 20
162.2146850622925
 10
68.97063028021898
 20
161.8686339559006
 10
69.78674533276404
 20
161.51845924184622
 10
70.60108256615561
 20
161.16416984083924
 10
71.41362123513149
 20
160.8057747784114
 10
72.22434064024792
 20
160.44328318468627
 10
73.03322012840695
 20
160.07670429414662
 10
73.03322012840694
 20
160.0767042941466
 10
73.48650801573736
 20
159.91247822555516
 10
73.9602493493919
 20
159.8229837609628
 10
74.44220896404858
 20
159.81053224517294
 10
74.91993944348047
 20
159.8754452594861
 10
75.3811025959784
 20
160.016046316323
 10
75.81378810886659
 20
160.22870415733092
 10
76.20682115232432
 20
160.50792653672735
 10
76.20682115232432
 20
160.50792653672735
 10
79.26267057681778
 20
163.07208866175316
 10
82.31852000131126
 20
165.63625078677893
 10
85.37436942580472
 20
168.2004129118047
 10
88.43021885029819
 20
170.76457503683048
 10
91.48606827479163
 20
173.32873716185622
 10
94.54191769928511
 20
175.892899286882
 10
97.5977671237786
 20
178.45706141190777
 10
97.5977671237786
 20
178.45706141190777
 10
97.82622729927705
 20
178.6170309489725
 10
98.078995069956
 20
178.73489849617488
 10
98.34839021500997
 20
178.80708270773695
 10
98.62622729927705
 20
178.8313903029174
 10
98.90406438354414
 20
178.80708270773695
 10
99.17345952859812
 20
178.73489849617488
 10
99.42622729927704
 20
178.6170309489725
 10
99.42622729927704
 20
178.6170309489725
 10
100.53573637956622
 20
177.97645558279922
 10
101.6452454598554
 20
177.33588021662592
 10
102.75475454014457
 20
176.69530485045266
 10
103.86426362043376
 20
176.05472948427936
 10
104.97377270072293
 20
175.41415411810607
 10
104.97377270072293
 20
175.41415411810607
 10
105.2022328762214
 20
175.25418458104133
 10
105.3994438097133
 20
175.05697364754943
 10
105.55941334677803
 20
174.82851347205096
 10
105.6772808939804
 20
174.57574570137203
 10
105.74946510554247
 20
174.30635055631808
 10
105.77377270072294
 20
174.02851347205097
 10
105.74946510554247
 20
173.75067638778387
 10
105.74946510554247
 20
173.75067638778387
 10
105.05676027809501
 20
169.8221520935196
 10
104.36405545064753
 20
165.89362779925528
 10
103.67135062320006
 20
161.96510350499102
 10
102.97864579575257
 20
158.03657921072673
 10
102.2859409683051
 20
154.10805491646244
 10
101.59323614085763
 20
150.17953062219817
 10
100.90053131341014
 20
146.25100632793388
 10
100.90053131341014
 20
146.25100632793388
 10
100.85523416127654
 20
145.77101853807454
 10
100.88740982509383
 20
145.28997297155988
 10
100.99622731432311
 20
144.82029343778893
 10
101.17887623460763
 20
144.37411019928223
 10
101.43063937092562
 20
143.96294668728632
 10
101.74501451758795
 20
143.59742188981494
 10
102.11388240861697
 20
143.28697609845474
 10
102.113882408617
 20
143.28697609845477
 10
102.83578878439498
 20
142.7697553583787
 10
103.55507541577747
 20
142.24889755506942
 10
104.2717239789188
 20
141.72441595739303
 10
104.98571621717821
 20
141.1963239265319
 10
105.6970339415848
 20
140.6646349156442
 10
106.40565903130106
 20
140.12936246952134
 10
107.11157343408436
 20
139.5905202242428
 10
107.11157343408436
 20
139.59052022424282
 10
107.814759166747
 20
139.0481219068289
 10
108.51519831561401
 20
138.50218133489076
 10
109.21287303697994
 20
137.9527124162787
 10
109.90776555756307
 20
137.39972914872774
 10
110.5998581749584
 20
136.843245619501
 10
111.28913325808843
 20
136.2832760050309
 10
111.9755732476525
 20
135.71983457055794
 10
111.9755732476525
 20
135.7198345705579
 10
112.37091089051518
 20
135.44388483140014
 10
112.80534700780497
 20
135.2348265371384
 10
113.26766155740336
 20
135.0980589692171
 10
113.74591448987137
 20
135.0371143797015
 10
114.22775412027293
 20
135.05356676493784
 10
114.70073613117599
 20
135.14699121445483
 10
115.15264496804345
 20
135.3149748849903
 10
115.15264496804345
 20
135.3149748849903
 10
118.76802284109948
 20
137.00085327432043
 10
122.38340071415554
 20
138.68673166365062
 10
125.99877858721158
 20
140.37261005298078
 10
129.61415646026762
 20
142.05848844231096
 10
133.22953433332364
 20
143.74436683164112
 10
136.84491220637972
 20
145.43024522097127
 10
140.46029007943577
 20
147.11612361030146
 10
140.46029007943577
 20
147.11612361030146
 10
140.72236882605688
 20
147.2115124731053
 10
140.99703010982464
 20
147.2599426679896
 10
141.27592848661715
 20
147.25994266798963
 10
141.5505897703849
 20
147.2115124731053
 10
141.812668517006
 20
147.11612361030146
 10
142.05420159638257
 20
146.9766744219052
 10
142.26785014811935
 20
146.79740200094128
 10
142.26785014811935
 20
146.79740200094128
 10
143.17376051868374
 20
145.8914916303769
 10
144.07967088924812
 20
144.9855812598125
 10
144.98558125981248
 20
144.07967088924815
 10
145.89149163037686
 20
143.17376051868376
 10
146.79740200094125
 20
142.26785014811938
 10
146.79740200094125
 20
142.26785014811938
 10
146.9766744219052
 20
142.05420159638257
 10
147.11612361030143
 20
141.81266851700602
 10
147.21151247310527
 20
141.55058977038493
 10
147.2599426679896
 20
141.27592848661718
 10
147.25994266798958
 20
140.99703010982466
 10
147.2115124731053
 20
140.72236882605688
 10
147.11612361030143
 20
140.4602900794358
 10
147.11612361030143
 20
140.4602900794358
 10
145.43024522097127
 20
136.84491220637977
 10
143.74436683164112
 20
133.2295343333237
 10
142.05848844231093
 20
129.61415646026765
 10
140.37261005298075
 20
125.9987785872116
 10
138.68673166365062
 20
122.38340071415557
 10
137.00085327432043
 20
118.76802284109952
 10
135.31497488499028
 20
115.15264496804348
 10
135.31497488499028
 20
115.15264496804348
 10
135.14699121445483
 20
114.700736131176
 10
135.0535667649378
 20
114.22775412027293
 10
135.0371143797015
 20
113.74591448987138
 10
135.09805896921708
 20
113.26766155740339
 10
135.23482653713836
 20
112.80534700780501
 10
135.4438848314001
 20
112.37091089051522
 10
135.71983457055788
 20
111.97557324765252
 10
135.7198345705579
 20
111.97557324765255
 10
136.28327600503087
 20
111.28913325808846
 10
136.843245619501
 20
110.59985817495841
 10
137.39972914872772
 20
109.9077655575631
 10
137.95271241627867
 20
109.21287303697997
 10
138.50218133489074
 20
108.51519831561406
 10
139.04812190682887
 20
107.81475916674701
 10
139.5905202242428
 20
107.11157343408439
 10
139.5905202242428
 20
107.11157343408439
 10
140.12936246952134
 20
106.40565903130108
 10
140.6646349156442
 20
105.69703394158483
 10
141.19632392653187
 20
104.98571621717822
 10
141.724415957393
 20
104.27172397891883
 10
142.24889755506942
 20
103.5550754157775
 10
142.7697553583787
 20
102.835788784395
 10
143.28697609845474
 20
102.11388240861703
 10
143.28697609845472
 20
102.113882408617
 10
143.5974218898149
 20
101.74501451758799
 10
143.9629466872863
 20
101.43063937092563
 10
144.3741101992822
 20
101.17887623460766
 10
144.82029343778893
 20
100.99622731432312
 10
145.2899729715599
 20
100.88740982509387
 10
145.77101853807451
 20
100.85523416127657
 10
146.25100632793382
 20
100.90053131341017
 10
146.25100632793382
 20
100.90053131341017
 10
150.17953062219811
 20
101.59323614085764
 10
154.1080549164624
 20
102.28594096830513
 10
158.0365792107267
 20
102.9786457957526
 10
161.965103504991
 20
103.6713506232001
 10
165.89362779925526
 20
104.36405545064756
 10
169.82215209351955
 20
105.05676027809504
 10
173.75067638778384
 20
105.74946510554251
 10
173.75067638778384
 20
105.74946510554251
 10
174.02851347205095
 20
105.77377270072299
 10
174.30635055631805
 20
105.74946510554251
 10
174.575745701372
 20
105.67728089398044
 10
174.82851347205093
 20
105.55941334677807
 10
175.0569736475494
 20
105.39944380971335
 10
175.2541845810413
 20
105.20223287622144
 10
175.41415411810604
 20
104.97377270072298
 10
175.41415411810604
 20
104.97377270072298
 10
176.05472948427933
 20
103.8642636204338
 10
176.69530485045263
 20
102.75475454014462
 10
177.3358802166259
 20
101.64524545985545
 10
177.9764555827992
 20
100.53573637956626
 10
178.61703094897248
 20
99.42622729927709
 10
178.61703094897248
 20
99.42622729927709
 10
178.73489849617485
 20
99.17345952859816
 10
178.80708270773692
 20
98.90406438354418
 10
178.83139030291738
 20
98.62622729927709
 10
178.80708270773692
 20
98.34839021501001
 10
178.73489849617485
 20
98.07899506995604
 10
178.61703094897248
 20
97.8262272992771
 10
178.45706141190774
 20
97.59776712377864
 10
178.45706141190774
 20
97.59776712377864
 10
175.892899286882
 20
94.54191769928516
 10
173.32873716185622
 20
91.48606827479169
 10
170.76457503683045
 20
88.43021885029823
 10
168.20041291180468
 20
85.37436942580474
 10
165.6362507867789
 20
82.31852000131128
 10
163.07208866175316
 20
79.26267057681783
 10
160.50792653672735
 20
76.20682115232435
 10
160.50792653672735
 20
76.20682115232435
 10
160.2287041573309
 20
75.81378810886662
 10
160.01604631632298
 20
75.38110259597842
 10
159.8754452594861
 20
74.91993944348052
 10
159.8105322451729
 20
74.4422089640486
 10
159.82298376096279
 20
73.96024934939194
 10
159.91247822555513
 20
73.4865080157374
 10
160.07670429414657
 20
73.03322012840698
 10
160.0767042941466
 20
73.03322012840698
 10
160.44328318468627
 20
72.22434064024795
 10
160.8057747784114
 20
71.41362123513152
 10
161.1641698408392
 20
70.60108256615564
 10
161.5184592418462
 20
69.78674533276408
 10
161.8686339559006
 20
68.97063028021901
 10
162.2146850622925
 20
68.15275819907266
 10
162.5566037453609
 20
67.33314992463755
 10
162.55660374536086
 20
67.33314992463757
 10
162.8943812947185
 20
66.51182633645587
 10
163.22800910547343
 20
65.6888083577673
 10
163.55747867844852
 20
64.86411695497635
 10
163.88278162039785
 20
64.03777313711792
 10
164.2039096442205
 20
63.20979795532231
 10
164.52085456917166
 20
62.380212502278795
 10
164.83360832107118
 20
61.549037911698406
 10
164.83360832107115
 20
61.54903791169839
 10
165.03800589328364
 20
61.11238960598873
 10
165.3097094600472
 20
60.71412175364132
 10
165.64170182057794
 20
60.36452029060848
 10
166.02540871477183
 20
60.07261426163077
 10
166.45092026786784
 20
59.8459426299975
 10
166.90724692960143
 20
59.69035957116227
 10
167.38260329779106
 20
59.60988327883319
 10
167.38260329779106
 20
59.60988327883319
 10
171.35655157480284
 20
59.262207855156284
 10
175.3304998518146
 20
58.91453243147938
 10
179.30444812882635
 20
58.56685700780247
 10
183.27839640583815
 20
58.219181584125565
 10
187.2523446828499
 20
57.871506160448654
 10
191.22629295986167
 20
57.52383073677174
 10
195.20024123687347
 20
57.176155313094846
 10
195.20024123687347
 20
57.17615531309484
 10
195.47490252064125
 20
57.12772511821055
 10
195.73698126726234
 20
57.03233625540668
 10
195.9785143466389
 20
56.892887067010435
 10
196.19216289837567
 20
56.713614646046516
 10
196.37143531933958
 20
56.49996609430972
 10
196.51088450773585
 20
56.25843301493317
 10
196.6062733705397
 20
55.996354268312075
 10
196.6062733705397
 20
55.996354268312075
 10
196.93785957971804
 20
54.75885768856936
 10
197.26944578889638
 20
53.52136110882664
 10
197.60103199807472
 20
52.28386452908392
 10
197.93261820725306
 20
51.04636794934121
 10
198.2642044164314
 20
49.80887136959849
 10
198.2642044164314
 20
49.80887136959849
 10
198.31263461131567
 20
49.534210085830715
 10
198.31263461131567
 20
49.25531170903822
 10
198.26420441643137
 20
48.98065042527043
 10
198.16881555362752
 20
48.718571678649354
 10
198.0293663652313
 20
48.477038599272795
 10
197.85009394426737
 20
48.26339004753599
 10
197.63644539253056
 20
48.08411762657208
 10
197.63644539253056
 20
48.08411762657207
 10
194.36874294315143
 20
45.79604773889047
 10
191.1010404937723
 20
43.507977851208864
 10
187.83333804439317
 20
41.21990796352726
 10
184.56563559501402
 20
38.93183807584565
 10
181.29793314563486
 20
36.64376818816405
 10
178.03023069625576
 20
34.355698300482445
 10
174.7625282468766
 20
32.067628412800836
 10
174.7625282468766
 20
32.067628412800836
 10
174.39109570233822
 20
31.760255715146663
 10
174.07369675027036
 20
31.39735350293006
 10
173.8185287515021
 20
30.98829433507037
 10
173.6321818480118
 20
30.54364285136089
 10
173.51946876144626
 20
30.07488292290888
 10
173.4833004965039
 20
29.594121061883577
 10
173.52461115935085
 20
29.113773750513346
 10
173.52461115935088
 20
29.11377375051335
 10
173.6693457603672
 20
28.237578564140833
 10
173.80965613028067
 20
27.36066402471953
 10
173.94553869468098
 20
26.483052471670167
 10
174.07698999195625
 20
25.604766262169893
 10
174.20400667338131
 20
24.725827770582747
 10
174.32658550320284
 20
23.84625938788968
 10
174.4447233587219
 20
22.96608352111811
 10
174.44472335872192
 20
22.966083521118083
 10
174.55841723037372
 20
22.085322592771153
 10
174.66766422180382
 20
21.20399904025642
 10
174.77246154994228
 20
20.32213531531432
 10
174.87280654507444
 20
19.439753883446194
 10
174.96869665090898
 20
18.556877223341985
 10
175.06012942464292
 20
17.673527826307584
 10
175.14710253702398
 20
16.789728195691872
 10
175.14710253702395
 20
16.789728195691872
 10
175.23152253332535
 20
16.31505633574024
 10
175.39088872031755
 20
15.860037073676505
 10
175.62108519865623
 20
15.436422045890744
 10
175.9161667578036
 20
15.05515182169717
 10
176.26851242107227
 20
14.726073344763106
 10
176.66902227014316
 20
14.457685619256395
 10
177.1073524657345
 20
14.256920208793511
 10
177.1073524657345
 20
14.256920208793511
 10
180.85590671767542
 20
12.892558039555
 10
184.60446096961638
 20
11.528195870316486
 10
188.3530152215573
 20
10.163833701077973
 10
192.10156947349827
 20
8.799471531839462
 10
195.85012372543918
 20
7.435109362600948
 10
199.59867797738013
 20
6.070747193362435
 10
203.3472322293211
 20
4.706385024123922
 10
203.3472322293211
 20
4.706385024123918
 10
203.60000000000002
 20
4.588517476921565
 10
203.8284601754985
 20
4.428547939856828
 10
204.0256711089904
 20
4.231337006364926
 10
204.1856406460551
 20
4.002876830866464
 10
204.30350819325747
 20
3.750109060187535
 10
204.37569240481955
 20
3.4807139151335553
 10
204.4
 20
3.2028768308664683
 10
204.4
 20
3.2028768308664683
 10
204.4
 20
1.921726098519886
 10
204.4
 20
0.6405753661733035
 10
204.4
 20
-0.6405753661732793
 10
204.4
 20
-1.9217260985198616
 10
204.4
 20
-3.2028768308664435
 10
204.4
 20
-3.2028768308664435
 10
204.37569240481955
 20
-3.4807139151335305
 10
204.30350819325747
 20
-3.7501090601875102
 10
204.1856406460551
 20
-4.002876830866439
 10
204.0256711089904
 20
-4.231337006364901
 10
203.8284601754985
 20
-4.428547939856803
 10
203.60000000000002
 20
-4.58851747692154
 10
203.3472322293211
 20
-4.706385024123893
 10
203.3472322293211
 20
-4.706385024123897
 10
199.59867797738016
 20
-6.0707471933624095
 10
195.8501237254392
 20
-7.435109362600923
 10
192.10156947349827
 20
-8.799471531839435
 10
188.3530152215573
 20
-10.163833701077952
 10
184.60446096961638
 20
-11.528195870316463
 10
180.85590671767545
 20
-12.892558039554977
 10
177.1073524657345
 20
-14.25692020879349
 10
177.1073524657345
 20
-14.25692020879349
 10
176.66902227014316
 20
-14.457685619256374
 10
176.26851242107224
 20
-14.726073344763085
 10
175.9161667578036
 20
-15.055151821697148
 10
175.62108519865623
 20
-15.436422045890723
 10
175.39088872031755
 20
-15.860037073676484
 10
175.23152253332535
 20
-16.315056335740216
 10
175.14710253702395
 20
-16.789728195691847
 10
175.14710253702398
 20
-16.78972819569185
 10
175.06012942464292
 20
-17.673527826307563
 10
174.96869665090898
 20
-18.556877223341967
 10
174.87280654507444
 20
-19.439753883446173
 10
174.77246154994228
 20
-20.3221353153143
 10
174.66766422180382
 20
-21.2039990402564
 10
174.55841723037372
 20
-22.08532259277113
 10
174.44472335872192
 20
-22.966083521118062
 10
174.44472335872192
 20
-22.96608352111805
 10
174.3265855032028
 20
-23.846259387889614
 10
174.20400667338131
 20
-24.725827770582686
 10
174.07698999195628
 20
-25.604766262169836
 10
173.94553869468098
 20
-26.483052471670106
 10
173.8096561302807
 20
-27.360664024719476
 10
173.6693457603672
 20
-28.237578564140772
 10
173.52461115935088
 20
-29.113773750513282
 10
173.52461115935085
 20
-29.113773750513275
 10
173.48330049650392
 20
-29.59412106188351
 10
173.5194687614463
 20
-30.07488292290882
 10
173.6321818480118
 20
-30.54364285136083
 10
173.81852875150213
 20
-30.988294335070314
 10
174.0736967502704
 20
-31.397353502930002
 10
174.39109570233825
 20
-31.7602557151466
 10
174.76252824687663
 20
-32.06762841280077
 10
174.76252824687663
 20
-32.06762841280077
 10
178.03023069625573
 20
-34.35569830048237
 10
181.2979331456349
 20
-36.64376818816399
 10
184.56563559501402
 20
-38.93183807584558
 10
187.8333380443932
 20
-41.21990796352719
 10
191.10104049377227
 20
-43.507977851208786
 10
194.36874294315143
 20
-45.7960477388904
 10
197.6364453925306
 20
-48.08411762657201
 10
197.6364453925306
 20
-48.08411762657202
 10
197.8500939442674
 20
-48.26339004753592
 10
198.0293663652313
 20
-48.47703859927273
 10
198.16881555362755
 20
-48.71857167864928
 10
198.2642044164314
 20
-48.98065042527036
 10
198.3126346113157
 20
-49.255311709038146
 10
198.3126346113157
 20
-49.534210085830644
 10
198.26420441643143
 20
-49.80887136959843
 10
198.26420441643143
 20
-49.80887136959843
 10
197.93261820725309
 20
-51.046367949341146
 10
197.60103199807475
 20
-52.283864529083864
 10
197.2694457888964
 20
-53.52136110882658
 10
196.93785957971807
 20
-54.75885768856929
 10
196.60627337053972
 20
-55.99635426831201
 10
196.60627337053972
 20
-55.99635426831201
 10
196.51088450773588
 20
-56.2584330149331
 10
196.3714353193396
 20
-56.49996609430965
 10
196.1921628983757
 20
-56.713614646046445
 10
195.97851434663892
 20
-56.89288706701036
 10
195.73698126726234
 20
-57.03233625540662
 10
195.47490252064128
 20
-57.12772511821049
 10
195.2002412368735
 20
-57.176155313094775
 10
195.2002412368735
 20
-57.17615531309478
 10
191.22629295986172
 20
-57.523830736771686
 10
187.25234468284992
 20
-57.87150616044859
 10
183.27839640583818
 20
-58.2191815841255
 10
179.3044481288264
 20
-58.566857007802405
 10
175.33049985181464
 20
-58.914532431479316
 10
171.35655157480286
 20
-59.26220785515623
 10
167.3826032977911
 20
-59.60988327883314
 10
167.3826032977911
 20
-59.60988327883314
 10
166.90724692960146
 20
-59.690359571162205
 10
166.45092026786784
 20
-59.84594262999743
 10
166.02540871477186
 20
-60.07261426163071
 10
165.64170182057794
 20
-60.364520290608425
 10
165.30970946004723
 20
-60.71412175364127
 10
165.03800589328367
 20
-61.11238960598867
 10
164.8336083210712
 20
-61.549037911698335
 10
164.83360832107124
 20
-61.54903791169834
 10
164.52085456917172
 20
-62.38021250227874
 10
164.20390964422052
 20
-63.20979795532226
 10
163.88278162039785
 20
-64.03777313711787
 10
163.55747867844855
 20
-64.8641169549763
 10
163.22800910547343
 20
-65.68880835776726
 10
162.89438129471853
 20
-66.5118263364558
 10
162.5566037453609
 20
-67.33314992463751
 10
162.55660374536086
 20
-67.3331499246375
 10
162.2146850622925
 20
-68.15275819907261
 10
161.8686339559006
 20
-68.97063028021896
 10
161.51845924184622
 20
-69.78674533276401
 10
161.16416984083924
 20
-70.60108256615558
 10
160.8057747784114
 20
-71.41362123513146
 10
160.44328318468627
 20
-72.22434064024789
 10
160.07670429414662
 20
-73.03322012840692
 10
160.0767042941466
 20
-73.03322012840691
 10
159.91247822555516
 20
-73.48650801573733
 10
159.8229837609628
 20
-73.96024934939187
 10
159.81053224517294
 20
-74.44220896404855
 10
159.8754452594861
 20
-74.91993944348044
 10
160.016046316323
 20
-75.38110259597838
 10
160.22870415733092
 20
-75.81378810886656
 10
160.50792653672735
 20
-76.2068211523243
 10
160.50792653672735
 20
-76.2068211523243
 10
163.07208866175313
 20
-79.26267057681775
 10
165.63625078677893
 20
-82.31852000131123
 10
168.2004129118047
 20
-85.37436942580469
 10
170.76457503683048
 20
-88.43021885029816
 10
173.32873716185622
 20
-91.4860682747916
 10
175.892899286882
 20
-94.54191769928508
 10
178.45706141190777
 20
-97.59776712377857
 10
178.45706141190777
 20
-97.59776712377857
 10
178.6170309489725
 20
-97.82622729927702
 10
178.73489849617488
 20
-98.07899506995597
 10
178.80708270773695
 20
-98.34839021500994
 10
178.8313903029174
 20
-98.62622729927702
 10
178.80708270773695
 20
-98.90406438354411
 10
178.73489849617488
 20
-99.17345952859809
 10
178.6170309489725
 20
-99.42622729927702
 10
178.6170309489725
 20
-99.42622729927702
 10
177.97645558279922
 20
-100.53573637956619
 10
177.33588021662592
 20
-101.64524545985537
 10
176.69530485045266
 20
-102.75475454014455
 10
176.05472948427936
 20
-103.86426362043373
 10
175.41415411810607
 20
-104.9737727007229
 10
175.41415411810607
 20
-104.9737727007229
 10
175.25418458104133
 20
-105.20223287622137
 10
175.05697364754943
 20
-105.39944380971328
 10
174.82851347205096
 20
-105.559413346778
 10
174.57574570137203
 20
-105.67728089398037
 10
174.30635055631808
 20
-105.74946510554244
 10
174.02851347205097
 20
-105.77377270072292
 10
173.75067638778387
 20
-105.74946510554244
 10
173.75067638778387
 20
-105.74946510554244
 10
169.8221520935196
 20
-105.05676027809498
 10
165.89362779925528
 20
-104.3640554506475
 10
161.96510350499102
 20
-103.67135062320003
 10
158.03657921072673
 20
-102.97864579575254
 10
154.10805491646244
 20
-102.28594096830507
 10
150.1795306221982
 20
-101.5932361408576
 10
146.25100632793388
 20
-100.90053131341011
 10
146.25100632793388
 20
-100.90053131341011
 10
145.77101853807454
 20
-100.85523416127651
 10
145.28997297155988
 20
-100.8874098250938
 10
144.82029343778893
 20
-100.99622731432308
 10
144.37411019928223
 20
-101.1788762346076
 10
143.96294668728632
 20
-101.43063937092559
 10
143.59742188981494
 20
-101.74501451758792
 10
143.28697609845474
 20
-102.11388240861694
 10
143.28697609845477
 20
-102.11388240861697
 10
142.7697553583787
 20
-102.83578878439495
 10
142.24889755506942
 20
-103.55507541577744
 10
141.72441595739303
 20
-104.27172397891877
 10
141.1963239265319
 20
-104.98571621717818
 10
140.6646349156442
 20
-105.69703394158478
 10
140.12936246952134
 20
-106.40565903130103
 10
139.59052022424282
 20
-107.11157343408433
 10
139.59052022424282
 20
-107.11157343408436
 10
139.0481219068289
 20
-107.814759166747
 10
138.50218133489076
 20
-108.51519831561401
 10
137.9527124162787
 20
-109.21287303697994
 10
137.39972914872774
 20
-109.90776555756307
 10
136.843245619501
 20
-110.5998581749584
 10
136.2832760050309
 20
-111.28913325808843
 10
135.71983457055794
 20
-111.9755732476525
 10
135.7198345705579
 20
-111.9755732476525
 10
135.44388483140014
 20
-112.37091089051518
 10
135.2348265371384
 20
-112.80534700780497
 10
135.0980589692171
 20
-113.26766155740336
 10
135.0371143797015
 20
-113.74591448987137
 10
135.05356676493784
 20
-114.22775412027293
 10
135.14699121445483
 20
-114.70073613117599
 10
135.3149748849903
 20
-115.15264496804345
 10
135.3149748849903
 20
-115.15264496804345
 10
137.00085327432043
 20
-118.76802284109948
 10
138.68673166365062
 20
-122.38340071415554
 10
140.37261005298078
 20
-125.99877858721158
 10
142.05848844231096
 20
-129.61415646026762
 10
143.74436683164112
 20
-133.22953433332364
 10
145.43024522097127
 20
-136.84491220637972
 10
147.11612361030146
 20
-140.46029007943577
 10
147.11612361030146
 20
-140.46029007943577
 10
147.2115124731053
 20
-140.72236882605688
 10
147.2599426679896
 20
-140.99703010982464
 10
147.25994266798963
 20
-141.27592848661715
 10
147.2115124731053
 20
-141.5505897703849
 10
147.11612361030146
 20
-141.812668517006
 10
146.9766744219052
 20
-142.05420159638257
 10
146.79740200094128
 20
-142.26785014811935
 10
146.79740200094128
 20
-142.26785014811935
 10
145.8914916303769
 20
-143.17376051868374
 10
144.9855812598125
 20
-144.07967088924812
 10
144.07967088924815
 20
-144.98558125981248
 10
143.17376051868376
 20
-145.89149163037686
 10
142.26785014811938
 20
-146.79740200094125
 10
142.26785014811938
 20
-146.79740200094125
 10
142.05420159638257
 20
-146.9766744219052
 10
141.81266851700602
 20
-147.11612361030143
 10
141.55058977038493
 20
-147.21151247310527
 10
141.27592848661718
 20
-147.2599426679896
 10
140.99703010982466
 20
-147.25994266798958
 10
140.72236882605688
 20
-147.2115124731053
 10
140.4602900794358
 20
-147.11612361030143
 10
140.4602900794358
 20
-147.11612361030143
 10
136.84491220637977
 20
-145.43024522097127
 10
133.2295343333237
 20
-143.74436683164112
 10
129.61415646026765
 20
-142.05848844231093
 10
125.9987785872116
 20
-140.37261005298075
 10
122.38340071415557
 20
-138.68673166365062
 10
118.76802284109952
 20
-137.00085327432043
 10
115.15264496804348
 20
-135.31497488499028
 10
115.15264496804348
 20
-135.31497488499028
 10
114.700736131176
 20
-135.14699121445483
 10
114.22775412027293
 20
-135.0535667649378
 10
113.74591448987138
 20
-135.0371143797015
 10
113.26766155740339
 20
-135.09805896921708
 10
112.80534700780501
 20
-135.23482653713836
 10
112.37091089051522
 20
-135.4438848314001
 10
111.97557324765252
 20
-135.71983457055788
 10
111.97557324765255
 20
-135.7198345705579
 10
111.28913325808846
 20
-136.28327600503087
 10
110.59985817495841
 20
-136.843245619501
 10
109.9077655575631
 20
-137.39972914872772
 10
109.21287303697997
 20
-137.95271241627867
 10
108.51519831561406
 20
-138.50218133489074
 10
107.81475916674701
 20
-139.04812190682887
 10
107.11157343408439
 20
-139.5905202242428
 10
107.11157343408443
 20
-139.59052022424277
 10
106.40565903130113
 20
-140.1293624695213
 10
105.69703394158486
 20
-140.66463491564417
 10
104.98571621717826
 20
-141.19632392653185
 10
104.27172397891886
 20
-141.72441595739298
 10
103.55507541577754
 20
-142.2488975550694
 10
102.83578878439505
 20
-142.76975535837866
 10
102.11388240861706
 20
-143.28697609845472
 10
102.11388240861704
 20
-143.2869760984547
 10
101.74501451758803
 20
-143.5974218898149
 10
101.43063937092568
 20
-143.96294668728626
 10
101.1788762346077
 20
-144.37411019928214
 10
100.99622731432316
 20
-144.8202934377889
 10
100.88740982509391
 20
-145.28997297155988
 10
100.85523416127661
 20
-145.7710185380745
 10
100.90053131341021
 20
-146.25100632793382
 10
100.90053131341021
 20
-146.25100632793382
 10
101.59323614085768
 20
-150.1795306221981
 10
102.28594096830517
 20
-154.1080549164624
 10
102.97864579575264
 20
-158.03657921072667
 10
103.67135062320014
 20
-161.96510350499096
 10
104.3640554506476
 20
-165.89362779925523
 10
105.05676027809508
 20
-169.82215209351952
 10
105.74946510554255
 20
-173.75067638778384
 10
105.74946510554255
 20
-173.75067638778384
 10
105.77377270072303
 20
-174.02851347205092
 10
105.74946510554255
 20
-174.30635055631802
 10
105.67728089398048
 20
-174.575745701372
 10
105.55941334677811
 20
-174.8285134720509
 10
105.39944380971339
 20
-175.05697364754937
 10
105.20223287622149
 20
-175.25418458104127
 10
104.97377270072302
 20
-175.414154118106
 10
104.97377270072302
 20
-175.414154118106
 10
103.86426362043385
 20
-176.0547294842793
 10
102.75475454014466
 20
-176.6953048504526
 10
101.64524545985549
 20
-177.33588021662587
 10
100.5357363795663
 20
-177.97645558279916
 10
99.42622729927713
 20
-178.61703094897246
 10
99.42622729927713
 20
-178.61703094897246
 10
99.1734595285982
 20
-178.73489849617482
 10
98.90406438354422
 20
-178.8070827077369
 10
98.62622729927713
 20
-178.83139030291736
 10
98.34839021501006
 20
-178.80708270773692
 10
98.07899506995608
 20
-178.73489849617482
 10
97.82622729927714
 20
-178.61703094897246
 10
97.59776712377868
 20
-178.45706141190774
 10
97.59776712377868
 20
-178.45706141190774
 10
94.54191769928522
 20
-175.89289928688197
 10
91.48606827479173
 20
-173.3287371618562
 10
88.43021885029827
 20
-170.76457503683042
 10
85.37436942580479
 20
-168.20041291180465
 10
82.31852000131133
 20
-165.6362507867789
 10
79.26267057681787
 20
-163.07208866175313
 10
76.2068211523244
 20
-160.50792653672735
 10
76.2068211523244
 20
-160.50792653672735
 10
75.81378810886666
 20
-160.22870415733087
 10
75.38110259597846
 20
-160.01604631632296
 10
74.91993944348056
 20
-159.87544525948607
 10
74.44220896404865
 20
-159.8105322451729
 10
73.96024934939199
 20
-159.82298376096276
 10
73.48650801573744
 20
-159.91247822555513
 10
73.03322012840702
 20
-160.07670429414654
 10
73.03322012840704
 20
-160.07670429414657
 10
72.22434064024799
 20
-160.44328318468624
 10
71.41362123513156
 20
-160.80577477841138
 10
70.6010825661557
 20
-161.16416984083918
 10
69.78674533276413
 20
-161.51845924184616
 10
68.97063028021907
 20
-161.86863395590058
 10
68.15275819907271
 20
-162.21468506229246
 10
67.3331499246376
 20
-162.55660374536086
 10
67.33314992463758
 20
-162.55660374536086
 10
66.51182633645587
 20
-162.8943812947185
 10
65.68880835776733
 20
-163.22800910547343
 10
64.86411695497635
 20
-163.55747867844852
 10
64.03777313711792
 20
-163.88278162039785
 10
63.209797955322315
 20
-164.2039096442205
 10
62.3802125022788
 20
-164.52085456917166
 10
61.549037911698406
 20
-164.83360832107118
 10
61.549037911698406
 20
-164.83360832107115
 10
61.11238960598874
 20
-165.03800589328364
 10
60.71412175364134
 20
-165.3097094600472
 10
60.36452029060848
 20
-165.64170182057794
 10
60.07261426163078
 20
-166.02540871477183
 10
59.84594262999751
 20
-166.45092026786784
 10
59.690359571162276
 20
-166.90724692960143
 10
59.6098832788332
 20
-167.38260329779106
 10
59.6098832788332
 20
-167.38260329779106
 10
59.26220785515629
 20
-171.35655157480284
 10
58.91453243147939
 20
-175.3304998518146
 10
58.56685700780248
 20
-179.30444812882635
 10
58.21918158412557
 20
-183.27839640583815
 10
57.87150616044866
 20
-187.2523446828499
 10
57.52383073677176
 20
-191.22629295986167
 10
57.17615531309486
 20
-195.20024123687347
 10
57.17615531309485
 20
-195.20024123687347
 10
57.12772511821056
 20
-195.47490252064125
 10
57.0323362554067
 20
-195.73698126726234
 10
56.89288706701044
 20
-195.9785143466389
 10
56.71361464604653
 20
-196.19216289837567
 10
56.49996609430973
 20
-196.37143531933958
 10
56.25843301493318
 20
-196.51088450773585
 10
55.99635426831209
 20
-196.6062733705397
 10
55.99635426831209
 20
-196.6062733705397
 10
54.75885768856937
 20
-196.93785957971804
 10
53.52136110882665
 20
-197.26944578889638
 10
52.283864529083935
 20
-197.60103199807472
 10
51.046367949341224
 20
-197.93261820725306
 10
49.808871369598506
 20
-198.2642044164314
 10
49.808871369598506
 20
-198.2642044164314
 10
49.53421008583073
 20
-198.31263461131567
 10
49.255311709038224
 20
-198.31263461131567
 10
48.98065042527045
 20
-198.26420441643137
 10
48.71857167864936
 20
-198.16881555362752
 10
48.47703859927281
 20
-198.0293663652313
 10
48.26339004753601
 20
-197.85009394426737
 10
48.084117626572095
 20
-197.63644539253056
 10
48.08411762657209
 20
-197.63644539253056
 10
45.796047738890486
 20
-194.36874294315143
 10
43.50797785120887
 20
-191.1010404937723
 10
41.21990796352727
 20
-187.83333804439317
 10
38.93183807584566
 20
-184.56563559501402
 10
36.64376818816406
 20
-181.29793314563486
 10
34.35569830048245
 20
-178.03023069625576
 10
32.06762841280085
 20
-174.7625282468766
 10
32.06762841280085
 20
-174.7625282468766
 10
31.76025571514667
 20
-174.39109570233822
 10
31.397353502930066
 20
-174.0736967502704
 10
30.988294335070385
 20
-173.8185287515021
 10
30.543642851360897
 20
-173.6321818480118
 10
30.074882922908888
 20
-173.51946876144626
 10
29.594121061883584
 20
-173.4833004965039
 10
29.113773750513353
 20
-173.52461115935085
 10
29.113773750513356
 20
-173.52461115935088
 10
28.23757856414084
 20
-173.6693457603672
 10
27.360664024719537
 20
-173.80965613028067
 10
26.483052471670174
 20
-173.94553869468098
 10
25.6047662621699
 20
-174.07698999195625
 10
24.72582777058276
 20
-174.20400667338131
 10
23.84625938788969
 20
-174.32658550320284
 10
22.966083521118126
 20
-174.4447233587219
 10
22.966083521118094
 20
-174.44472335872192
 10
22.085322592771163
 20
-174.55841723037372
 10
21.20399904025643
 20
-174.66766422180382
 10
20.32213531531433
 20
-174.77246154994228
 10
19.439753883446205
 20
-174.87280654507444
 10
18.556877223341996
 20
-174.96869665090898
 10
17.673527826307595
 20
-175.06012942464292
 10
16.789728195691882
 20
-175.14710253702398
 10
16.789728195691882
 20
-175.14710253702395
 10
16.315056335740252
 20
-175.23152253332535
 10
15.860037073676516
 20
-175.39088872031755
 10
15.436422045890755
 20
-175.62108519865623
 10
15.05515182169718
 20
-175.9161667578036
 10
14.726073344763117
 20
-176.26851242107227
 10
14.457685619256406
 20
-176.66902227014316
 10
14.256920208793522
 20
-177.1073524657345
 10
14.256920208793522
 20
-177.1073524657345
 10
12.892558039555011
 20
-180.85590671767542
 10
11.528195870316498
 20
-184.60446096961638
 10
10.163833701077985
 20
-188.3530152215573
 10
8.799471531839473
 20
-192.10156947349827
 10
7.43510936260096
 20
-195.85012372543918
 10
6.070747193362448
 20
-199.59867797738013
 10
4.706385024123934
 20
-203.3472322293211
 10
4.7063850241239304
 20
-203.3472322293211
 10
4.588517476921577
 20
-203.60000000000002
 10
4.42854793985684
 20
-203.8284601754985
 10
4.231337006364939
 20
-204.0256711089904
 10
4.002876830866477
 20
-204.1856406460551
 10
3.7501090601875475
 20
-204.30350819325747
 10
3.4807139151335678
 20
-204.37569240481955
 10
3.202876830866481
 20
-204.4
 10
3.202876830866481
 20
-204.4
 10
1.9217260985198987
 20
-204.4
 10
0.6405753661733159
 20
-204.4
 10
-0.6405753661732668
 20
-204.4
 10
-1.921726098519849
 20
-204.4
 10
-3.202876830866431
 20
-204.4
 10
-3.202876830866431
 20
-204.4
 10
-3.480713915133518
 20
-204.37569240481955
 10
-3.750109060187498
 20
-204.30350819325747
 10
-4.002876830866427
 20
-204.1856406460551
 10
-4.231337006364889
 20
-204.0256711089904
 10
-4.428547939856791
 20
-203.8284601754985
 10
-4.588517476921528
 20
-203.60000000000002
 10
-4.706385024123881
 20
-203.3472322293211
 10
-4.706385024123884
 20
-203.3472322293211
 10
-6.070747193362397
 20
-199.59867797738016
 10
-7.435109362600912
 20
-195.8501237254392
 10
-8.799471531839425
 20
-192.10156947349827
 10
-10.16383370107794
 20
-188.3530152215573
 10
-11.52819587031645
 20
-184.60446096961638
 10
-12.892558039554967
 20
-180.85590671767545
 10
-14.25692020879348
 20
-177.1073524657345
 10
-14.25692020879348
 20
-177.1073524657345
 10
-14.457685619256363
 20
-176.66902227014316
 10
-14.726073344763075
 20
-176.26851242107224
 10
-15.055151821697137
 20
-175.9161667578036
 10
-15.436422045890712
 20
-175.62108519865623
 10
-15.860037073676473
 20
-175.39088872031755
 10
-16.315056335740206
 20
-175.23152253332535
 10
-16.789728195691836
 20
-175.14710253702395
 10
-16.78972819569184
 20
-175.14710253702398
 10
-17.673527826307552
 20
-175.06012942464292
 10
-18.556877223341957
 20
-174.96869665090898
 10
-19.439753883446162
 20
-174.87280654507444
 10
-20.322135315314288
 20
-174.77246154994228
 10
-21.203999040256388
 20
-174.66766422180382
 10
-22.08532259277112
 20
-174.55841723037372
 10
-22.96608352111805
 20
-174.44472335872192
 10
-22.966083521117998
 20
-174.44472335872194
 10
-23.846259387889567
 20
-174.32658550320284
 10
-24.725827770582633
 20
-174.20400667338131
 10
-25.604766262169782
 20
-174.0769899919563
 10
-26.483052471670057
 20
-173.945538694681
 10
-27.360664024719423
 20
-173.8096561302807
 10
-28.237578564140723
 20
-173.6693457603672
 10
-29.11377375051324
 20
-173.5246111593509
 10
-29.113773750513232
 20
-173.52461115935088
 10
-29.594121061883463
 20
-173.48330049650392
 10
-30.07488292290877
 20
-173.51946876144632
 10
-30.54364285136078
 20
-173.63218184801184
 10
-30.98829433507026
 20
-173.81852875150213
 10
-31.397353502929953
 20
-174.07369675027041
 10
-31.76025571514655
 20
-174.39109570233822
 10
-32.06762841280073
 20
-174.76252824687663
 10
-32.06762841280073
 20
-174.76252824687663
 10
-34.355698300482324
 20
-178.03023069625576
 10
-36.64376818816393
 20
-181.29793314563491
 10
-38.93183807584553
 20
-184.56563559501404
 10
-41.219907963527135
 20
-187.8333380443932
 10
-43.507977851208736
 20
-191.1010404937723
 10
-45.796047738890344
 20
-194.36874294315146
 10
-48.08411762657195
 20
-197.63644539253062
 10
-48.08411762657196
 20
-197.63644539253062
 10
-48.263390047535864
 20
-197.8500939442674
 10
-48.477038599272674
 20
-198.02936636523134
 10
-48.718571678649226
 20
-198.16881555362758
 10
-48.9806504252703
 20
-198.26420441643143
 10
-49.25531170903808
 20
-198.31263461131573
 10
-49.53421008583059
 20
-198.31263461131573
 10
-49.80887136959837
 20
-198.26420441643145
 10
-49.80887136959837
 20
-198.26420441643145
 10
-51.04636794934109
 20
-197.9326182072531
 10
-52.28386452908381
 20
-197.60103199807477
 10
-53.521361108826525
 20
-197.26944578889643
 10
-54.758857688569236
 20
-196.9378595797181
 10
-55.996354268311954
 20
-196.60627337053975
 10
-55.996354268311954
 20
-196.60627337053975
 10
-56.25843301493304
 20
-196.5108845077359
 10
-56.4999660943096
 20
-196.37143531933964
 10
-56.713614646046395
 20
-196.19216289837573
 10
-56.89288706701031
 20
-195.97851434663895
 10
-57.03233625540656
 20
-195.73698126726237
 10
-57.127725118210435
 20
-195.47490252064128
 10
-57.17615531309472
 20
-195.20024123687352
 10
-57.176155313094725
 20
-195.20024123687352
 10
-57.52383073677163
 20
-191.22629295986175
 10
-57.87150616044854
 20
-187.25234468284995
 10
-58.219181584125444
 20
-183.27839640583818
 10
-58.566857007802355
 20
-179.30444812882644
 10
-58.914532431479266
 20
-175.33049985181466
 10
-59.26220785515618
 20
-171.3565515748029
 10
-59.60988327883308
 20
-167.3826032977911
 10
-59.60988327883308
 20
-167.3826032977911
 10
-59.690359571162155
 20
-166.90724692960148
 10
-59.84594262999738
 20
-166.45092026786787
 10
-60.07261426163066
 20
-166.02540871477186
 10
-60.364520290608375
 20
-165.64170182057796
 10
-60.71412175364122
 20
-165.30970946004726
 10
-61.112389605988625
 20
-165.03800589328367
 10
-61.54903791169829
 20
-164.83360832107124
 10
-61.5490379116983
 20
-164.83360832107127
 10
-62.380212502278695
 20
-164.52085456917172
 10
-63.20979795532221
 20
-164.20390964422052
 10
-64.03777313711782
 20
-163.88278162039788
 10
-64.86411695497625
 20
-163.55747867844858
 10
-65.68880835776721
 20
-163.2280091054735
 10
-66.51182633645575
 20
-162.89438129471856
 10
-67.33314992463747
 20
-162.55660374536092
 10
-67.3331499246375
 20
-162.5566037453609
 10
-68.1527581990726
 20
-162.21468506229252
 10
-68.97063028021896
 20
-161.86863395590063
 10
-69.78674533276401
 20
-161.51845924184622
 10
-70.60108256615558
 20
-161.16416984083924
 10
-71.41362123513146
 20
-160.80577477841143
 10
-72.22434064024789
 20
-160.4432831846863
 10
-73.03322012840692
 20
-160.07670429414662
 10
-73.03322012840691
 20
-160.0767042941466
 10
-73.48650801573733
 20
-159.9124782255552
 10
-73.96024934939187
 20
-159.82298376096284
 10
-74.44220896404853
 20
-159.81053224517294
 10
-74.91993944348044
 20
-159.87544525948613
 10
-75.38110259597838
 20
-160.01604631632304
 10
-75.81378810886655
 20
-160.22870415733092
 10
-76.20682115232428
 20
-160.50792653672738
 10
-76.20682115232428
 20
-160.50792653672738
 10
-79.26267057681773
 20
-163.07208866175313
 10
-82.31852000131121
 20
-165.63625078677896
 10
-85.37436942580467
 20
-168.2004129118047
 10
-88.43021885029815
 20
-170.7645750368305
 10
-91.48606827479159
 20
-173.32873716185622
 10
-94.54191769928507
 20
-175.89289928688203
 10
-97.59776712377854
 20
-178.4570614119078
 10
-97.59776712377855
 20
-178.4570614119078
 10
-97.82622729927701
 20
-178.61703094897254
 10
-98.07899506995595
 20
-178.73489849617488
 10
-98.34839021500993
 20
-178.80708270773698
 10
-98.626227299277
 20
-178.8313903029174
 10
-98.9040643835441
 20
-178.80708270773698
 10
-99.17345952859807
 20
-178.73489849617488
 10
-99.426227299277
 20
-178.6170309489725
 10
-99.426227299277
 20
-178.6170309489725
 10
-100.53573637956617
 20
-177.97645558279922
 10
-101.64524545985536
 20
-177.33588021662592
 10
-102.75475454014453
 20
-176.69530485045266
 10
-103.86426362043372
 20
-176.05472948427936
 10
-104.97377270072289
 20
-175.41415411810607
 10
-104.97377270072289
 20
-175.41415411810607
 10
-105.20223287622136
 20
-175.25418458104133
 10
-105.39944380971326
 20
-175.05697364754946
 10
-105.55941334677799
 20
-174.82851347205096
 10
-105.67728089398035
 20
-174.57574570137206
 10
-105.74946510554243
 20
-174.30635055631808
 10
-105.7737727007229
 20
-174.028513472051
 10
-105.74946510554243
 20
-173.7506763877839
 10
-105.74946510554244
 20
-173.7506763877839
 10
-105.05676027809497
 20
-169.82215209351963
 10
-104.36405545064748
 20
-165.8936277992553
 10
-103.67135062320001
 20
-161.96510350499105
 10
-102.97864579575253
 20
-158.03657921072673
 10
-102.28594096830506
 20
-154.1080549164625
 10
-101.59323614085758
 20
-150.1795306221982
 10
-100.90053131341013
 20
-146.2510063279339
 10
-100.90053131341013
 20
-146.2510063279339
 10
-100.85523416127653
 20
-145.77101853807454
 10
-100.8874098250938
 20
-145.2899729715599
 10
-100.99622731432308
 20
-144.82029343778896
 10
-101.17887623460761
 20
-144.37411019928223
 10
-101.43063937092559
 20
-143.96294668728635
 10
-101.74501451758793
 20
-143.59742188981497
 10
-102.11388240861696
 20
-143.28697609845474
 10
-102.11388240861697
 20
-143.28697609845477
 10
-102.83578878439495
 20
-142.76975535837872
 10
-103.55507541577744
 20
-142.24889755506945
 10
-104.27172397891877
 20
-141.72441595739303
 10
-104.98571621717818
 20
-141.1963239265319
 10
-105.69703394158478
 20
-140.66463491564423
 10
-106.40565903130104
 20
-140.12936246952137
 10
-107.11157343408433
 20
-139.59052022424285
 10
-107.1115734340843
 20
-139.59052022424288
 10
-107.81475916674692
 20
-139.04812190682892
 10
-108.51519831561396
 20
-138.5021813348908
 10
-109.21287303697987
 20
-137.95271241627876
 10
-109.90776555756301
 20
-137.39972914872777
 10
-110.59985817495834
 20
-136.84324561950106
 10
-111.28913325808837
 20
-136.28327600503096
 10
-111.97557324765245
 20
-135.71983457055796
 10
-111.97557324765243
 20
-135.71983457055794
 10
-112.37091089051512
 20
-135.4438848314002
 10
-112.80534700780491
 20
-135.23482653713845
 10
-113.2676615574033
 20
-135.09805896921716
 10
-113.7459144898713
 20
-135.03711437970156
 10
-114.22775412027286
 20
-135.0535667649379
 10
-114.70073613117592
 20
-135.14699121445489
 10
-115.15264496804338
 20
-135.31497488499036
 10
-115.15264496804338
 20
-135.31497488499036
 10
-118.76802284109942
 20
-137.00085327432052
 10
-122.38340071415548
 20
-138.68673166365068
 10
-125.9987785872115
 20
-140.37261005298083
 10
-129.61415646026757
 20
-142.05848844231102
 10
-133.22953433332358
 20
-143.74436683164114
 10
-136.84491220637966
 20
-145.43024522097133
 10
-140.4602900794357
 20
-147.1161236103015
 10
-140.4602900794357
 20
-147.1161236103015
 10
-140.7223688260568
 20
-147.2115124731054
 10
-140.99703010982458
 20
-147.2599426679897
 10
-141.27592848661706
 20
-147.25994266798966
 10
-141.55058977038485
 20
-147.2115124731054
 10
-141.81266851700593
 20
-147.1161236103015
 10
-142.05420159638248
 20
-146.97667442190527
 10
-142.2678501481193
 20
-146.79740200094133
 10
-142.2678501481193
 20
-146.79740200094133
 10
-143.17376051868368
 20
-145.89149163037695
 10
-144.07967088924806
 20
-144.98558125981256
 10
-144.98558125981242
 20
-144.0796708892482
 10
-145.8914916303768
 20
-143.17376051868382
 10
-146.7974020009412
 20
-142.26785014811944
 10
-146.7974020009412
 20
-142.26785014811944
 10
-146.9766744219051
 20
-142.05420159638265
 10
-147.11612361030137
 20
-141.81266851700607
 10
-147.21151247310522
 20
-141.55058977038502
 10
-147.25994266798952
 20
-141.27592848661726
 10
-147.25994266798952
 20
-140.99703010982475
 10
-147.21151247310522
 20
-140.72236882605696
 10
-147.11612361030137
 20
-140.46029007943585
 10
-147.11612361030137
 20
-140.46029007943585
 10
-145.4302452209712
 20
-136.84491220637983
 10
-143.74436683164103
 20
-133.22953433332378
 10
-142.05848844231087
 20
-129.6141564602677
 10
-140.3726100529807
 20
-125.99877858721166
 10
-138.68673166365056
 20
-122.38340071415563
 10
-137.00085327432038
 20
-118.7680228410996
 10
-135.31497488499022
 20
-115.15264496804353
 10
-135.31497488499022
 20
-115.15264496804353
 10
-135.14699121445477
 20
-114.70073613117606
 10
-135.05356676493776
 20
-114.22775412027299
 10
-135.03711437970145
 20
-113.74591448987145
 10
-135.09805896921702
 20
-113.26766155740346
 10
-135.2348265371383
 20
-112.80534700780507
 10
-135.44388483140006
 20
-112.37091089051528
 10
-135.71983457055782
 20
-111.97557324765258
 10
-135.71983457055785
 20
-111.9755732476526
 10
-136.28327600503084
 20
-111.28913325808853
 10
-136.84324561950095
 20
-110.59985817495848
 10
-137.39972914872766
 20
-109.90776555756317
 10
-137.95271241627862
 20
-109.21287303698003
 10
-138.50218133489068
 20
-108.51519831561411
 10
-139.0481219068288
 20
-107.81475916674708
 10
-139.59052022424274
 20
-107.11157343408446
 10
-139.59052022424274
 20
-107.11157343408445
 10
-140.12936246952128
 20
-106.40565903130114
 10
-140.66463491564414
 20
-105.69703394158488
 10
-141.19632392653185
 20
-104.98571621717828
 10
-141.72441595739298
 20
-104.27172397891887
 10
-142.24889755506936
 20
-103.55507541577754
 10
-142.76975535837863
 20
-102.83578878439505
 10
-143.2869760984547
 20
-102.11388240861707
 10
-143.2869760984547
 20
-102.11388240861706
 10
-143.59742188981488
 20
-101.74501451758803
 10
-143.96294668728626
 20
-101.43063937092569
 10
-144.37411019928214
 20
-101.17887623460771
 10
-144.82029343778888
 20
-100.99622731432318
 10
-145.28997297155985
 20
-100.88740982509394
 10
-145.7710185380745
 20
-100.85523416127664
 10
-146.2510063279338
 20
-100.90053131341024
 10
-146.2510063279338
 20
-100.90053131341024
 10
-150.1795306221981
 20
-101.59323614085771
 10
-154.10805491646238
 20
-102.2859409683052
 10
-158.03657921072664
 20
-102.97864579575267
 10
-161.96510350499096
 20
-103.67135062320015
 10
-165.8936277992552
 20
-104.36405545064761
 10
-169.82215209351952
 20
-105.05676027809508
 10
-173.7506763877838
 20
-105.74946510554257
 10
-173.7506763877838
 20
-105.74946510554257
 10
-174.02851347205092
 20
-105.77377270072304
 10
-174.306350556318
 20
-105.74946510554257
 10
-174.57574570137197
 20
-105.6772808939805
 10
-174.82851347205087
 20
-105.55941334677813
 10
-175.05697364754934
 20
-105.3994438097134
 10
-175.25418458104124
 20
-105.2022328762215
 10
-175.41415411810598
 20
-104.97377270072303
 10
-175.41415411810598
 20
-104.97377270072303
 10
-176.05472948427928
 20
-103.86426362043386
 10
-176.69530485045257
 20
-102.75475454014467
 10
-177.33588021662584
 20
-101.6452454598555
 10
-177.97645558279913
 20
-100.53573637956632
 10
-178.61703094897243
 20
-99.42622729927714
 10
-178.61703094897243
 20
-99.42622729927714
 10
-178.7348984961748
 20
-99.17345952859822
 10
-178.80708270773687
 20
-98.90406438354424
 10
-178.83139030291733
 20
-98.62622729927715
 10
-178.8070827077369
 20
-98.34839021501007
 10
-178.7348984961748
 20
-98.0789950699561
 10
-178.61703094897246
 20
-97.82622729927715
 10
-178.45706141190772
 20
-97.5977671237787
 10
-178.45706141190772
 20
-97.5977671237787
 10
-175.89289928688194
 20
-94.54191769928524
 10
-173.32873716185617
 20
-91.48606827479175
 10
-170.76457503683042
 20
-88.43021885029829
 10
-168.20041291180462
 20
-85.37436942580482
 10
-165.63625078677887
 20
-82.31852000131136
 10
-163.0720886617531
 20
-79.2626705768179
 10
-160.50792653672733
 20
-76.20682115232442
 10
-160.50792653672733
 20
-76.20682115232442
 10
-160.22870415733087
 20
-75.81378810886669
 10
-160.01604631632293
 20
-75.38110259597849
 10
-159.87544525948604
 20
-74.91993944348057
 10
-159.8105322451729
 20
-74.44220896404866
 10
-159.82298376096276
 20
-73.960249349392
 10
-159.9124782255551
 20
-73.48650801573746
 10
-160.07670429414654
 20
-73.03322012840704
 10
-160.07670429414654
 20
-73.03322012840705
 10
-160.4432831846862
 20
-72.22434064024802
 10
-160.80577477841135
 20
-71.41362123513159
 10
-161.16416984083918
 20
-70.60108256615571
 10
-161.51845924184616
 20
-69.78674533276414
 10
-161.86863395590055
 20
-68.97063028021908
 10
-162.21468506229243
 20
-68.15275819907272
 10
-162.55660374536083
 20
-67.33314992463761
 10
-162.55660374536083
 20
-67.33314992463767
 10
-162.89438129471847
 20
-66.51182633645595
 10
-163.2280091054734
 20
-65.68880835776741
 10
-163.55747867844852
 20
-64.86411695497645
 10
-163.88278162039782
 20
-64.03777313711802
 10
-164.20390964422046
 20
-63.2097979553224
 10
-164.52085456917163
 20
-62.380212502278894
 10
-164.83360832107118
 20
-61.54903791169849
 10
-164.83360832107115
 20
-61.54903791169849
 10
-165.0380058932836
 20
-61.112389605988824
 10
-165.3097094600472
 20
-60.71412175364142
 10
-165.6417018205779
 20
-60.364520290608574
 10
-166.0254087147718
 20
-60.07261426163087
 10
-166.45092026786782
 20
-59.845942629997595
 10
-166.9072469296014
 20
-59.69035957116236
 10
-167.38260329779104
 20
-59.60988327883329
 10
-167.38260329779104
 20
-59.60988327883329
 10
-171.3565515748028
 20
-59.26220785515638
 10
-175.33049985181458
 20
-58.91453243147948
 10
-179.30444812882632
 20
-58.56685700780257
 10
-183.27839640583812
 20
-58.21918158412567
 10
-187.25234468284987
 20
-57.87150616044876
 10
-191.22629295986167
 20
-57.523830736771856
 10
-195.20024123687344
 20
-57.17615531309495
 10
-195.20024123687344
 20
-57.17615531309495
 10
-195.47490252064122
 20
-57.12772511821066
 10
-195.7369812672623
 20
-57.0323362554068
 10
-195.9785143466389
 20
-56.89288706701055
 10
-196.19216289837564
 20
-56.71361464604663
 10
-196.37143531933958
 20
-56.49996609430983
 10
-196.51088450773582
 20
-56.25843301493328
 10
-196.60627337053967
 20
-55.99635426831219
 10
-196.60627337053967
 20
-55.99635426831219
 10
-196.937859579718
 20
-54.75885768856947
 10
-197.26944578889635
 20
-53.52136110882675
 10
-197.6010319980747
 20
-52.283864529084035
 10
-197.93261820725303
 20
-51.046367949341324
 10
-198.26420441643137
 20
-49.808871369598606
 10
-198.26420441643137
 20
-49.808871369598606
 10
-198.31263461131564
 20
-49.53421008583083
 10
-198.31263461131567
 20
-49.25531170903833
 10
-198.26420441643134
 20
-48.98065042527055
 10
-198.16881555362752
 20
-48.71857167864947
 10
-198.02936636523128
 20
-48.47703859927291
 10
-197.85009394426734
 20
-48.263390047536106
 10
-197.63644539253053
 20
-48.084117626572194
 10
-197.63644539253053
 20
-48.084117626572194
 10
-194.36874294315143
 20
-45.796047738890586
 10
-191.10104049377227
 20
-43.50797785120898
 10
-187.83333804439314
 20
-41.21990796352737
 10
-184.565635595014
 20
-38.93183807584576
 10
-181.2979331456349
 20
-36.64376818816415
 10
-178.03023069625573
 20
-34.355698300482544
 10
-174.76252824687657
 20
-32.067628412800936
 10
-174.76252824687657
 20
-32.067628412800936
 10
-174.3910957023382
 20
-31.760255715146755
 10
-174.07369675027036
 20
-31.397353502930155
 10
-173.81852875150207
 20
-30.98829433507047
 10
-173.63218184801178
 20
-30.543642851360993
 10
-173.51946876144626
 20
-30.074882922908984
 10
-173.48330049650386
 20
-29.594121061883673
 10
-173.52461115935085
 20
-29.113773750513438
 10
-173.52461115935088
 20
-29.11377375051344
 10
-173.66934576036718
 20
-28.237578564140932
 10
-173.80965613028064
 20
-27.360664024719632
 10
-173.94553869468095
 20
-26.48305247167027
 10
-174.07698999195625
 20
-25.604766262169996
 10
-174.2040066733813
 20
-24.725827770582846
 10
-174.3265855032028
 20
-23.846259387889774
 10
-174.44472335872192
 20
-22.96608352111821
 10
-174.44472335872192
 20
-22.966083521118104
 10
-174.55841723037372
 20
-22.085322592771174
 10
-174.66766422180382
 20
-21.20399904025644
 10
-174.77246154994228
 20
-20.32213531531434
 10
-174.87280654507444
 20
-19.439753883446215
 10
-174.96869665090898
 20
-18.556877223342006
 10
-175.06012942464292
 20
-17.673527826307605
 10
-175.14710253702398
 20
-16.789728195691893
 10
-175.14710253702395
 20
-16.789728195691893
 10
-175.23152253332535
 20
-16.315056335740262
 10
-175.39088872031755
 20
-15.860037073676526
 10
-175.62108519865623
 20
-15.436422045890765
 10
-175.9161667578036
 20
-15.05515182169719
 10
-176.26851242107227
 20
-14.726073344763128
 10
-176.66902227014316
 20
-14.457685619256416
 10
-177.1073524657345
 20
-14.256920208793533
 10
-177.1073524657345
 20
-14.256920208793533
 10
-180.85590671767542
 20
-12.892558039555023
 10
-184.60446096961638
 20
-11.528195870316509
 10
-188.3530152215573
 20
-10.163833701077996
 10
-192.10156947349827
 20
-8.799471531839485
 10
-195.85012372543918
 20
-7.435109362600972
 10
-199.59867797738013
 20
-6.070747193362459
 10
-203.3472322293211
 20
-4.706385024123946
 10
-203.3472322293211
 20
-4.706385024123943
 10
-203.60000000000002
 20
-4.58851747692159
 10
-203.8284601754985
 20
-4.428547939856853
 10
-204.0256711089904
 20
-4.231337006364951
 10
-204.1856406460551
 20
-4.002876830866489
 10
-204.30350819325747
 20
-3.7501090601875604
 10
-204.37569240481955
 20
-3.4807139151335806
 10
-204.4
 20
-3.2028768308664937
 10
-204.4
 20
-3.2028768308664937
 10
-204.4
 20
-1.9217260985199112
 10
-204.4
 20
-0.6405753661733284
 10
-204.4
 20
0.6405753661732543
 10
-204.4
 20
1.9217260985198366
 10
-204.4
 20
3.202876830866418
 10
-204.4
 20
3.202876830866418
 10
-204.37569240481955
 20
3.480713915133505
 10
-204.30350819325747
 20
3.750109060187485
 10
-204.1856406460551
 20
4.002876830866414
 10
-204.0256711089904
 20
4.2313370063648765
 10
-203.8284601754985
 20
4.428547939856778
 10
-203.60000000000002
 20
4.588517476921515
 10
-203.3472322293211
 20
4.706385024123868
 10
-203.3472322293211
 20
4.706385024123872
 10
-199.59867797738016
 20
6.0707471933623856
 10
-195.8501237254392
 20
7.435109362600899
 10
-192.10156947349827
 20
8.799471531839412
 10
-188.3530152215573
 20
10.163833701077928
 10
-184.60446096961638
 20
11.52819587031644
 10
-180.85590671767545
 20
12.892558039554954
 10
-177.1073524657345
 20
14.256920208793469
 10
-177.1073524657345
 20
14.256920208793469
 10
-176.66902227014316
 20
14.457685619256353
 10
-176.26851242107224
 20
14.726073344763064
 10
-175.9161667578036
 20
15.055151821697127
 10
-175.62108519865623
 20
15.436422045890701
 10
-175.39088872031755
 20
15.860037073676462
 10
-175.23152253332535
 20
16.315056335740195
 10
-175.14710253702395
 20
16.789728195691826
 10
-175.14710253702398
 20
16.78972819569183
 10
-175.06012942464292
 20
17.67352782630754
 10
-174.96869665090898
 20
18.556877223341946
 10
-174.87280654507444
 20
19.43975388344615
 10
-174.77246154994228
 20
20.322135315314277
 10
-174.66766422180382
 20
21.203999040256377
 10
-174.55841723037372
 20
22.08532259277111
 10
-174.44472335872192
 20
22.96608352111804
 10
-174.44472335872194
 20
22.96608352111799
 10
-174.32658550320284
 20
23.846259387889553
 10
-174.20400667338131
 20
24.725827770582626
 10
-174.0769899919563
 20
25.604766262169775
 10
-173.945538694681
 20
26.48305247167005
 10
-173.8096561302807
 20
27.36066402471941
 10
-173.6693457603672
 20
28.237578564140716
 10
-173.5246111593509
 20
29.113773750513225
 10
-173.52461115935088
 20
29.113773750513218
 10
-173.48330049650392
 20
29.59412106188345
 10
-173.51946876144632
 20
30.074882922908756
 10
-173.63218184801184
 20
30.543642851360772
 10
-173.81852875150213
 20
30.988294335070254
 10
-174.07369675027041
 20
31.397353502929946
 10
-174.39109570233822
 20
31.760255715146542
 10
-174.76252824687663
 20
32.067628412800715
 10
-174.76252824687663
 20
32.067628412800715
 10
-178.03023069625576
 20
34.35569830048232
 10
-181.29793314563491
 20
36.64376818816392
 10
-184.56563559501404
 20
38.931838075845526
 10
-187.8333380443932
 20
41.219907963527135
 10
-191.1010404937723
 20
43.50797785120872
 10
-194.36874294315146
 20
45.79604773889034
 10
-197.63644539253062
 20
48.08411762657194
 10
-197.63644539253062
 20
48.084117626571945
 10
-197.8500939442674
 20
48.26339004753585
 10
-198.02936636523134
 20
48.47703859927266
 10
-198.16881555362758
 20
48.71857167864922
 10
-198.26420441643143
 20
48.9806504252703
 10
-198.31263461131573
 20
49.25531170903808
 10
-198.31263461131573
 20
49.53421008583058
 10
-198.26420441643145
 20
49.80887136959836
 10
-198.26420441643145
 20
49.80887136959836
 10
-197.9326182072531
 20
51.046367949341075
 10
-197.60103199807477
 20
52.28386452908379
 10
-197.26944578889643
 20
53.52136110882651
 10
-196.9378595797181
 20
54.75885768856922
 10
-196.60627337053975
 20
55.99635426831194
 10
-196.60627337053975
 20
55.99635426831194
 10
-196.5108845077359
 20
56.25843301493303
 10
-196.37143531933964
 20
56.499966094309585
 10
-196.19216289837573
 20
56.71361464604638
 10
-195.97851434663895
 20
56.8928870670103
 10
-195.73698126726237
 20
57.03233625540655
 10
-195.47490252064128
 20
57.12772511821042
 10
-195.20024123687352
 20
57.176155313094704
 10
-195.20024123687352
 20
57.17615531309471
 10
-191.22629295986175
 20
57.52383073677162
 10
-187.25234468284995
 20
57.871506160448526
 10
-183.27839640583818
 20
58.21918158412544
 10
-179.30444812882644
 20
58.56685700780235
 10
-175.33049985181466
 20
58.91453243147925
 10
-171.3565515748029
 20
59.26220785515617
 10
-167.3826032977911
 20
59.60988327883308
 10
-167.3826032977911
 20
59.60988327883308
 10
-166.90724692960148
 20
59.69035957116215
 10
-166.45092026786787
 20
59.845942629997374
 10
-166.02540871477186
 20
60.07261426163066
 10
-165.64170182057796
 20
60.36452029060837
 10
-165.30970946004726
 20
60.71412175364121
 10
-165.0380058932837
 20
61.11238960598861
 10
-164.83360832107124
 20
61.54903791169828
 10
-164.83360832107127
 20
61.549037911698285
 10
-164.52085456917172
 20
62.38021250227868
 10
-164.20390964422052
 20
63.209797955322195
 10
-163.88278162039788
 20
64.03777313711781
 10
-163.55747867844858
 20
64.86411695497624
 10
-163.2280091054735
 20
65.6888083577672
 10
-162.89438129471856
 20
66.51182633645575
 10
-162.55660374536092
 20
67.33314992463745
 10
-162.55660374536092
 20
67.33314992463741
 10
-162.21468506229252
 20
68.15275819907252
 10
-161.86863395590066
 20
68.97063028021888
 10
-161.51845924184624
 20
69.78674533276394
 10
-161.16416984083926
 20
70.60108256615551
 10
-160.80577477841143
 20
71.41362123513139
 10
-160.44328318468632
 20
72.22434064024782
 10
-160.07670429414668
 20
73.03322012840685
 10
-160.07670429414665
 20
73.03322012840684
 10
-159.91247822555522
 20
73.48650801573726
 10
-159.82298376096287
 20
73.9602493493918
 10
-159.810532245173
 20
74.44220896404846
 10
-159.87544525948616
 20
74.91993944348037
 10
-160.01604631632304
 20
75.38110259597829
 10
-160.22870415733098
 20
75.81378810886648
 10
-160.5079265367274
 20
76.20682115232421
 10
-160.5079265367274
 20
76.20682115232421
 10
-163.07208866175318
 20
79.26267057681767
 10
-165.63625078677896
 20
82.31852000131113
 10
-168.20041291180473
 20
85.3743694258046
 10
-170.76457503683054
 20
88.43021885029808
 10
-173.32873716185628
 20
91.48606827479152
 10
-175.89289928688206
 20
94.541917699285
 10
-178.45706141190786
 20
97.59776712377845
 10
-178.45706141190786
 20
97.59776712377847
 10
-178.61703094897257
 20
97.82622729927692
 10
-178.73489849617494
 20
98.07899506995587
 10
-178.80708270773704
 20
98.34839021500984
 10
-178.83139030291747
 20
98.62622729927692
 10
-178.807082707737
 20
98.90406438354401
 10
-178.73489849617494
 20
99.17345952859799
 10
-178.61703094897257
 20
99.42622729927692
 10
-178.61703094897257
 20
99.42622729927692
 10
-177.97645558279928
 20
100.53573637956609
 10
-177.33588021662598
 20
101.64524545985527
 10
-176.69530485045271
 20
102.75475454014445
 10
-176.05472948427942
 20
103.86426362043363
 10
-175.41415411810613
 20
104.9737727007228
 10
-175.41415411810613
 20
104.9737727007228
 10
-175.2541845810414
 20
105.20223287622127
 10
-175.05697364754948
 20
105.39944380971318
 10
-174.82851347205101
 20
105.5594133467779
 10
-174.5757457013721
 20
105.67728089398027
 10
-174.30635055631814
 20
105.74946510554234
 10
-174.02851347205103
 20
105.77377270072282
 10
-173.75067638778395
 20
105.74946510554234
 10
-173.75067638778395
 20
105.74946510554236
 10
-169.82215209351966
 20
105.0567602780949
 10
-165.89362779925537
 20
104.36405545064741
 10
-161.96510350499108
 20
103.67135062319994
 10
-158.0365792107268
 20
102.97864579575246
 10
-154.10805491646252
 20
102.28594096830498
 10
-150.17953062219826
 20
101.59323614085754
 10
-146.25100632793394
 20
100.90053131341006
 10
-146.25100632793394
 20
100.90053131341006
 10
-145.7710185380746
 20
100.85523416127646
 10
-145.28997297155996
 20
100.88740982509373
 10
-144.820293437789
 20
100.99622731432301
 10
-144.37411019928228
 20
101.17887623460754
 10
-143.96294668728638
 20
101.43063937092552
 10
-143.597421889815
 20
101.74501451758786
 10
-143.2869760984548
 20
102.11388240861689
 10
-143.28697609845483
 20
102.1138824086169
 10
-142.76975535837875
 20
102.83578878439488
 10
-142.2488975550695
 20
103.55507541577737
 10
-141.72441595739312
 20
104.2717239789187
 10
-141.196323926532
 20
104.98571621717811
 10
-140.66463491564426
 20
105.6970339415847
 10
-140.12936246952142
 20
106.40565903130097
 10
-139.59052022424288
 20
107.11157343408428
 10
-139.59052022424282
 20
107.11157343408435
 10
-139.0481219068289
 20
107.81475916674697
 10
-138.50218133489076
 20
108.515198315614
 10
-137.9527124162787
 20
109.21287303697993
 10
-137.39972914872774
 20
109.90776555756305
 10
-136.84324561950103
 20
110.59985817495837
 10
-136.28327600503093
 20
111.28913325808841
 10
-135.71983457055794
 20
111.97557324765249
 10
-135.71983457055794
 20
111.97557324765246
 10
-135.44388483140014
 20
112.37091089051516
 10
-135.23482653713842
 20
112.80534700780495
 10
-135.0980589692171
 20
113.26766155740334
 10
-135.03711437970153
 20
113.74591448987135
 10
-135.05356676493784
 20
114.2277541202729
 10
-135.14699121445486
 20
114.70073613117597
 10
-135.3149748849903
 20
115.15264496804343
 10
-135.3149748849903
 20
115.15264496804343
 10
-137.00085327432046
 20
118.76802284109945
 10
-138.68673166365062
 20
122.38340071415551
 10
-140.3726100529808
 20
125.99877858721156
 10
-142.058488442311
 20
129.61415646026762
 10
-143.74436683164114
 20
133.2295343333236
 10
-145.4302452209713
 20
136.8449122063797
 10
-147.11612361030149
 20
140.46029007943574
 10
-147.11612361030149
 20
140.46029007943574
 10
-147.21151247310533
 20
140.72236882605685
 10
-147.25994266798963
 20
140.99703010982464
 10
-147.25994266798963
 20
141.27592848661712
 10
-147.21151247310533
 20
141.5505897703849
 10
-147.11612361030149
 20
141.812668517006
 10
-146.97667442190522
 20
142.05420159638254
 10
-146.7974020009413
 20
142.26785014811932
 10
-146.7974020009413
 20
142.26785014811932
 10
-145.89149163037692
 20
143.1737605186837
 10
-144.98558125981253
 20
144.0796708892481
 10
-144.07967088924818
 20
144.98558125981245
 10
-143.1737605186838
 20
145.89149163037683
 10
-142.2678501481194
 20
146.79740200094122
 10
-142.2678501481194
 20
146.79740200094122
 10
-142.0542015963826
 20
146.97667442190516
 10
-141.81266851700605
 20
147.11612361030143
 10
-141.55058977038496
 20
147.21151247310527
 10
-141.27592848661718
 20
147.25994266798958
 10
-140.9970301098247
 20
147.25994266798958
 10
-140.7223688260569
 20
147.21151247310527
 10
-140.46029007943582
 20
147.1161236103014
 10
-140.46029007943582
 20
147.1161236103014
 10
-136.84491220637977
 20
145.43024522097124
 10
-133.2295343333237
 20
143.7443668316411
 10
-129.61415646026768
 20
142.05848844231093
 10
-125.99877858721163
 20
140.37261005298075
 10
-122.38340071415557
 20
138.6867316636506
 10
-118.76802284109954
 20
137.00085327432043
 10
-115.15264496804349
 20
135.31497488499025
 10
-115.15264496804349
 20
135.31497488499025
 10
-114.70073613117603
 20
135.1469912144548
 10
-114.22775412027295
 20
135.05356676493778
 10
-113.74591448987141
 20
135.03711437970148
 10
-113.2676615574034
 20
135.09805896921705
 10
-112.80534700780503
 20
135.23482653713836
 10
-112.37091089051523
 20
135.44388483140008
 10
-111.97557324765255
 20
135.71983457055785
 10
-111.97557324765256
 20
135.71983457055788
 10
-111.28913325808847
 20
136.28327600503087
 10
-110.59985817495843
 20
136.84324561950098
 10
-109.90776555756312
 20
137.3997291487277
 10
-109.21287303697999
 20
137.95271241627867
 10
-108.51519831561407
 20
138.5021813348907
 10
-107.81475916674702
 20
139.04812190682884
 10
-107.11157343408442
 20
139.59052022424277
 10
-107.11157343408445
 20
139.59052022424274
 10
-106.40565903130114
 20
140.12936246952128
 10
-105.69703394158488
 20
140.66463491564414
 10
-104.98571621717828
 20
141.19632392653185
 10
-104.27172397891887
 20
141.72441595739298
 10
-103.55507541577754
 20
142.24889755506936
 10
-102.83578878439505
 20
142.76975535837863
 10
-102.11388240861707
 20
143.2869760984547
 10
-102.11388240861706
 20
143.2869760984547
 10
-101.74501451758803
 20
143.59742188981488
 10
-101.43063937092569
 20
143.96294668728626
 10
-101.17887623460771
 20
144.37411019928214
 10
-100.99622731432318
 20
144.82029343778888
 10
-100.88740982509394
 20
145.28997297155985
 10
-100.85523416127664
 20
145.7710185380745
 10
-100.90053131341024
 20
146.2510063279338
 10
-100.90053131341024
 20
146.2510063279338
 10
-101.59323614085771
 20
150.1795306221981
 10
-102.2859409683052
 20
154.10805491646238
 10
-102.97864579575267
 20
158.03657921072664
 10
-103.67135062320015
 20
161.96510350499096
 10
-104.36405545064761
 20
165.8936277992552
 10
-105.05676027809508
 20
169.82215209351952
 10
-105.74946510554257
 20
173.7506763877838
 10
-105.74946510554257
 20
173.7506763877838
 10
-105.77377270072304
 20
174.02851347205092
 10
-105.74946510554257
 20
174.306350556318
 10
-105.6772808939805
 20
174.57574570137197
 10
-105.55941334677813
 20
174.82851347205087
 10
-105.3994438097134
 20
175.05697364754934
 10
-105.2022328762215
 20
175.25418458104124
 10
-104.97377270072303
 20
175.41415411810598
 10
-104.97377270072303
 20
175.41415411810598
 10
-103.86426362043386
 20
176.05472948427928
 10
-102.75475454014467
 20
176.69530485045257
 10
-101.6452454598555
 20
177.33588021662584
 10
-100.53573637956632
 20
177.97645558279913
 10
-99.42622729927714
 20
178.61703094897243
 10
-99.42622729927714
 20
178.61703094897243
 10
-99.17345952859822
 20
178.7348984961748
 10
-98.90406438354424
 20
178.80708270773687
 10
-98.62622729927715
 20
178.83139030291733
 10
-98.34839021501007
 20
178.8070827077369
 10
-98.0789950699561
 20
178.7348984961748
 10
-97.82622729927715
 20
178.61703094897246
 10
-97.5977671237787
 20
178.45706141190772
 10
-97.5977671237787
 20
178.45706141190772
 10
-94.54191769928524
 20
175.89289928688194
 10
-91.48606827479175
 20
173.32873716185617
 10
-88.43021885029829
 20
170.76457503683042
 10
-85.37436942580482
 20
168.20041291180462
 10
-82.31852000131136
 20
165.63625078677887
 10
-79.2626705768179
 20
163.0720886617531
 10
-76.20682115232442
 20
160.50792653672733
 10
-76.20682115232442
 20
160.50792653672733
 10
-75.81378810886669
 20
160.22870415733087
 10
-75.38110259597849
 20
160.01604631632293
 10
-74.91993944348057
 20
159.87544525948604
 10
-74.44220896404866
 20
159.8105322451729
 10
-73.960249349392
 20
159.82298376096276
 10
-73.48650801573746
 20
159.9124782255551
 10
-73.03322012840704
 20
160.07670429414654
 10
-73.03322012840705
 20
160.07670429414654
 10
-72.22434064024802
 20
160.4432831846862
 10
-71.41362123513159
 20
160.80577477841135
 10
-70.60108256615571
 20
161.16416984083918
 10
-69.78674533276414
 20
161.51845924184616
 10
-68.97063028021908
 20
161.86863395590055
 10
-68.15275819907272
 20
162.21468506229243
 10
-67.33314992463761
 20
162.55660374536083
 10
-67.33314992463767
 20
162.55660374536083
 10
-66.51182633645597
 20
162.89438129471847
 10
-65.68880835776741
 20
163.2280091054734
 10
-64.86411695497645
 20
163.55747867844852
 10
-64.03777313711802
 20
163.88278162039782
 10
-63.209797955322415
 20
164.20390964422046
 10
-62.3802125022789
 20
164.52085456917163
 10
-61.549037911698505
 20
164.83360832107118
 10
-61.549037911698505
 20
164.83360832107115
 10
-61.11238960598884
 20
165.0380058932836
 10
-60.71412175364143
 20
165.3097094600472
 10
-60.36452029060858
 20
165.6417018205779
 10
-60.072614261630875
 20
166.0254087147718
 10
-59.84594262999761
 20
166.45092026786782
 10
-59.690359571162375
 20
166.9072469296014
 10
-59.609883278833294
 20
167.38260329779104
 10
-59.609883278833294
 20
167.38260329779104
 10
-59.26220785515639
 20
171.3565515748028
 10
-58.914532431479486
 20
175.33049985181458
 10
-58.56685700780258
 20
179.30444812882632
 10
-58.21918158412568
 20
183.27839640583812
 10
-57.87150616044876
 20
187.25234468284987
 10
-57.52383073677187
 20
191.22629295986167
 10
-57.17615531309497
 20
195.20024123687344
 10
-57.17615531309497
 20
195.20024123687344
 10
-57.12772511821068
 20
195.47490252064122
 10
-57.03233625540681
 20
195.7369812672623
 10
-56.892887067010555
 20
195.9785143466389
 10
-56.713614646046636
 20
196.19216289837564
 10
-56.49996609430984
 20
196.37143531933958
 10
-56.25843301493329
 20
196.51088450773582
 10
-55.9963542683122
 20
196.60627337053967
 10
-55.9963542683122
 20
196.60627337053967
 10
-54.758857688569485
 20
196.937859579718
 10
-53.52136110882677
 20
197.26944578889635
 10
-52.28386452908405
 20
197.6010319980747
 10
-51.04636794934134
 20
197.93261820725303
 10
-49.80887136959862
 20
198.26420441643137
 10
-49.80887136959862
 20
198.26420441643137
 10
-49.534210085830836
 20
198.31263461131564
 10
-49.25531170903834
 20
198.31263461131567
 10
-48.980650425270554
 20
198.26420441643134
 10
-48.718571678649475
 20
198.16881555362752
 10
-48.47703859927292
 20
198.02936636523128
 10
-48.26339004753612
 20
197.85009394426734
 10
-48.08411762657221
 20
197.63644539253053
 10
-48.08411762657221
 20
197.63644539253053
 10
-45.7960477388906
 20
194.36874294315143
 10
-43.50797785120899
 20
191.10104049377227
 10
-41.219907963527376
 20
187.83333804439314
 10
-38.93183807584576
 20
184.565635595014
 10
-36.64376818816416
 20
181.2979331456349
 10
-34.35569830048256
 20
178.03023069625573
 10
-32.06762841280094
 20
174.76252824687657
 10
-32.06762841280094
 20
174.76252824687657
 10
-31.76025571514677
 20
174.3910957023382
 10
-31.39735350293017
 20
174.07369675027036
 10
-30.988294335070478
 20
173.81852875150207
 10
-30.543642851361
 20
173.63218184801178
 10
-30.07488292290899
 20
173.51946876144626
 10
-29.594121061883687
 20
173.48330049650386
 10
-29.113773750513452
 20
173.52461115935085
 10
-29.113773750513456
 20
173.52461115935088
 10
-28.23757856414094
 20
173.66934576036718
 10
-27.36066402471964
 20
173.80965613028064
 10
-26.483052471670277
 20
173.94553869468095
 10
-25.604766262170003
 20
174.07698999195625
 10
-24.725827770582853
 20
174.2040066733813
 10
-23.846259387889788
 20
174.3265855032028
 10
-22.966083521118218
 20
174.44472335872192
  0
CIRCLE
  5
37
330
17
100
AcDbEntity
  8
PITCH_CIRCLE
100
AcDbCircle
 10
0.0
 20
0.0
 30
0.0
 40
193.45
  0
CIRCLE
  5
38
330
17
100
AcDbEntity
  8
ROOT_CIRCLE
100
AcDbCircle
 10
0.0
 20
0.0
 30
0.0
 40
175.95
  0
CIRCLE
  5
39
330
17
100
AcDbEntity
  8
TIP_CIRCLE
100
AcDbCircle
 10
0.0
 20
0.0
 30
0.0
 40
204.4
  0
CIRCLE
  5
3A
330
17
100
AcDbEntity
  8
HOLES
100
AcDbCircle
 10
0.0
 20
0.0
 30
0.0
 40
37.5
  0
CIRCLE
  5
3B
330
17
100
AcDbEntity
  8
RECESS
100
AcDbCircle
 10
0.0
 20
0.0
 30
0.0
 40
60.0
  0
CIRCLE
  5
3C
330
17
100
AcDbEntity
  8
HOLES
100
AcDbCircle
 10
2.9085361479749637e-15
 20
47.5
 30
0.0
 40
4.75
  0
CIRCLE
  5
3D
330
17
100
AcDbEntity
  8
HOLES
100
AcDbCircle
 10
30.53241146011062
 20
36.38711104815145
 30
0.0
 40
4.75
  0
CIRCLE
  5
3E
330
17
100
AcDbEntity
  8
HOLES
100
AcDbCircle
 10
46.77836826807988
 20
8.248288439179191
 30
0.0
 40
4.75
  0
CIRCLE
  5
3F
330
17
100
AcDbEntity
  8
HOLES
100
AcDbCircle
 10
41.13620667976084
 20
-23.749999999999996
 30
0.0
 40
4.75
  0
CIRCLE
  5
40
330
17
100
AcDbEntity
  8
HOLES
100
AcDbCircle
 10
16.245956807969268
 20
-44.635399487330645
 30
0.0
 40
4.75
  0
CIRCLE
  5
41
330
17
100
AcDbEntity
  8
HOLES
100
AcDbCircle
 10
-16.245956807969264
 20
-44.63539948733065
 30
0.0
 40
4.75
  0
CIRCLE
  5
42
330
17
100
AcDbEntity
  8
HOLES
100
AcDbCircle
 10
-41.13620667976084
 20
-23.749999999999996
 30
0.0
 40
4.75
  0
CIRCLE
  5
43
330
17
100
AcDbEntity
  8
HOLES
100
AcDbCircle
 10
-46.77836826807988
 20
8.248288439179197
 30
0.0
 40
4.75
  0
CIRCLE
  5
44
330
17
100
AcDbEntity
  8
HOLES
100
AcDbCircle
 10
-30.532411460110627
 20
36.38711104815145
 30
0.0
 40
4.75
  0
CIRCLE
  5
45
330
17
100
AcDbEntity
  8
RECESS
100
AcDbCircle
 10
0.0
 20
0.0
 30
0.0
 40
165.0
  0
LINE
  5
46
330
17
100
AcDbEntity
  8
AXES
100
AcDbLine
 10
-229.4
 20
0.0
 30
0.0
 11
229.4
 21
0.0
 31
0.0
  0
LINE
  5
47
330
17
100
AcDbEntity
  8
AXES
100
AcDbLine
 10
0.0
 20
-229.4
 30
0.0
 11
0.0
 21
229.4
 31
0.0
  0
ENDSEC
  0
SECTION
  2
OBJECTS
  0
DICTIONARY
  5
A
330
0
100
AcDbDictionary
281
1
  3
ACAD_COLOR
350
B
  3
ACAD_GROUP
350
C
  3
ACAD_LAYOUT
350
D
  3
ACAD_MATERIAL
350
E
  3
ACAD_MLEADERSTYLE
350
F
  3
ACAD_MLINESTYLE
350
10
  3
ACAD_PLOTSETTINGS
350
11
  3
ACAD_PLOTSTYLENAME
350
12
  3
ACAD_SCALELIST
350
14
  3
ACAD_TABLESTYLE
350
15
  3
ACAD_VISUALSTYLE
350
16
  3
EZDXF_META
350
2D
  0
DICTIONARY
  5
B
330
A
100
AcDbDictionary
281
1
  0
DICTIONARY
  5
C
330
A
100
AcDbDictionary
281
1
  0
DICTIONARY
  5
D
330
A
100
AcDbDictionary
281
1
  3
Model
350
1A
  3
Layout1
350
1E
  0
DICTIONARY
  5
E
330
A
100
AcDbDictionary
281
1
  3
ByBlock
350
1F
  3
ByLayer
350
20
  3
Global
350
21
  0
DICTIONARY
  5
F
330
A
100
AcDbDictionary
281
1
  3
Standard
350
2C
  0
DICTIONARY
  5
10
330
A
100
AcDbDictionary
281
1
  3
Standard
350
22
  0
DICTIONARY
  5
11
330
A
100
AcDbDictionary
281
1
  0
ACDBDICTIONARYWDFLT
  5
12
330
A
100
AcDbDictionary
281
1
  3
Normal
350
13
100
AcDbDictionaryWithDefault
340
13
  0
ACDBPLACEHOLDER
  5
13
330
12
  0
DICTIONARY
  5
14
330
A
100
AcDbDictionary
281
1
  0
DICTIONARY
  5
15
330
A
100
AcDbDictionary
281
1
  0
DICTIONARY
  5
16
330
A
100
AcDbDictionary
281
1
  0
LAYOUT
  5
1A
330
D
100
AcDbPlotSettings
  1

  4
A3
  6

 40
7.5
 41
20.0
 42
7.5
 43
20.0
 44
420.0
 45
297.0
 46
0.0
 47
0.0
 48
0.0
 49
0.0
140
0.0
141
0.0
142
1.0
143
1.0
 70
1024
 72
1
 73
0
 74
5
  7

 75
16
 76
0
 77
2
 78
300
147
1.0
148
0.0
149
0.0
100
AcDbLayout
  1
Model
 70
1
 71
0
 10
0.0
 20
0.0
 11
420.0
 21
297.0
 12
0.0
 22
0.0
 32
0.0
 14
1e+20
 24
1e+20
 34
1e+20
 15
-1e+20
 25
-1e+20
 35
-1e+20
146
0.0
 13
0.0
 23
0.0
 33
0.0
 16
1.0
 26
0.0
 36
0.0
 17
0.0
 27
1.0
 37
0.0
 76
1
330
17
  0
LAYOUT
  5
1E
330
D
100
AcDbPlotSettings
  1

  4
A3
  6

 40
7.5
 41
20.0
 42
7.5
 43
20.0
 44
420.0
 45
297.0
 46
0.0
 47
0.0
 48
0.0
 49
0.0
140
0.0
141
0.0
142
1.0
143
1.0
 70
0
 72
1
 73
0
 74
5
  7

 75
16
 76
0
 77
2
 78
300
147
1.0
148
0.0
149
0.0
100
AcDbLayout
  1
Layout1
 70
1
 71
1
 10
0.0
 20
0.0
 11
420.0
 21
297.0
 12
0.0
 22
0.0
 32
0.0
 14
1e+20
 24
1e+20
 34
1e+20
 15
-1e+20
 25
-1e+20
 35
-1e+20
146
0.0
 13
0.0
 23
0.0
 33
0.0
 16
1.0
 26
0.0
 36
0.0
 17
0.0
 27
1.0
 37
0.0
 76
1
330
1B
  0
MATERIAL
  5
1F
102
{ACAD_REACTORS
330
E
102
}
330
E
100
AcDbMaterial
  1
ByBlock
  2

 70
0
 40
1.0
 71
1
 41
1.0
 91
-1023410177
 42
1.0
 72
1
  3

 73
1
 74
1
 75
1
 44
0.5
 73
0
 45
1.0
 46
1.0
 77
1
  4

 78
1
 79
1
170
1
 48
1.0
171
1
  6

172
1
173
1
174
1
140
1.0
141
1.0
175
1
  7

176
1
177
1
178
1
143
1.0
179
1
  8

270
1
271
1
272
1
145
1.0
146
1.0
273
1
  9

274
1
275
1
276
1
 42
1.0
 72
1
  3

 73
1
 74
1
 75
1
 94
63
  0
MATERIAL
  5
20
102
{ACAD_REACTORS
330
E
102
}
330
E
100
AcDbMaterial
  1
ByLayer
  2

 70
0
 40
1.0
 71
1
 41
1.0
 91
-1023410177
 42
1.0
 72
1
  3

 73
1
 74
1
 75
1
 44
0.5
 73
0
 45
1.0
 46
1.0
 77
1
  4

 78
1
 79
1
170
1
 48
1.0
171
1
  6

172
1
173
1
174
1
140
1.0
141
1.0
175
1
  7

176
1
177
1
178
1
143
1.0
179
1
  8

270
1
271
1
272
1
145
1.0
146
1.0
273
1
  9

274
1
275
1
276
1
 42
1.0
 72
1
  3

 73
1
 74
1
 75
1
 94
63
  0
MATERIAL
  5
21
102
{ACAD_REACTORS
330
E
102
}
330
E
100
AcDbMaterial
  1
Global
  2

 70
0
 40
1.0
 71
1
 41
1.0
 91
-1023410177
 42
1.0
 72
1
  3

 73
1
 74
1
 75
1
 44
0.5
 73
0
 45
1.0
 46
1.0
 77
1
  4

 78
1
 79
1
170
1
 48
1.0
171
1
  6

172
1
173
1
174
1
140
1.0
141
1.0
175
1
  7

176
1
177
1
178
1
143
1.0
179
1
  8

270
1
271
1
272
1
145
1.0
146
1.0
273
1
  9

274
1
275
1
276
1
 42
1.0
 72
1
  3

 73
1
 74
1
 75
1
 94
63
  0
MLINESTYLE
  5
22
102
{ACAD_REACTORS
330
10
102
}
330
10
100
AcDbMlineStyle
  2
Standard
 70
0
  3

 62
256
 51
90.0
 52
90.0
 71
2
 49
0.5
 62
256
  6
BYLAYER
 49
-0.5
 62
256
  6
BYLAYER
  0
MLEADERSTYLE
  5
2C
102
{ACAD_REACTORS
330
F
102
}
330
F
100
AcDbMLeaderStyle
179
2
170
2
171
1
172
0
 90
2
 40
0.0
 41
0.0
173
1
 91
-1056964608
 92
-2
290
1
 42
2.0
291
1
 43
8.0
  3
Standard
 44
4.0
300

342
29
174
1
175
1
176
0
178
1
 93
-1056964608
 45
4.0
292
0
297
0
 46
4.0
 94
-1056964608
 47
1.0
 49
1.0
140
1.0
294
1
141
0.0
177
0
142
1.0
295
0
296
0
143
3.75
271
0
272
9
273
9
  0
DICTIONARY
  5
2D
330
A
100
AcDbDictionary
280
1
281
1
  3
CREATED_BY_EZDXF
350
2E
  3
WRITTEN_BY_EZDXF
350
4A
  0
DICTIONARYVAR
  5
2E
330
2D
100
DictionaryVariables
280
0
  1
1.4.4 @ 2026-10-04T16:55:47.987914+00:00
  0
DICTIONARYVAR
  5
4A
330
2D
100
DictionaryVariables
280
0
  1
1.4.4 @ 2026-10-04T16:55:47.999760+00:00
  0
ENDSEC
  0
EOF
